<svg xmlns="http://www.w3.org/2000/svg" width="640" height="640" viewBox="22.5 740.5 640 640"><path fill="#1662AC" d="M337.234 768.14C199.051 772.401 89.73 838.214 60.251 979.893c-47.108 226.698 71.891 404.547 279.634 368.43 81.002-14.07 272.96-20.31 293.384-234.229 19.213-201.133-124.044-351.273-296.035-345.954z"/><path fill="#FFF" d="M484.87 1131.627c-1.463 2.942-37.909 73.621-142.358 73.621-104.271 0-140.696-70.679-142.353-73.621-5.702-11.34-1.08-24.994 10.226-30.673 11.317-5.627 24.897-1.017 30.667 9.979 1.2 2.561 26.771 48.521 101.46 48.521 75.143 0 100.581-46.439 101.627-48.521 5.774-10.996 19.623-15.32 30.615-9.693 11.192 5.696 15.618 19.224 10.116 30.387zM266.337 946.238c25.296 0 45.69 23.816 45.69 53.262 0 29.489-20.389 53.432-45.69 53.432s-45.669-23.941-45.669-53.432c0-29.444 20.384-53.262 45.669-53.262zm152.339 0c25.297 0 45.669 23.816 45.669 53.262 0 29.489-20.366 53.432-45.669 53.432-25.269 0-45.674-23.941-45.674-53.432.012-29.308 20.401-53.262 45.674-53.262z"/></svg>