<svg xmlns:svg="http://www.w3.org/2000/svg" xmlns="http://www.w3.org/2000/svg" viewBox="0 0 640 640" height="640" width="640" xml:space="preserve" version="1.1"><defs><clipPath clipPathUnits="userSpaceOnUse"><path d="M0 512 512 512 512 0 0 0 0 512Z"/></clipPath></defs><g transform="matrix(1.25,0,0,-1.25,0,640)"><g clip-path="url(#clipPath16)"><g transform="translate(370.0371,199.0317)"><path d="m0 0c-1.2-2.4-30.4-59-114-59-83.5 0-112.7 56.6-114 59-4.6 9.1-0.9 20 8.2 24.6 9.1 4.5 19.9 0.8 24.6-8 1-2 21.5-38.9 81.3-38.9 60.2 0 80.6 37.2 81.4 38.9 4.6 8.8 15.7 12.3 24.6 7.8C0.9 19.8 4.4 8.9 0 0m-175.1 148.5c20.3 0 36.6-19.1 36.6-42.6 0-23.6-16.3-42.8-36.6-42.8-20.3 0-36.6 19.2-36.6 42.8 0 23.6 16.3 42.7 36.6 42.7m122 0c20.3 0 36.6-19.1 36.6-42.6 0-23.6-16.3-42.8-36.6-42.8-20.3 0-36.6 19.2-36.6 42.8 0 23.5 16.3 42.7 36.6 42.7m-65.2 142.7c-110.7-3.4-198.3-56.1-221.9-169.7-37.7-181.6 57.6-324.1 224-295.1 64.9 11.3 218.7 16.3 235 187.6 15.4 161.1-99.4 281.4-237.1 277.1" fill="#63a9a0"/></g></g></g></svg>