<svg xmlns:svg="http://www.w3.org/2000/svg" xmlns="http://www.w3.org/2000/svg" viewBox="0 0 640 640" height="640" width="640" xml:space="preserve" version="1.1"><style>.s0{fill:#faeacf;}</style><defs><clipPath clipPathUnits="userSpaceOnUse"><path d="M0 512 512 512 512 0 0 0 0 512Z"/></clipPath></defs><g transform="matrix(1.25,0,0,-1.25,0,640)"><g clip-path="url(#clipPath16)"><g transform="translate(251.7793,490.2051)"><path d="m0 0c-110.7-3.4-198.3-56.1-221.9-169.7-37.7-181.6 57.6-324.1 224-295.1 64.9 11.3 218.7 16.3 235 187.6C252.5-116 137.8 4.2 0 0" fill="#faeacf"/></g><g transform="translate(252.3477,458.7217)"><path d="m0 0c-95.8-3-171.6-48.6-192.1-146.8-32.7-157.2 49.8-280.5 193.9-255.4 56.2 9.8 189.3 14.1 203.4 162.4C218.6-100.4 119.2 3.7 0 0" fill="#63a9a0"/></g><g transform="translate(308.8145,335.2217)"><path d="m0 0c17.5 0 31.7-16.5 31.7-36.9 0-20.4-14.1-37-31.7-37-17.5 0-31.7 16.6-31.7 37C-31.7-16.6-17.5 0 0 0" fill="#faeacf"/></g><g transform="translate(203.1875,335.2217)"><path d="m0 0c17.5 0 31.7-16.5 31.7-36.9 0-20.4-14.1-37-31.7-37-17.5 0-31.7 16.6-31.7 37C-31.7-16.5-17.5 0 0 0" fill="#faeacf"/></g><g transform="translate(354.707,206.6895)"><path d="m0 0c-1-2-26.3-51.1-98.7-51.1-72.3 0-97.6 49-98.7 51.1-3.9 7.9-0.7 17.3 7.1 21.3 7.9 3.9 17.3 0.7 21.3-6.9 0.8-1.8 18.6-33.6 70.4-33.6 52.1 0 69.7 32.2 70.5 33.6 4 7.6 13.6 10.6 21.3 6.7C0.7 17.1 3.8 7.7 0 0" fill="#faeacf"/></g></g></g></svg>