<?xml version="1.0" standalone="no"?>
<!DOCTYPE svg PUBLIC "-//W3C//DTD SVG 20010904//EN"
 "http://www.w3.org/TR/2001/REC-SVG-20010904/DTD/svg10.dtd">
<svg version="1.0" xmlns="http://www.w3.org/2000/svg"
 width="700.000000pt" height="700.000000pt" viewBox="0 0 700.000000 700.000000"
 preserveAspectRatio="xMidYMid meet">
<metadata>
Created by potrace 1.11, written by Peter Selinger 2001-2013
</metadata>
<g transform="translate(0.000000,700.000000) scale(0.100000,-0.100000)"
fill="#000000" stroke="none">
<path d="M3305 6693 c-122 -6 -424 -44 -550 -68 -660 -127 -1184 -387 -1591
-791 -315 -313 -548 -719 -689 -1198 -159 -542 -215 -1292 -139 -1866 98 -745
389 -1366 850 -1810 512 -493 1222 -722 2004 -645 154 15 786 109 1005 150
470 87 802 189 1120 345 267 130 477 279 670 474 398 402 619 918 697 1621 20
183 17 655 -5 835 -33 267 -81 491 -158 727 -324 999 -1079 1772 -2033 2082
-377 123 -742 167 -1181 144z m-540 -1958 c94 -25 145 -55 220 -130 120 -119
175 -258 175 -440 0 -266 -151 -496 -368 -561 -102 -31 -264 -11 -351 44 -178
112 -283 329 -268 556 23 354 304 606 592 531z m1646 5 c280 -52 474 -391 404
-706 -61 -275 -247 -446 -485 -445 -276 1 -490 252 -490 576 0 278 157 506
391 569 66 18 109 19 180 6z m-2117 -1694 c34 -20 62 -50 105 -114 169 -251
418 -408 765 -484 88 -20 131 -22 336 -22 205 0 248 2 336 22 338 74 603 238
757 469 71 106 122 146 205 159 174 28 326 -153 269 -320 -37 -107 -205 -315
-350 -431 -267 -215 -555 -336 -917 -386 -122 -17 -476 -17 -600 0 -518 71
-951 325 -1209 709 -51 76 -71 130 -71 191 0 91 73 194 161 228 55 21 159 11
213 -21z"/>
</g>
</svg>
