<?xml version="1.0" standalone="no"?>
<!DOCTYPE svg PUBLIC "-//W3C//DTD SVG 20010904//EN"
 "http://www.w3.org/TR/2001/REC-SVG-20010904/DTD/svg10.dtd">
<svg version="1.0" xmlns="http://www.w3.org/2000/svg"
 width="700.000000pt" height="700.000000pt" viewBox="0 0 700.000000 700.000000"
 preserveAspectRatio="xMidYMid meet">
<metadata>
Created by potrace 1.11, written by Peter Selinger 2001-2013
</metadata>
<g transform="translate(0.000000,700.000000) scale(0.100000,-0.100000)"
fill="#000000" stroke="none">
<path d="M3225 6693 c-27 -2 -108 -10 -180 -19 -952 -113 -1676 -500 -2152
-1149 -163 -223 -317 -540 -406 -836 -170 -565 -231 -1309 -156 -1899 28 -221
89 -497 153 -691 197 -601 558 -1093 1028 -1402 300 -198 621 -316 1013 -373
168 -25 579 -25 755 -1 329 46 865 132 1040 167 749 151 1262 393 1651 780
397 394 619 892 705 1580 14 113 18 215 18 460 0 341 -14 496 -70 769 -272
1318 -1238 2317 -2484 2565 -214 43 -363 56 -625 54 -132 -1 -262 -3 -290 -5z
m-403 -1972 c202 -78 338 -298 340 -546 1 -299 -181 -545 -432 -585 -298 -46
-560 222 -561 575 0 120 22 210 78 317 64 122 191 228 309 257 64 16 202 7
266 -18z m1623 15 c324 -86 488 -525 319 -858 -95 -188 -245 -288 -432 -288
-218 0 -392 145 -469 390 -81 260 19 566 230 702 98 63 239 85 352 54z m-2149
-1691 c36 -23 64 -54 106 -116 168 -251 435 -415 793 -486 140 -28 503 -25
641 5 195 42 370 115 504 210 85 60 196 172 250 253 23 35 55 77 69 92 83 90
233 100 335 22 84 -64 112 -206 60 -309 -70 -139 -262 -348 -429 -468 -312
-221 -679 -329 -1125 -329 -480 0 -878 129 -1200 388 -142 115 -291 288 -356
415 -47 92 -26 220 48 289 56 53 104 70 184 67 58 -3 80 -9 120 -33z"/>
</g>
</svg>
