<?xml version="1.0" standalone="no"?>
<!DOCTYPE svg PUBLIC "-//W3C//DTD SVG 20010904//EN"
 "http://www.w3.org/TR/2001/REC-SVG-20010904/DTD/svg10.dtd">
<svg version="1.0" xmlns="http://www.w3.org/2000/svg"
 width="700.000000pt" height="700.000000pt" viewBox="0 0 700.000000 700.000000"
 preserveAspectRatio="xMidYMid meet">
<metadata>
Created by potrace 1.11, written by Peter Selinger 2001-2013
</metadata>
<g transform="translate(0.000000,700.000000) scale(0.100000,-0.100000)"
fill="#000000" stroke="none">
<path d="M3275 6263 c-92 -6 -309 -34 -415 -55 -588 -110 -1060 -350 -1415
-719 -389 -403 -597 -901 -690 -1649 -22 -173 -31 -634 -16 -797 58 -622 249
-1144 565 -1538 344 -428 821 -690 1386 -761 129 -16 407 -18 551 -4 126 12
784 113 947 146 528 104 939 269 1244 500 458 346 722 832 813 1499 22 161 31
563 16 732 -67 753 -375 1421 -880 1906 -430 413 -948 659 -1541 732 -113 14
-413 18 -565 8z m-383 -1702 c76 -26 126 -60 182 -122 233 -259 145 -722 -159
-838 -153 -58 -312 -17 -426 108 -148 161 -183 425 -84 621 99 196 305 294
487 231z m1495 -21 c291 -143 356 -579 123 -833 -88 -97 -226 -149 -338 -129
-226 40 -375 235 -376 492 -1 156 38 267 130 369 91 101 184 142 311 138 68
-3 92 -9 150 -37z m-1930 -1435 c31 -19 58 -48 89 -97 170 -265 493 -426 892
-444 410 -19 793 135 980 393 59 83 110 141 133 154 35 18 109 27 152 17 130
-29 202 -174 147 -295 -44 -99 -182 -261 -304 -359 -283 -227 -637 -344 -1046
-344 -505 0 -953 191 -1224 521 -98 120 -138 189 -144 248 -17 180 168 297
325 206z"/>
</g>
</svg>
