<svg xmlns="http://www.w3.org/2000/svg" width="174" height="60" viewBox="-210.5 450.5 174 60"><path fill="#A15A28" d="M-149.255 480.191c-.585 0-1.066.184-1.424.562-.357.379-.572.925-.632 1.646h3.977c-.009-.731-.18-1.278-.515-1.655-.348-.371-.81-.555-1.406-.555v.002zm64.882.114c-.793 0-1.356.258-1.705.779-.351.521-.527 1.261-.527 2.238 0 2.023.748 3.034 2.247 3.034 1.481 0 2.219-1.011 2.219-3.034 0-2.015-.75-3.015-2.237-3.015l.003-.002zm-35.231 0c-.744 0-1.281.217-1.626.65-.34.431-.511 1.127-.511 2.08v.274c0 1.065.166 1.84.507 2.317.334.478.886.718 1.661.718.643 0 1.146-.267 1.492-.792.351-.529.523-1.289.523-2.262 0-.988-.171-1.735-.52-2.235-.348-.5-.856-.751-1.526-.75zm9.75 0c-.787 0-1.345.258-1.698.779-.358.521-.533 1.261-.533 2.238 0 2.023.753 3.034 2.249 3.034 1.477 0 2.223-1.011 2.223-3.034 0-2.015-.75-3.015-2.241-3.015v-.002zm45.207-4.858c-.116.331-.301.73-.542 1.209-.241.467-.465.882-.693 1.224h-1.075v-.191c.255-.829.426-1.64.522-2.405h1.789l-.001.163zm-.748 12.11c-.2.091-.466.167-.793.227a5.41 5.41 0 0 1-1.014.092c-1.764 0-2.649-.933-2.649-2.796v-4.729h-1.19v-.822l1.284-.681.628-1.86h1.152v1.953h2.502v1.41h-2.502v4.699c0 .448.118.786.336.996.229.215.52.315.885.315.456 0 .913-.066 1.365-.211v1.404l-.004.003zm-10.714-1.983c.378.502.933.742 1.665.742.831 0 1.62-.211 2.352-.619v1.63c-.327.198-.689.33-1.065.421-.375.086-.831.124-1.373.124-1.328 0-2.332-.388-3.026-1.161-.691-.782-1.042-1.892-1.042-3.342 0-1.478.369-2.608 1.084-3.4.722-.799 1.773-1.193 3.134-1.193.924 0 1.758.171 2.497.523l-.559 1.495c-.793-.309-1.448-.459-1.951-.459-1.523 0-2.274 1.01-2.274 3.025-.003.98.176 1.716.559 2.21l-.001.004zm-5.218 1.091c-.731.811-1.754 1.209-3.066 1.209-.821 0-1.549-.184-2.181-.559a3.584 3.584 0 0 1-1.448-1.592c-.342-.697-.511-1.503-.511-2.414 0-1.426.364-2.536 1.095-3.33.731-.804 1.764-1.203 3.09-1.203 1.27 0 2.271.407 3.015 1.23.737.812 1.115 1.916 1.115 3.312 0 1.428-.371 2.541-1.111 3.351l.002-.004zm-9.288 1.052h-1.865v-5.42c0-.671-.123-1.163-.378-1.503-.263-.327-.652-.496-1.2-.496-.724 0-1.251.229-1.591.68-.333.452-.5 1.153-.5 2.08v4.653h-1.875v-5.418c0-.673-.123-1.165-.388-1.507-.253-.327-.645-.494-1.19-.494-.719 0-1.244.237-1.582.706-.333.468-.509 1.251-.509 2.339v4.374h-1.855v-8.776h1.462l.257 1.153h.094c.25-.422.597-.74 1.057-.974.47-.225.985-.346 1.526-.346 1.345 0 2.244.464 2.688 1.382h.125a2.692 2.692 0 0 1 1.099-1.015c.467-.244 1.003-.363 1.613-.363 1.051 0 1.812.267 2.29.796.481.538.716 1.341.716 2.425v5.724h.006zm-16.186-1.052c-.731.811-1.749 1.209-3.061 1.209-.823 0-1.547-.184-2.179-.559-.632-.365-1.115-.894-1.458-1.592-.331-.697-.503-1.503-.503-2.414 0-1.426.366-2.536 1.099-3.33.724-.804 1.758-1.203 3.086-1.203 1.268 0 2.274.407 3.013 1.23.739.812 1.114 1.916 1.114 3.312-.004 1.428-.371 2.541-1.11 3.351l-.001-.004zm-9.777 0c-.628.811-1.484 1.209-2.583 1.209-1.11 0-1.973-.404-2.587-1.201h-.11c.077.75.11 1.196.11 1.354v3.593h-1.866v-12.68h1.515c.039.162.13.555.259 1.174h.092c.583-.892 1.45-1.343 2.616-1.343 1.101 0 1.953.401 2.561 1.194.617.792.918 1.905.918 3.342.005 1.435-.305 2.548-.925 3.358zm29.141-8.994c1.003-1.051 1.683-1.856 2.017-2.412h2.065c.327.582 1.005 1.383 2.028 2.412v.192h-1.264a9.289 9.289 0 0 1-1.81-1.428 10.069 10.069 0 0 1-1.786 1.428h-1.251l.001-.192zm-42.997 10.046h-1.865v-5.42c0-.671-.13-1.163-.388-1.503-.258-.327-.653-.496-1.19-.496-.732 0-1.255.229-1.596.68-.335.452-.499 1.153-.499 2.08v4.653h-1.879v-5.418c0-.673-.129-1.165-.374-1.507-.258-.327-.653-.494-1.191-.494-.719 0-1.255.237-1.586.706-.34.468-.508 1.251-.508 2.339v4.374h-1.863v-8.776h1.458l.262 1.153h.09c.242-.422.603-.74 1.067-.974.46-.225.966-.346 1.526-.346 1.345 0 2.24.464 2.682 1.382h.124a2.798 2.798 0 0 1 1.097-1.015c.472-.244 1.014-.363 1.626-.363 1.054 0 1.81.267 2.288.796.478.538.718 1.341.718 2.425l.001 5.724zm-15.063-3.971h-5.852c.025.853.257 1.509.691 1.96.431.462 1.044.688 1.833.688.525 0 1.003-.05 1.445-.142.452-.1.93-.261 1.445-.49v1.519c-.456.22-.92.371-1.381.461a8.33 8.33 0 0 1-1.604.134c-1.364 0-2.429-.395-3.195-1.192-.772-.797-1.16-1.896-1.16-3.292 0-1.433.357-2.562 1.074-3.377.709-.82 1.689-1.235 2.94-1.235 1.161 0 2.077.357 2.752 1.053.671.706 1.007 1.683 1.007 2.906v1.011l.005-.004zm-13.328 1.828c.375.502.93.742 1.659.742.826 0 1.617-.211 2.361-.619v1.63a3.85 3.85 0 0 1-1.071.421c-.381.086-.839.124-1.375.124-1.334 0-2.334-.388-3.031-1.161-.689-.782-1.032-1.892-1.032-3.342 0-1.478.357-2.608 1.079-3.4.727-.799 1.772-1.193 3.134-1.193.93 0 1.759.171 2.499.523l-.563 1.495c-.786-.309-1.435-.459-1.952-.459-1.522 0-2.279 1.01-2.279 3.025.004.98.19 1.716.572 2.21l-.001.004zm-4.564 2.143h-1.879v-5.4c0-.674-.134-1.179-.409-1.516-.275-.326-.706-.503-1.294-.503-.786 0-1.358.237-1.725.705-.37.469-.555 1.251-.555 2.357v4.355h-1.867v-12.354h1.867v3.134c0 .51-.03 1.046-.094 1.623h.12a2.51 2.51 0 0 1 1.058-.985c.455-.234.983-.355 1.585-.355 2.127 0 3.195 1.072 3.195 3.221v5.72l-.002-.002zm-15.502-2.556c.602.722 1.471 1.097 2.606 1.097.494 0 .976-.048 1.431-.149.461-.092.942-.226 1.441-.375v1.631c-.907.338-1.944.511-3.101.511-1.696 0-2.997-.511-3.909-1.545-.913-1.026-1.372-2.493-1.372-4.415 0-1.208.228-2.258.666-3.163a4.655 4.655 0 0 1 1.917-2.074c.83-.484 1.81-.722 2.94-.722 1.187 0 2.278.244 3.291.738l-.684 1.58a8.733 8.733 0 0 0-1.247-.479 4.313 4.313 0 0 0-1.375-.219c-1.088 0-1.944.386-2.568 1.159-.623.778-.942 1.841-.942 3.199 0 1.419.305 2.495.903 3.226h.003zm139.353-14.023c-4.464-10.766-15.618-18.2-23.4-18.929-5.174-.483-9.111-.709-12.385-.709-5.423 0-8.499.642-12.066 1.398-4.869 1.014-10.928 2.273-26.251 2.842-.667.021-1.376.028-2.177.028-4.016 0-9.107-.3-15.01-.651-7.555-.452-16.124-.966-24.789-.966-15.756 0-27.585 1.777-36.164 5.442-11.76 5.022-17.72 13.667-17.72 25.667 0 8.582 4.626 14.812 13.747 18.521 7.208 2.933 17.418 4.359 31.214 4.359 7.401 0 15.759-.387 26.291-1.224 4.016-.314 8.218-.469 12.84-.469 9.983 0 19.862.722 29.404 1.428 8.377.615 16.294 1.205 23.336 1.205 9.513 0 21.195-.93 27.179-8.157 10.079-12.203 8.796-22.925 5.956-29.784l-.005-.001z"/></svg>