<svg xmlns:svg="http://www.w3.org/2000/svg" xmlns="http://www.w3.org/2000/svg" viewBox="0 0 40 40" height="40" width="40" xml:space="preserve" version="1.1"><defs><clipPath clipPathUnits="userSpaceOnUse"><path d="M0 32 32 32 32 0 0 0 0 32Z"/></clipPath></defs><g transform="matrix(1.25,0,0,-1.25,0,40)"><g clip-path="url(#clipPath16)"><g transform="translate(17.0615,2.3901)"><path d="m0 0c4.5 0.7 12 1.8 12.9 11 0.4 4.7-0.9 9-3.8 12.2-2.6 2.9-6.2 4.4-10 4.4-0.1 0-0.3 0-0.4 0C-8.6 27.4-13.3 23.8-14.6 17.5-15.8 11.9-14.9 6.8-12.1 3.4-9.6 0.3-5.8-1-1.3-0.2-0.9-0.1-0.5-0.1 0 0" fill="#f5c135"/></g><g transform="translate(16.1758,30.0327)"><path d="m0 0c-0.1 0-0.3 0-0.4 0-7.3-0.2-12-3.8-13.3-10.1-1.2-5.6-0.3-10.8 2.5-14.1 2.5-3.1 6.4-4.4 10.9-3.6 0.4 0.1 0.8 0.1 1.3 0.2 4.5 0.7 12 1.8 12.9 11 0.4 4.7-0.9 9-3.8 12.2C7.4-1.6 3.8 0 0 0m-2.9-29c-3.7 0-6.9 1.4-9.1 4.2-2.9 3.6-3.9 9-2.7 14.9 1.4 6.8 6.5 10.7 14.2 10.9 4.2 0.1 8.3-1.6 11.1-4.8 3.1-3.4 4.5-8 4-12.9C13.8-26.7 5.5-27.9 1-28.6c-0.5-0.1-0.9-0.1-1.2-0.2-0.9-0.2-1.8-0.2-2.7-0.2" fill="#9c2d33"/></g></g></g></svg>