<svg xmlns:svg="http://www.w3.org/2000/svg" xmlns="http://www.w3.org/2000/svg" viewBox="0 0 162.5 162.5" height="162.5" width="162.5" xml:space="preserve" version="1.1"><defs><clipPath clipPathUnits="userSpaceOnUse"><path d="M0 130 130 130 130 0 0 0 0 130Z"/></clipPath></defs><g transform="matrix(1.25,0,0,-1.25,0,162.5)"><g clip-path="url(#clipPath16)"><g transform="translate(96.1475,49.4399)"><path d="m0 0c-0.3-0.6-8.3-16.1-31.1-16.1-22.8 0-30.8 15.5-31.1 16.1-1.2 2.5-0.2 5.5 2.2 6.7 2.5 1.2 5.4 0.2 6.7-2.2 0.3-0.6 5.9-10.6 22.2-10.6 16.4 0 22 10.2 22.2 10.6 1.3 2.4 4.3 3.4 6.7 2.1C0.2 5.4 1.2 2.4 0 0m-47.8 40.6c5.5 0 10-5.2 10-11.6 0-6.4-4.5-11.7-10-11.7-5.5 0-10 5.2-10 11.7 0 6.4 4.5 11.6 10 11.6m33.3 0c5.5 0 10-5.2 10-11.6 0-6.4-4.5-11.7-10-11.7-5.5 0-10 5.2-10 11.7 0 6.4 4.5 11.6 10 11.6m-17.8 39c-30.2-0.9-54.2-15.3-60.6-46.3-10.3-49.6 15.7-88.5 61.2-80.6 17.7 3.1 59.7 4.4 64.2 51.2C36.7 47.8 5.3 80.7-32.3 79.5" fill="#68a9a0"/></g></g></g></svg>