<svg xmlns:svg="http://www.w3.org/2000/svg" xmlns="http://www.w3.org/2000/svg" viewBox="0 0 162.5 162.5" height="162.5" width="162.5" xml:space="preserve" version="1.1"><defs><clipPath clipPathUnits="userSpaceOnUse"><path d="M0 130 130 130 130 0 0 0 0 130Z"/></clipPath></defs><g transform="matrix(1.25,0,0,-1.25,0,162.5)"><g clip-path="url(#clipPath16)"><g transform="translate(96.5566,60.2573)"><path d="m0 0-51.8-22.8 0 10.4 38.8 16.1-38.8 18.2 0 10.3L0 6.4 0 0Zm-32.7 68.7c-30.2-0.9-54.2-15.3-60.6-46.3-10.3-49.6 15.7-88.5 61.2-80.6 17.7 3.1 59.7 4.4 64.2 51.2 4.2 44-27.1 76.9-64.8 75.7" fill="#63a9a0"/></g></g></g></svg>