<svg xmlns:svg="http://www.w3.org/2000/svg" xmlns="http://www.w3.org/2000/svg" viewBox="0 0 2500 390" height="390" width="2500" xml:space="preserve" version="1.1"><style>.s0{fill:#d7e0b5;}.s1{fill:#f8c114;}</style><defs><clipPath clipPathUnits="userSpaceOnUse"><path d="M0 312 2000 312 2000 0 0 0 0 312Z"/></clipPath></defs><g transform="matrix(1.25,0,0,-1.25,0,390)"><g clip-path="url(#clipPath16)"><g transform="translate(1289.0977,312)"><path d="m0 0-4.1 0c-2.4-2.6-6.4-3.7-12-1.6-0.2 0.5-0.3 1-0.4 1.6l-9.6 0c3.2-4.1 6.5-8.1 9-12.9C-10.3-10.9-3.4-6.1 0 0" fill="#d7e0b5"/></g><g transform="translate(136.4326,294.9082)"><path d="M0 0C10.1 1.6 15.3-18.4 4.1-19.7-0.8-17.2-2.3-6.4 0 0m2.1-28c18.5 4.1 6.4 19.6 8.3 31.1 0.7 4.5 5.1 9.1 8.1 14l-2.8 0C13.5 10.1 7.9 4.4 1 7.3 0.7 10.1 0.8 13.6 1.3 17.1l-4.6 0c-1.9-4.8-4.1-9.2-7-12.9-1.3 4-2.2 8.4-2.6 12.9l-4.2 0c1.2-18.8 7.5-36.4 19.2-45.1" fill="#d7e0b5"/></g><g transform="translate(1633.2012,312)"><path d="m0 0-10.8 0c-0.8 0-1.6 0-2.3 0L-25.3 0C-18.7-4.4-9.3-5.4 0 0" fill="#d7e0b5"/></g><g transform="translate(1675.0273,303.1963)"><path d="m0 0c-12.1-11.6-31.5-4-34 8.8l-5.4 0C-38.2-9.7-6.5-13 0 0" fill="#d7e0b5"/></g><g transform="translate(1688.498,293.8716)"><path d="m0 0c14.2-10.5 29.1 5.9 40.4 11.4 9.8-19 34.9-12.2 41.5 6.7l-3.2 0C72.7 1.3 47-2 43.6 18.1l-6.3 0C32.8 3.9 15.9-2.9 2.1 3.1c-2.1 3.1-3.5 9.3-3.3 15l-7.4 0C-9.3 16.3-10.1 14.6-10.4 12.4-2.8 10.5-4.5 3.3 0 0" fill="#d7e0b5"/></g><g transform="translate(351.9395,299.0527)"><path d="m0 0c1.5-19.8 10.3-40.1 0-58 7.9 0.4 6.2 10.4 10.4 14.5 1.8 17.6-2.2 24.6-4.1 35.2-1.4 7.8-1.7 14.9-1.1 21.2l-4.6 0C-0.1 8.7-0.3 4.4 0 0" fill="#d7e0b5"/></g><g transform="translate(427.5742,243.1035)"><path d="m0 0c-22.9-3.1-54.5 13.6-58-13.5 9.5 17.8 32.1 7.5 50.8 8.3 31.6 1.4 61.2 27.9 58 62.2-0.4 4.1-1.2 8.1-2.4 11.9l-3.1 0C46.9 63.6 47.7 57.9 47.7 51.8 47.4 23.3 24.4 3.3 0 0" fill="#d7e0b5"/></g><g transform="translate(894.8525,292.8354)"><path d="m0 0c0.1 7-0.8 13.3-2.5 19.2l-3.6 0c1-3.8 1.7-7.8 1.9-11.9-5.3 3.1-9.8 7.2-13.5 11.9l-4.9 0c1.4-2.5 3.1-4.7 5-6.7-4.3-0.4-9.1 2.3-13.3 6.7l-3.1 0C-26 9.1-14 2.6 0 0" fill="#d7e0b5"/></g><g transform="translate(388.2031,266.9331)"><path d="m0 0c31.2-0.8 46 19.1 47.2 45.1l-3.3 0C45.6 22.4 28.8 3.7 4.1 3.1c-6.9 15.5-3.6 30.8 5 42l-2.8 0C-2.8 33.1-7.3 18 0 0" fill="#d7e0b5"/></g><g transform="translate(709.3906,278.3301)"><path d="m0 0c5.5-22.7-2.5-47.3-11.4-62.2-9.2 6.4-19.9 11.1-19.7 26.9 5.1 5.8 15.7 7.4 25.9 5.2 0.5 7.4-9.2 4.7-12.4 8.3C-25-8.1-12.6-0.1 0 0m-25.9-13.5c1.9-3.3 4.8-5.6 4.1-11.4-17.3-4.7-11.4-22.9-4.1-34.2-17.9 0.5-29.9-22.5-14.5-34.2-13.8 18.4 8.3 38.6 24.9 24.9-3.2-12-14.8-15.6-20.7-24.9 15.9 1.7 26.8 8.5 33.2 19.7-0.8-0.2-1-1-2.1-1-2.5 0.3-5-4.5-7.3-1 18.5 22.8 35.7 94.7-11.4 96.4 13-6.2 8.3-24.7-4.1-29-29-9.9-40 16.2-36.2 42l-4.8 0c-4-25.1 7.4-50.6 43.1-47.1" fill="#d7e0b5"/></g><g transform="translate(1863.5977,248.2837)"><path d="M0 0C3.2 3.7 5.6 8.2 7.3 13.5 7 14.3 7.2 15.5 6.2 15.5 5.3 14 4.7 12.3 2.1 12.4 0.6 33.7-6.1 49.7-14.9 63.7l-2.4 0C-6.3 48.9-0.7 28.1-3.1 7.3-32.8 6.1-51.4 37-45.3 63.7l-3.9 0c1.1-12.2 1.3-28.2 5.7-38.8-11.9 4.3-13.6 25.9-8.6 38.9l-3.2 0C-56.7 60.2-57.6 56.5-58 52.8-62 15.4-22.6 10.4 0 0" fill="#d7e0b5"/></g><g transform="translate(321.8936,280.4023)"><path d="M0 0C-5.3-17.9-39.9-33-57-16.6-35.4-14.3-16.1-4.4 0 0m-74.6-7.3c19.1-39 99.4-14.7 80.8 38.3-0.1 0.2-0.1 0.3-0.2 0.5l-81.2 0C-80.1 19.5-80.6 5-74.6-7.3" fill="#d7e0b5"/></g><g transform="translate(1426.3672,309.4131)"><path d="m0 0c0.2 0.8 0.3 1.7 0.4 2.6l-20.1 0C-15.4-6.9-3.3-15.1 0 0" fill="#d7e0b5"/></g><g transform="translate(27.6426,294.9082)"><path d="m0 0c5.4 3.8 9 9.4 10.5 17.1l-2.1 0C7.4 12.4 5.3 8.7 1 7.3c-2.1 2-2.3 5.7-2.2 9.8l-1.8 0c-0.1-1.5-0.4-2.8-1.2-3.6-0.4-1.3-1.3-2.1-3.1-2.1-1.1 1.5-2 3.5-2.8 5.7l-2.6 0C-10.3 9.3-6 2.8 0 0" fill="#d7e0b5"/></g><g transform="translate(361.2646,239.9946)"><path d="m0 0c6.7 4.3 11 4.7 15.5 11.4 0.2 1.2-0.2 1.8-1 2.1-1.6 0.2-3.8-0.4-4.1 1 8.4 15.6-0.3 40.4 3.7 57.5l-2.9 0C5.1 50.1 15.4 16.3 0 0" fill="#d7e0b5"/></g><g transform="translate(396.4912,283.5112)"><path d="m0 0c12.5 3.1 24.1 14.6 24.1 28.5l-4.3 0C20.5 18.9 15.2 7.1 3.1 7.3 3.6 18.7 8.4 25.8 17.6 28.5l-5.6 0C4.1 21.8-2.1 13 0 0" fill="#d7e0b5"/></g><g transform="translate(1466.7734,309.4131)"><path d="m0 0c0.8-0.2 1.2-0.9 1-2.1 1.1 1.7 2.4 3.2 3.8 4.7l-2.5 0C1.5 1.8 0.7 0.9 0 0" fill="#d7e0b5"/></g><g transform="translate(1527.9023,227.5625)"><path d="m0 0c2.9 0.1 3.6 2 2.1-1 19 13.6 35.9 34.4 31.1 66.3-1.2 7.7-4.3 14.1-8.8 19.2l-4.2 0C39.9 60.4 27.7 10.8 0 0" fill="#d7e0b5"/></g><g transform="translate(1869.8135,263.8247)"><path d="m0 0c1 0 0.8-1.3 1-2.1 9.6 12.9 8.5 34.8 1.5 50.2l-3.2 0C5.9 34.2 7.2 14.4 0 0" fill="#d7e0b5"/></g><g transform="translate(1949.5928,277.2944)"><path d="M0 0C4.2-16.5 24.4-10 24.9 5.2 39.7-5 17.4-31.7 3.1-19.7 1.6-14.1-2.7-6.4 0 0M16.6-7.3C12.6-7.5 8.9-7.3 6.2-6.2 4.7-2.2 3 1.6 3.1 7.3 13.2 12.2 25.5 0.8 16.6-7.3m-33.2-14.5c-14-0.1-21.6 6.1-28 13.5-0.6 10.6 2.1 17.9 10.4 19.7-4.1-19.6 13.3-21.1 25.9-20.7-0.6-6.3-4.6-9.2-8.3-12.4m-7.3 34.2C-20.6 7.1-15.1 3.9-10.4 0-15.1-18.8-45.5 7.7-23.8 12.4m16.6 7.3c-23.5 2.8-44.5-7.5-41.4-25.9 2.3-13.7 27.4-24.5 41.4-13.5 1.5-4 1.6-9.5 3.1-13.5 10.8-12.6 41.8-8.7 43.5 6.2-6.7-12.3-43-17.3-40.4 4.1 22.7-9.7 33.9 10.1 36.3 30 2.5 0.4 2.3-1.9 5.2-1-1.3 4.4-0.4 5.6 0 10.4-2.7 0-6.1-0.6-6.2 2.1 1.4 6.4 0.6 11.7-1.7 16.1l-4.1 0c3.8-4.8 4.8-11.1-3.5-12.9-1.7 1.7-0.8 6.1-1 9.3-1.1 4.4-7.3 2-9.3 3.1 0 0.2 0 0.3 0 0.5l-13.4 0c-1.4-3.4-2.5-6.7-3.2-9.8-5.2 2.3-8.9 6.1-12.7 9.8l-4.1 0c5.3-3.6 9.6-8.1 11.6-15" fill="#d7e0b5"/></g><g transform="translate(518.75,308.377)"><path d="M0 0C-3.1 0-3.5 2.7-6.2 3.1-7.4 3.3-8.1 2.9-8.3 2.1-4.7-1.3-3-6.5 3.1-7.3 5.5-4 7-0.3 7.9 3.6l-5 0C2.2 2.3 1.2 1.1 0 0" fill="#d7e0b5"/></g><g transform="translate(1589.0342,289.7275)"><path d="M0 0C26.6-8.6 37.5-38.4 37.3-70.5 14.9-57.6-1.1-32.9 0 0m41.4-54.9c-6.4 12.2-9.2 28.1-15.5 40.4 13.1-4.9 18.9-22.5 15.5-40.4M7.3-64.2c-7.2 10.6-16.7 29.4-10.4 46.6 6.5-23.8 20.4-40.3 35.2-55.9-0.5-2.4-4.6-2.8-2.1-5.2 5.4 0.6 9.9-4.1 14.5-1 9.2 45.2-10.7 79.6-48.7 87-9.7-21.7-6.4-61.6 11.4-71.5" fill="#d7e0b5"/></g><g transform="translate(930.0791,264.8613)"><path d="m0 0c-2.8 2.4-10.4 0-11.4 4.1 19.8 7.8 53.6 17.1 75.6 12.4 4 5.2 12.7 1.6 16.6 5.2-5.4 4-13.4 5.2-21.8 6.2-2.1-0.6-6.8 1.3-7.3-1 1.5-0.6 2.5-1.6 3.1-3.1C34.2 19.6 10.7 12.8-9.3 11.4c0.7 3.8 3.8 5.2 6.2 7.3-0.2 0.8-0.9 1.2-2.1 1-6.2-5.6-16.1-7.4-17.6-17.6 3.9-2 9.3-2.5 14.5-3.1 2.5 0.6 7.5-1.3 8.3 1" fill="#d7e0b5"/></g><g transform="translate(1219.1465,271.0776)"><path d="M0 0C2.3-17 5.6-33.1 13.5-44.6-0.7-39.7-3-18.7 0 0M8.3 7.3C16.7-8.5 20.9-28.5 25.9-47.7 7.3-42.2-0.9-13.4 8.3 7.3M35.2-51.8C23.7-37 16.7-12.4 15.5 9.3 29.7-2.2 39.5-28.7 35.2-51.8m5.2 2.1c2.1 30.1-11.6 44.3-19.7 64.2 17.2-8.7 29.6-42 19.7-64.2m-4.1-17.6c23.1 24.4 8.3 88.5-28 89.1-28.7-32.5-2.7-77.3 28-89.1" fill="#d7e0b5"/></g><g transform="translate(46.293,266.9331)"><path d="M0 0C1.3-0.1 2.5-0.3 2.1-2.1 13.4 10.8 26.4 22 38.3 34.2 38.3 35.5 37 35.6 37.3 37.3 26.2 23.5 12.8 12.1 0 0" fill="#d7e0b5"/></g><g transform="translate(1190.1367,280.4023)"><path d="M0 0C2.3-30.8-13.7-60.8-40.4-69.4-50.7-46.1-29.8 2.3 0 0m3.1 2.1c-5.4 4.6-16 4.1-25.9 4.1-12.7-19.7-43.8-55.1-19.7-79.8 29.9 9.3 47.5 41.4 45.6 75.6" fill="#d7e0b5"/></g><g transform="translate(1333.1182,258.6445)"><path d="M0 0C-11.8-2.6-12.6 12.5-6.2 16.6-3 16.4 1.4 17.3 3.1 15.5 1.2 9.3-1.8 8.2 0 0M-23.8 14.5C-19.9 25.4 6.2 33.6 13.5 19.7 7.1 17.7-4.6 23.8-11.4 18.7-22 3.4-6.4-10.3 10.4-2.1 2.5-18.5-28.8-7.1-23.8 14.5m44.6-49.7c5.3 0.2 4.5 6.6 9.3 7.3C45.8-53.8 5.1-55.9 0-37.3c-3 11.1 6.6 24.7 14.5 25.9-2.5-10.2-6-21.9 6.2-23.8m7.3 29c-0.1-11 1.2-23.3-8.3-24.9-9.1 5.4-2 25.6 8.3 24.9M37.3-36.3c18.3-37.5-61.5-31.1-50.8 8.3 3.6 3.7 4.9 9.6 12.4 9.3C-20.6-45.7 34.3-71.1 37.3-36.3M46.6 5.2c4.9 4.7 18.6 0.8 26.9 2.1 12.6-6.4 11.3-38.9-3.1-42.5-10.8-2.7-22.4 6.5-26.9 15.5 29.2-17.5 37.5 31.5 3.1 24.9m10.4-6.2c17 2 10.4-25.6-4.1-17.6 0.7 7.3 8.1 8.4 4.1 17.6M-8.3-15.5c-47.1-36.7 71.2-82 49.7-11.4 10.7-2.7 14.8-14.6 29-11.4 12.1 2.7 20.3 30.4 11.4 43.5-9.3 13.6-33 4.9-48.7 6.2 5.4 14.3 14.5 24.8 24.9 34.2C41.7 40.9 39.7 21.8 26.9 13.5 17.9 20.5 10.9 33.2-5.2 31.1-15.5 29.7-29.5 18.6-30 10.4-30.9-4.1-15.6-6.9-8.3-15.5" fill="#d7e0b5"/></g><g transform="translate(848.2275,231.7061)"><path d="M0 0C23.3 4.6 13.4-23.8-2.1-16.6 6.1-12.4 2.9-7.6 0 0M-13.5-22.8C14.6-28.2 33.6 6.3-4.1 5.2 1.9 28.1 38.3 19.4 41.4 2.1 46.6-26.9 8.8-36.7-13.5-22.8M-34.2-6.2c-18.9 16.9 16.9 53.7 16.6 16.6-14.2 3.1-13.7-8.4-16.6-16.6m8.3-6.2c-6.9 1.1-4.7 16.9 0 18.7 11.6 1.3 7.2-18 0-18.6M42.5 10.4C37.1 19.2 24.9 22.9 10.4 22.8 8.9 22.8 8.1 23.3 7.3 23.8 6.6 26.3 8.6 31.3 6.2 32.1-1.1 23.2-2.4 8.3-14.5 4.1c6.4 36.1-32 29.8-29 1-12.2 7-8.1 31.6-2.1 42.5-0.2 0.8 0 2-1 2.1-8.6-5.6-6-22.3-11.4-31.1-18.3 8-32.8-17.8-19.7-28-12.3 29.8 28 31.9 29 6.2-4.7-1.6-10.5-2-13.5-5.2-1.5-4.3 3-8 0-10.4-5.4-0.5-6.4 3.2-10.4 4.1 7.4-12.3 22.7-17.5 43.5-13.5 10.8-8.7 12-32.1 26.9-33.2-6.8 10.1-19.5 19.9-17.6 35.2 29.7-19.5 80.9 5.8 62.2 36.3" fill="#d7e0b5"/></g><g transform="translate(84.6279,309.4131)"><path d="M0 0C1.9-1.8-0.5-3-1-5.2-1.3-6.9-0.1-7 0-8.3l3.1 0c0.6-22.7-14.8-38.3-39.4-39.4l0 3.1c0.4 1.8-0.8 2-2.1 2.1l-4.1 0C-34.5-22.1-23.9-4.4 0 0m-46.6-51.8c32.9-2.2 59 21.4 54.1 54.4l-8.9 0c-26.8-6.6-41.7-28.4-45.2-54.4" fill="#d7e0b5"/></g><g transform="translate(455.5488,291.7998)"><path d="m0 0c-9.6-29.2-48.3-31-79.8-38.3 0.8-0.2 1.2-0.9 1-2.1 43.3-1.3 90.9 21.9 80.1 60.6l-2.1 0C1.1 13.3 2.2 6.6 0 0" fill="#d7e0b5"/></g><g transform="translate(180.9844,256.5723)"><path d="M0 0C-2.7-14.6-10.9-23.6-11.4-40.4-15.8-26.9-9.6-6.4 0 0m12.4-7.3c-1.7-16.6-2.1-34.6-11.4-43.5 2.8 15.5 2.2 34.4 11.4 43.5m16.6-47.7c-6.2-6.3-13.7-16.7-24.9-14.5-1.6 6.4 7.6 7.6 5.2 11.4 0.5-1.7-5.6-1.7-5.2 0 7.6 16.6 10.3 38 13.5 59.1 16.5-16.7 4-46.4-7.3-59.1 20.1 10.1 19.8 47 11.4 66.3 19.8-6.3 18.5-44.4 11.4-60.1 18.3 23.3 4.9 69.6-25.9 69.4-19.4-18.8-35.6-68.1-13.5-95.3 14.9 3.8 32.8 10 35.2 22.8" fill="#d7e0b5"/></g><g transform="translate(1724.7617,174.7207)"><path d="m0 0c9.3 23.5-2 58.5-14.5 73.6-0.8-0.2-1-1-2.1-1C-4.5 55.4 3.3 29.1 0 0" fill="#d7e0b5"/></g><g transform="translate(130.2158,235.8506)"><path d="M0 0C-4.5-16.4-41.4-22.2-54.9-10.4-37.3-6.2-19.2-2.6 0 0M-7.3 6.2C-19.3-1.1-36.9-2.8-53.9-5.2-48.6 8.2-22.8 9.6-7.3 6.2m13.5 1c-26 8.3-63.3 3.3-71.5-18.6 20.5-14.4 73.1-8.1 71.5 18.6" fill="#d7e0b5"/></g><g transform="translate(1673.9922,210.9844)"><path d="m0 0c-0.5 21.2 3 38.4 14.5 47.7 20.2-18.3 43.4-79.2 16.6-105.7-4.3-1.2-4 2.2-7.3 2.1 2.4-3.8 3-9.4 7.3-11.4 9.3 4 19.3 17.8 17.6 25.9-0.4-2.4-0.7-4.9-4.1-4.1 7.4 34.3-9 61-17.6 86 4.2 0.4 5-2.6 7.3-4.1 1 0 1.2 0.8 2.1 1C31.4 45.6 22.7 50 13.5 53.9 3.1 42.5-2.4 26.2-2.1 4.1 0.7 4.9-2.8-0.7 0 0" fill="#d7e0b5"/></g><g transform="translate(306.3496,168.5044)"><path d="M0 0C20.5 16.9 17 36.1 4 49.7 15.4 37.3 11.2 10.8 0 0" fill="#d7e0b5"/></g><g transform="translate(247.2939,217.2012)"><path d="M0 0C-5.1 16.5 38.5 21.3 46.6 9.3 47.3-5.4 3.8-12.1 0 0m-12.4-6.2c1 0 1.2-0.8 2.1-1 2.1 1 1.6 4.6 5.2 4.1C13-17.2 42.7-4.6 54.9 6.2 58.1 5.1 60.7 3.4 62.8 1.2 42.4 22.1-0.6 29.5-12.4-6.2" fill="#d7e0b5"/></g><g transform="translate(629.6123,163.3242)"><path d="M0 0C6.3 12.7 8.3 29.7 12.4 44.6 21.3 31.3 18.8 0.8 0 0M7.3 55.9C5.8 34.6 6.2 11.5-5.2 0-19.1 15.3-6.2 48.3 7.3 55.9m0 8.3C-7.2 49.3-21.5 18.5-9.3-7.3 27.2-9.5 27.2 47.2 7.3 64.2" fill="#d7e0b5"/></g><g transform="translate(737.3662,309.4131)"><path d="m0 0c5.7-44.1-11.4-82.2-33.2-105.7 1 0 1.2 0.8 2.1 1C-8.4-83.9 10.1-43.4 0 0" fill="#d7e0b5"/></g><g transform="translate(1123.8271,177.8296)"><path d="M0 0C-6.9 9.4-9 28.9-9.3 41.4 0.5 35.6 3 11.8 0 0m-32.1 23.8c-0.1 5.1 2.8 17.6 8.3 18.6C-7.1 45.8-7.6 5.3-6.2-7.3-20.3-10.8-31.8 9.7-32.1 23.8m23.8 22.8C-56.1 57.4-26.7-41.6 5.2-3.1 4 16.8 3.7 37.5-8.3 46.6" fill="#d7e0b5"/></g><g transform="translate(1468.8457,195.4429)"><path d="m0 0c-7.2 6.4-20.1 18.3-9.3 29 7.1 7 32.3 2.2 33.2-7.3C24.8 11.7 5.3 7.2 0 0m-35.2-13.5c-6.2 7.3-2.1 20.9 5.2 23.8 12.1 0.1 19.9-4.3 24.9-11.4-5-8.7-17.3-14.9-30-12.4M41.4 46.6C40 38.4 35.9 32.9 31.1 28-4.8 30.3 16.6 68.4 41.4 46.6M59.1 32.1C46.2 22.9 32.3 9.2 16.6 6.2c0.3 7 6.8 7.7 12.4 9.3 7.7 19.4 35.1 45.8 17.6 70.5-5.2-45.2-76.8-10.8-47.7 25.9 0.2 1.2-0.2 1.8-1 2.1C-25.6 88.5 1.3 58.3 31.1 57 22.1 57.5 10.9 55.5 7.3 47.7 6.9 43.9 8.1 38.5 6.2 36.3-13.2 39.5-14 24-19.7 13.5c-4.5-0.7-5.8 1.8-10.4 1-16.6-6-15-34.4 3.1-37.3 30.4 16.9 64.3 30.4 88.1 53.9 1.5 3 0.8 1.2-2.1 1" fill="#d7e0b5"/></g><g transform="translate(1936.123,171.6128)"><path d="m0 0c-4.4-3.3-5.7-4.4-9.3-5.2-51-10.7-44.1 62-1 62.2 12.6 0 22.3-7.2 30-10.4-8.5 7-19.2 13.2-33.2 12.4-41.3-2.4-48.7-77.2 4.1-66.3 3.5 0.7 5.9 2.7 10.4 6.2C0.4-1-0.2-0.9 0 0" fill="#d7e0b5"/></g><g transform="translate(968.4121,95.9785)"><path d="m0 0c1.1-3.3 2.8-6.2 4.1-9.3 9.5 8.5 23 13 34.2 19.7 0.2 1.3 1.6 2.1-1 2.1C26 9.4 17-1.9 6.2 0 1.9 0.8-1.3 6.8-5.2 9.3c-9.7 6.2-22.9 12.3-30 18.6-20.6 35.4 8.8 68.9 24.9 90.1 5.4-5.6-0.6-13.5-1-19.7 0.6-1.5-1.2-5.4 1-5.2C5.1 82.5 21.6 72.7 26.9 51.8 29.9 52 26.1 45.4 29 45.6 34.5 76.7-2.7 79.5-4.1 103.6 17.8 93.4 43.3 86.8 50.8 62.2c0.8 0.2 1.2 0.9 1 2.1-2.5 31.2-39.9 27.7-54.9 46.6-3.9 4.9-1.7 11.2-10.4 12.4C-22.5 96.6-52 81.9-46.6 45.6-42.9 20.3-16.5 14.7 0 0" fill="#d7e0b5"/></g><g transform="translate(964.2695,247.2476)"><path d="m0 0c1.8-20.7 17.1-21.6 32.1-26.9 25.5-9 48.2-27.5 57-54.9 19.8-61.9-33.8-95.9-73.6-112.9-50.6 12-105.9 32.8-96.4 98.4 6.4 44 51.5 49.7 58 91.2-15.1-39.8-57.9-49-62.2-96.4-3.4-37.9 25-73 53.9-85 9.8-4 21.5-1.3 35.2-7.3 5.9-2.6 6.3-8.9 14.5-10.4 8.8 20.2 33.1 20.8 49.7 35.2 35.3 30.6 35.4 91.3 1 124.3C49.3-25.2 12.7-24 0 0" fill="#d7e0b5"/></g><g transform="translate(359.1914,17.2358)"><path d="M0 0C0.5 18.6 12.4 34.5 17.6 51.8 48.9 55.8 92.8 24.6 68.4-3.1 54.6-18.8 15-7.5 0 0m-29 98.4c1.1 26.5 45.4 13.7 60.1 4.1C29.4 84.9 20.1 74.9 16.6 59.1-5.8 60.7-29.8 78.2-29 98.4m65.3 57c15.9-12.6 7.6-34.2-2.1-47.7-41.8-6.7-43.4 60.9 2.1 47.7m42.5 33.2c11.9-3.2 8-34.5 2.1-43.5-7.9-4.3-27-7-34.2 0-8.9 18.7 19.6 46.9 32.1 43.5m14.5-86c-10.1-16.7-38.6-0.3-51.8 4.1 0.3 12.8 6.4 19.8 11.4 28 25.7 12.6 54.5-8.7 40.4-32.1M81.9 46.6c-23-3.3-44.2 4.1-61.1 10.4 3.6 17.5 9.8 32.4 17.6 45.6 15.8-0.9 30.1-11.9 47.7-14.5 11.3-8.9 8.7-36.4-4.1-41.4M52.8-15.5c23.5 3.3 30.1 35.6 17.6 57 26.6-1 33.6 35.3 18.6 51.8 2.2 5.4 7.8 7.4 10.4 12.4 2.6 20.2-6.8 28.4-15.5 37.3 6.8 14.2 10.1 43.1-3.1 52.8C72.6 188.4 57.2 183.6 48.7 174.1 37.4 161.4 43.2 161.8 24.9 160.6 5.9 159.3-6.4 143.8-3.1 120.2-30.6 117.9-39.3 95.2-23.8 73.6-45.9 73.5-63.9 60.7-64.2 43.5-64.6 28.2-48.6 25.3-42.5 13.5-57.2 8.8-63.1-3.8-62.7-17.2l3.2 0c-0.7 13.9 5.9 26.2 25.3 24.5C-24.9 6.4-22.8 0.4-11.4 0-24.4 14.1-55.5 17.8-59.1 38.3-66.2 79.2-5 70.5 11.4 51.8 6.5 25-4.5 4.2-14.8-17.2l4.2 0c1.8 3.3 3.6 6.6 5.4 10 15.7 4 29.7-7.7 46.7-10l11.3 0c0 0.5 0 1.1 0 1.7" fill="#d7e0b5"/></g><g transform="translate(540.5078,75.2568)"><path d="M0 0C-6.4 4.5-8.7 17.9-7.3 26.9-0.4 23.8-1.1 13 5.2 9.3 5.2 19.7-4.8 29-6.2 41.4c0.2 4.8 5.7 0.4 8.3 1-1.5 5.7-9 8.9-6.2 15.5C26.8 58.3 23.7 5.7 0 0m-32.1 109.8c11.3-4.2 11.3-19.8 14.5-32.1-11.5 4-13.4 17.7-14.5 32.1m-11.4 6.2c6.5-1.8 6.8-9.8 7.3-17.6-7.3 0-12 12.3-7.3 17.6M-4.1 81.9c-14.6 16.1-22.9 44.1-55.9 38.3-2.1-34.2 22.4-41.9 42.5-53.9-14.6-23.7-8-56.7 5.2-76.7 42.1 3.5 41.6 69.9 10.4 85 22.8 19 47 36.5 53.9 71.5C39.4 118.5 25.4 92.4-4.1 81.9" fill="#d7e0b5"/></g><g transform="translate(1603.5391,145.7109)"><path d="M0 0C11.3 11.5 29.3 16.3 45.6 22.8 54.1-3.4 16.3-11.5 0 0M-14.5 6.2C-12 27.7 17.8 35.5 38.3 29 27.7 15.1 7.5 5.3-14.5 6.2M23.8 37.3C17.2 31.5 4.6 31.7-3.1 26.9-1.3 36.6 14.1 42.3 23.8 37.3M48.7-3.1c3.5 7 5.4 22.8 1 31.1-15.8 29.8-73.8 8.5-70.5-25.9 9.6-12.6 59-25.7 69.4-5.2" fill="#d7e0b5"/></g><g transform="translate(1324.8281,126.0244)"><path d="M0 0C-7.6 6.2-15.3 33.5-3.1 40.4 9.4 28.2 32 39.9 44.6 37.3 45.4 37.1 45.5 37.7 45.6 38.3 19.9 81-39.5 30.3-1-1-0.2-1.2-0.1-0.6 0 0" fill="#d7e0b5"/></g><g transform="translate(1205.6777,124.9888)"><path d="M0 0C-7.4 15-14.1 30.8-23.8 43.5-7.9 37.7-0.6 17.7 0 0m-3.1-35.2c-3.4 32.5-21.4 50.4-30 77.7 22-12.7 34.5-45.4 30-77.7m-6.2-7.3c-12.2 26.5-24.6 52.8-32.1 83.9 15-18.9 36-46.2 32.1-83.9m-34.2 70.5c10.4-19.3 19.4-40 24.9-64.2-16.1 13.6-19.4 40-24.9 64.2m-4.1-8.3c8.2-14.9 12.5-33.8 18.7-50.8-14.7 3.6-22.1 29-18.6 50.8m-5.2 21.8c-0.7-27.8 0.2-64.1 18.6-78.7-25.3 7.8-28.4 51.3-18.6 78.7m6.2 14.5C-80 16.6-53.9-52.5-6.2-57 18.3-18.4 2.9 56.7-46.6 55.9" fill="#d7e0b5"/></g><g transform="translate(1516.5068,104.2671)"><path d="M0 0C3.5 15.1 18.1 19.2 34.2 21.8 26.2 32 17.3 50.4 26.9 66.3 13.1 66.7-2.9 53.6-12.4 65.3c-2.3 2.8 0.7 11.1-4.1 11.4-1.5-8.9-7.2-13.5-10.4-20.7 6.3 4 17.2 6.1 21.8-1C-29 38-58.6 26.8-82.9 10.4-49.5 22.9-19.8 48.2 18.6 59.1 16.2 42.5 23.2 35.3 26.9 24.9 14.3 19.9 2.9 13.7-5.2 4.1-23.7 10.8-38 0.3-48.7-7.3c-15.1 18.8-40.9-13.9-49.7 6.2 1.8 4.4 9.1 3.3 10.4 8.3-19.4-11-46.9-7.6-57-28 14.5 9.2 40.8 22.2 57 6.2 8.8 11.7 31 13 41.4 2.1C-39.4 1.6-19.2 6.5 0 0" fill="#d7e0b5"/></g><g transform="translate(12.1006,193.3711)"><path d="m0 0c-7-39.5 2.3-92.8 48.7-73.6l0 1C-2.3-90.8 0.5-33.4 0 0" fill="#d7e0b5"/></g><g transform="translate(963.2334,165.396)"><path d="M0 0C10-2.3 11.6-17.8 9.3-29-2.8-28.3-3.9-10.4 0 0m9.3-37.3c10.2 14.9 0.8 42.7-12.4 47.7-6-19.9-2.4-40.4 12.4-47.7" fill="#d7e0b5"/></g><g transform="translate(49.4004,169.541)"><path d="M0 0C9.7 1 15.9-8.7 10.4-16.6 2.3-15.7 0.5-8.5 0 0m14.5-21.8c-0.8 6.3 1.4 9.7 1 15.5-5.5 5.9-12.5 10.3-21.8 12.4 5.9-10.4 5.4-27 20.7-28" fill="#d7e0b5"/></g><g transform="translate(971.5225,110.4834)"><path d="m0 0c16.1 2.9 24.9 13 25.9 31.1-2.9-0.2 0.9 6.4-2.1 6.2 3.3-50.7-49.4-28.3-47.7 9.3 0.6 12.5 7.8 21.9 10.4 32.1-2.2-0.2-0.5 3.7-1 5.2C-18 70.9-27.6 56.8-28 44.6-28.6 23.8-10.7 15.8 0 0" fill="#d7e0b5"/></g><g transform="translate(302.207,164.3604)"><path d="m0 0c-34.1-18.8-82.7 3.4-65.3 45.6-0.8 0.2-1 1-2.1 1C-90.2 3.4-29.8-28.1 0 0" fill="#d7e0b5"/></g><g transform="translate(829.5781,149.855)"><path d="m0 0c1.5 0.5-0.1 0.9 0 2.1-18.3 14.9-48.5 26.4-79.8 21.8l0-2.1C-44.5 23.2-20.5 13.3 0 0" fill="#d7e0b5"/></g><g transform="translate(1957.8809,118.772)"><path d="m0 0c9.3 25.6 0.9 64.3-20.7 74.6 4.2-6.5 2.4-15-1-21.8-0.2-0.9 0.4-1 1-1 1.6-0.2 3.8 0.4 4.1-1-7.9-12.1 1.5-20.8 5-32.4-0.2 1.2-0.2 2.7 0.2 4.4 1.3 3.8 6.9 3.5 9.3 6.2-19.1-3-20.3 19-7.3 23.8-0.6 2.5-6.4-0.2-7.3 2.1-0.4 4.6 1 7.3 3.1 9.3 16.4-10.2 19.9-53.8 7.3-71.5-4.4 1.1-6.6 4.5-6.2 10.4 1.8 2.7 6 3 9.3 4.1-1.9 3.8-6.3 5.2-7.9 9.3 0.5-2.3 0.8-4.6 0.7-7.2-8-6.8-0.6-14.5 1-22.8 5.1 0.4 8.2 2.8 10.4 6.2C1.4-4.8-3.5-2.2 0 0" fill="#d7e0b5"/></g><g transform="translate(132.2881,100.1226)"><path d="M0 0C0.9 23.7-12.9 38.2-15.5 54.9 8 54.2 15.8 15.6 0 0M-4.1-3.1C-23.7 0.8-33.8 33.1-20.7 50.8-9.1 39.5-1.6 19-4.1-3.1M-20.7 59.1C-37.2 34.6-26-3.5 0-9.3 16.7 12.4 13.5 59.4-20.7 59.1" fill="#d7e0b5"/></g><g transform="translate(1897.7871,135.3491)"><path d="M0 0C9.5-8.6 29.1 8.9 32.1-2.1 36.5-17.8 14.7-27.1 0-16.6-0.8-12.2-2.2-4.1 0 0M34.2-4.1C31 21.9-21.2 5.3 0-19.7c16.3-7.3 36.3-1.5 34.2 15.5" fill="#d7e0b5"/></g><g transform="translate(84.6279,194.4072)"><path d="m0 0-1 0c14-9.8 16.1-46.6 0-55.9 4.8 26.1 2.2 48.9-20.7 52.8-15.3 2.7-32.1-1.8-40.4 11.4 12.1-23.2 54.7-3.3 60.1-33.2 2.1-11.9-2.4-19.9-3.1-32.1-12.1-4.9-32.7-15.5-45.6-4.1-0.6-0.1-1.2-0.2-1-1 9.9-13.1 28.1-2.3 40.4-2.1-3.2-4.1-7.3-7.2-12.4-9.3l0-1c10.4 1.4 11.6 11.9 25.9 9.3C10-46.1 22.4-12.9 0 0" fill="#d7e0b5"/></g><g transform="translate(163.3691,115.6641)"><path d="M0 0C0 15.6 13.2 25 15.5 24.9 25.3 24.4 25.3 10.4 42.5 11.4 57.7 12.3 59.5 24.8 68.4 25.9 72.5 26.4 82.6 20.6 85 9.3 96.9-47.6 0-50.8 0 0m1-16.6c9-15.9 34.3-31.3 61.1-20.7 12.2 4.8 33.9 25.8 25.9 49.7-13.2 39.7-116.6 23-87-29" fill="#d7e0b5"/></g><g transform="translate(829.5781,151.9272)"><path d="m0 0c-0.1-1.2 1.5-1.6 0-2.1 16.1-13.4 29.1-40.1 20.7-68.4-0.2-0.9 0.4-1 1-1C34.1-43.9 18.6-12.3 0 0" fill="#d7e0b5"/></g><g transform="translate(1370.418,164.3604)"><path d="m0 0c-0.1-0.6-0.2-1.2-1-1 22.4-28.6-19.2-59.6-44.6-37.3-0.1-0.6-0.2-1.2-1-1C-22.7-66.9 27.2-29.6 0 0" fill="#d7e0b5"/></g><g transform="translate(1096.8896,87.6895)"><path d="M0 0C-22.4-2.6-26.5 37.2 1 32.1 3.4 22.6 3.8 8.5 0 0m5.2 37.3c-9 0-16-2-21.8-5.2-5.2-7-6.9-20.4-2.1-29-15.2-3.1-24.2-14.4-20.7-33.2-18.5-2.5-31.7-15.7-21.8-35.2-20.3 5.2-30.3-6.3-35.2-19.7-6.9 1.1-12.8 1.1-19.7 0-4.5 6.9-5.5 12.8-10.4 17.6-24.2 23.7-49.1 3.3-56.4-20.3l2.5 0c3.5 17.1 17.1 31.4 41.5 24.5 12.6-1.9 17.6-14.6 15.7-24.5l32 0c1 17.9 25.7 27.4 39.4 11 3 13.2-10.9 13.4-10.4 25.9 0.7 17.1 27.4 21.7 39.4 9.3-0.7 9.3-10.4 9.6-13.5 16.6-5.6 22.6 23.3 29.2 34.2 16.6-11-29.8-26.4-60.4-50.7-79.4l3.4 0C-28.8-68.5-14.1-42.1 0-21.8-2-13.7 5.1-8.2 6.2 0 12-35 0-66.2-15.7-87.7l2.4 0C10.7-61 16.9-5 5.2 37.3" fill="#d7e0b5"/></g><g transform="translate(1665.7031,121.8809)"><path d="m0 0c0-1.4 1.8-0.9 2.1-2.1 8.2-13.6 24.3-8 39.4-12.4 14.2-4.2 19-23.6 19.7-42.5l1 0C67.6-21.3 34.4 4.1 0 0" fill="#d7e0b5"/></g><g transform="translate(650.334,80.437)"><path d="M0 0C3.1 9.3 11.1 32.4 20.7 31.1 36.6 29 22.3-13.7 0 0m25.9 36.3c0 8.1 14.3 10.1 19.7 15.5-0.1 0.6-0.2 1.2-1 1C27.9 45.7 16.1 33.6 4.1 21.8 6.4 43.6 21.1 53.2 32.1 66.3l-1 0C10.4 51.7-2 28.9-6.2-2.1 12.2-11 30.4 4.9 31.1 23.8 45.5 23.8 52.5 31.1 60.1 37.8 48.3 28.9 25.9 23.4 25.9 36.3" fill="#d7e0b5"/></g><g transform="translate(719.543,125.416)"><path d="m0 0c-0.1 0.1-0.1 0.1-0.2 0.2 0 0 0 0-0.1 0.1-0.1 0.1-0.2 0.1-0.2 0.2-0.1 0-0.1 0.1-0.2 0.1 0 0 0 0 0 0-0.5 0.3-1.1 0.5-1.3 1.1-0.5-2.2-2.1-4.4-4.3-6.6 2 1.6 4.2 3.2 6.5 4.4C0.2-0.3 0.1-0.2 0.1-0.1 0-0.1 0 0 0 0" fill="#d7e0b5"/></g><g transform="translate(1019.1816,158.1436)"><path d="m0 0c3.7-20.9 0.7-43.4-13.5-49.7 2.7 0 1.3-0.8 1-2.1C3.5-45.7 10.3-16.5 1 2.1 1.2 0.9 0.8 0.2 0 0" fill="#d7e0b5"/></g><g transform="translate(896.9238,150.8906)"><path d="m0 0c-2.6-27.2 15.8-57.8 33.2-67.3 14.8-8.2 42.6-4.5 47.7-22.8 11.2 25.2 40.5 24.1 54.9 42.5 28.4 36 3 85.1-23.8 100.5C92.1 64.2 65.7 64.4 62.2 90.1 58.3 60.1 91.2 60.8 111.9 48.7 141.2 31.5 157.5-16 129.5-50.8 111.7-55.4 98.3-76 79.8-76.7 76.2-76.8 69.6-72.6 65.3-71.5 36.7-64.5 17.7-57.6 9.3-35.2-15.2 30.1 52 43.2 57 92.2 49.7 51.9 4 42.1 0 0" fill="#d7e0b5"/></g><g transform="translate(1881.21,142.6021)"><path d="M0 0C-1.9-24.7-6.4-46.8-23.8-55.9-19.2-34.6-12.5-9.9 0 0m-11.4-7.3c-5.7-12.8-4.5-26.5-15.5-33.2 1.6 14.6 5 27.4 15.5 33.2M2.1 9.3c-22.8-10.8-37.5-40.3-30-74.6 22.1 11.6 33.1 44.6 30 74.6" fill="#d7e0b5"/></g><g transform="translate(1797.2871,152.9639)"><path d="M0 0C5.9 9.2 22.8-0.5 31.1-2.1 24.1-13.9 7-7.4 0 0m4.1 16.6c-3.4 12.6 3.3 22.6 8.3 30 3.7-0.9 0.1-2.6 1-6.2 5.7 2.6 2.9 13.7 12.4 12.4-0.2-9.5-7.5-11.8-8.3-20.7 5.3 4.3 4.9 14.4 13.5 15.5 1-5.8-3-6.7-3.1-11.4 4.8 0.7 5.4 14.6 9.3 19.7 2.8 0 5.9 0.4 7.3-1 0.7-3.8-1.8-4.4-1-8.3 3.8 4.6 10 15.2 18.6 8.3-4.1-9.3-12.4-14.5-20.7-19.7-1.4 1.3-1.4 4.9 0 6.2C35.7 37.5 34.5 29.1 29 24.9 25.7 24 25.8 26.5 23.8 26.9 19.2 24.7 20.4 16.6 13.5 16.6l0 6.2C7.6 15.6 5.3 4.7-7.3 4.1-10 10.9 2.1 11.2 4.1 16.6m-8.3 20.7C-9.7 31.1-8.8 18.5-18.6 16.6c0.6 8.7 5.7 13 7.3 20.7-3.2 2.5-2-8.3-7.3-7.3-8 11.1-2.2 35 0 48.7 13.8-4.6 2.6-21.9 1-32.1 5.9 2.4 3.5 13.1 8.3 16.6 7.6-0.9 2.7-10.9 1-14.5 2.8-3.2 3.9 2.7 6.2 0C1.9 33.2-0.3 10-15.5 7.3-17.3 18.2-1.9 25.9-4.1 37.3M-28 7.3c-5.7 9.2-13.6 17.7-17.6 31.1 9.1-2.8 25.2-17.7 17.6-31.1m-18.6 54.9c5 0.6 4.8-4.1 8.3-5.2-0.7 6-8.6 9.7-6.2 15.5 5.6-1.7 15.9-12.8 8.3-17.6 2.5-6.6 12-11.3 8.3-20.7-5.3 6.4-16.3 2.9-17.6 14.5 3.9 1.1 3-2.6 6.2-2.1-1.4 6.2-7.7 7.5-7.3 15.5m8.3 31.1c3.2 0.7 3.8-1.1 6.2-1 0.7-7 3.5-17 1-23.8-4.1 6.6-6.7 14.7-7.3 24.9m11.4-6.2c8.2-1.2 5.6-26.6 0-30-1.6 7.9-1.8 22.2 0 30M68.4 42.5c-0.3-7.8-12.8-8.4-18.6-7.3 1.4 7.2 9.4 7.9 18.6 7.3M67.3 28C60.8 25.6 43.5 21.3 39.4 29c8.7 1 19.3 5.6 28 3.1l0-4.1zM24.9 17.6c6.1 10.7 26.2 1.6 38.3 5.2C64.2 7 31.8 13.3 24.9 17.6M11.4 8.3C19.4 17.9 40.2 8.5 52.8 9.3 48-5.6 21.6 2.3 11.4 8.3M23.8-14.5C40.2-1.2 64.2 4.6 71.5 26.9 71.1 39.7 73.5 49.4 70.5 60.1 42.3 62.4 22.3 56.4 1 51.8c-7.8 23-19.4 42-44.6 47.7-5.9-11.9 8.3-16 5.2-24.9-6.3-1.1-3.3 7-9.3 6.2-8.6-25-2.4-51.3 9.3-69.4 9.9-15.3 8.5-11.1 2.1-26.9-10.2-25 2.4-55.6 15.5-73.6-10.8 15.2-29.1 80.9 0 85 14.6 2 24.1-15 44.6-10.4" fill="#f8c114"/></g><g transform="translate(54.2109,0)"><path d="m0 0 4.3 0c2.9 7.5 12.1 5.7 18.9 0l6.1 0C21.5 9.2 7.2 10.4 0 0" fill="#d7e0b5"/></g><g transform="translate(261.7998,22.4155)"><path d="m0 0c-1.9 57.1-118.7 52.1-90.1-13.5-4.1-2.5-7.5-5.7-10.8-8.9l6.2 0c6.4 4.8 16.2 5.5 24.5 0l11 0c1.3 1.9 2.4 3.8 3.4 5.8-19.4-3.7-44.4 7.7-33.2 35.2 14.6 35.7 78.9 16.2 83.9-11.4 1.8-9.9 0.5-19.9-3.1-29.7l3.5 0C-1.7-14.7 0.2-6.9 0 0" fill="#d7e0b5"/></g><g transform="translate(774.666,138.458)"><path d="M0 0C11.2-1.4 32.5-9.4 31.1-19.7 28.8-35.8-23.7-23.2 0 0m-48.7 2.1c9.4 4.3 31.7 6.7 41.4 1 2.9-24.2-50.6-34.4-41.4-1m89.1-46.6c-11.2-5.5-17.5 15-6.2 17.6 6.6-1.3 5.5-10.4 6.2-17.6M75.6-57C67.9-74.7 58.3-98.7 33.2-96.4 19.3-95 4.1-77.3 5.2-63.2c1.4 18.7 37.7 23.8 33.2-5.2 11.5 7.7 6.2 35.3 1 45.6-17.5 35.4-84.3 40.7-119.2 17.6 0.9 0.2 1-0.4 1-1 7 2.1 15 8.3 22.8 6.2 2.6-2.9-0.9-6-1-9.3-0.1-0.2-0.1-0.4-0.2-0.6 0 0 0-0.1 0-0.1 0-0.1 0-0.3-0.1-0.4 0 0 0-0.1 0-0.1 0-0.1 0-0.2 0-0.3 0 0 0 0 0-0.1 0-0.1 0.1-0.2 0.1-0.3 0.2-0.6 0.8-0.8 1.3-1.1 0 0 0 0 0 0 0.1 0 0.1-0.1 0.2-0.1 0.1-0.1 0.2-0.1 0.3-0.2 0 0 0 0 0.1-0.1 0.1-0.1 0.1-0.1 0.2-0.2 0 0 0-0.1 0.1-0.1 0.1-0.1 0.1-0.2 0.2-0.3 9.4-14.4 32.1-8.1 43.5 0 5.9-10.4 13.3-19.1 32.1-16.6 1.4-3.4 2.4-7.2 2.1-12.4-30.6-5.9-19.9-43.2-1-53.9 25.8-14.5 50.6 17.1 54.9 38.3-0.6 0.1-1.2 0.2-1 1" fill="#d7e0b5"/></g><g transform="translate(693.8496,60.7505)"><path d="M0 0C6.6 6.1 29.5 3.9 30-6.2 22.8-5.4 11.4-0.1 0 0m50.8-25.9c-3.2 33.5-59.8 44.8-76.7 14.5-5-7.2-7.2-15.4-6.2-24.9 1.1-10.5 5.6-18.7 11.9-24.5l6.2 0c-11.5 8.5-17.9 24-10.8 46.2 13.5-3.1 16.4-10.4 34.2-8.3 12.6 1.5 21.6 15.1 28 14.5 6-0.5 11.5-13.7 11.4-21.8-0.1-14.2-6-24.4-14.5-30.7l4.7 0c8.3 7.6 13.4 19.2 11.9 34.8" fill="#d7e0b5"/></g><g transform="translate(499.0635,19.3076)"><path d="m0 0c-8.2 3-18.1 16.9-25.9 5.2-0.4-6.3 5-6.7 5.2-12.4-16.7-2.8-17 26.3-2.1 28C-11.9 22 1.5 11 0 0M63.2-13.5C57.1 5.9 33.1 10.9 13.5 8.3 15.3 15.1 22.9 16.1 26.9 20.7 15.6 20.7 14.3 10.6 5.2 8.3-4.8 34.7-54.3 20.8-33.2-11.4c-4.1-1.8-7.4-4.6-10.1-7.9l5.7 0c2.7 2.5 6.3 4 10.6 3.8-0.8-1.2-1.5-2.4-2.2-3.8l12.2 0c1.8 2.7 5 4.6 8.6 4.8 1.1-1.3 1.6-3 1.5-4.8l12.2 0c-0.1 0.2-0.2 0.4-0.3 0.7 0.4-0.2 0.7-0.4 1.1-0.7l17.5 0c1.1 3.6-1.3 9.2-8.2 14.1 13 3.6 21.9-5.4 23.5-14.1l3.4 0c-1.3 11.8-15.2 14.9-23.8 20.3-0.2 1.2 0.2 1.8 1 2.1 6.5 2.5 13 3.6 19.7 2.1 14.2-3.1 19.9-13.2 20-24.5l3.8 0c0.1 1.9 0.1 3.9 0 5.8" fill="#d7e0b5"/></g><g transform="translate(1289.6016,22.4155)"><path d="M0 0C15.4 12.2 37.7 23 62.2 22.8 47.5 9.8 21.5 2.7 0 0M-9.3-8.3C16.4 0.5 43.4 8.1 67.3 18.7 52.2 0 23.7-10.9-9.3-8.3m47.7 34.2C30.2 16.4 12.6 11 0 9.3 8 21.9 22 21.9 38.3 25.9M-21.8-9.3C20-19.6 55.3 1.5 77.7 20.7 42.8 43.7-8.6 17.7-21.8-9.3" fill="#d7e0b5"/></g><g transform="translate(772.5918,23.4517)"><path d="m0 0c-4.1-6.8-6.4-15-6.9-23.5l3.9 0c0.3 3.9 0.9 7.6 2 11 1.4-3.5 2.6-7.2 3.8-11l15.7 0C14.1-12.5 7.6-3.8 0 0" fill="#d7e0b5"/></g><g transform="translate(1725.7969,19.3076)"><path d="m0 0c-2.3-2.2-3-6-5.2-8.3-7.7-2.3-14.1-5.9-18.7-11l3.1 0c3.7 3.6 9 6.1 16.6 6.9 0.8-2.1 1.6-4.5 2.4-6.9l30.4 0C22.6-9.4 13.4-2.6 0 0" fill="#d64326"/></g><g transform="translate(857.5518,46.2456)"><path d="m0 0c-12.4-7-23.8-27-25.3-46.2l4 0c0 13.3 5.6 28.4 14 32.8-1.1-11.9-3.3-22.8-6.4-32.8l3.6 0c1.8 11.8 5.1 22 9 31.7 4.5-8.8 3.4-21.5-0.5-31.7l3 0C7.1-31 9-13.9 0 0" fill="#d7e0b5"/></g><g transform="translate(1792.1064,11.019)"><path d="m0 0c-0.6-3.8-0.9-7.5-0.9-11l28.1 0C21.6-7.3 15.1-4.6 7.3-3.1 18.1 7 33 0.6 41.7-11l2.9 0C34.7 3.5 16.2 12 0 0" fill="#d7e0b5"/></g><g transform="translate(1442.9434,3.7666)"><path d="M0 0C-0.2 0.8-0.9 1.2-2.1 1-5.2 0-7-2.2-9.6-3.8l4.1 0C-4.7-2.5-3-1.2 0 0" fill="#d7e0b5"/></g><g transform="translate(1441.9082,38.9932)"><path d="m0 0c-0.2 0.8-0.9 1.2-2.1 1-12.9-5.1-12.9-23-21.8-32.1-14.6 11.6-29.1 6.1-33.3-7.9l4.5 0c-0.1 1.3-0.1 2.5-0.2 3.8 6.7 12.6 26.4 6.4 29.6-3.8l7.5 0C-17.2-22.9-11.7-5.8 0 0" fill="#d7e0b5"/></g><g transform="translate(1952.7012,22.4155)"><path d="m0 0c-3.6 3-4.6 10.2-5.2 15.5-2 17.5-0.9-6.3 0-14.5-4.9-4.4-11.4-13.8-13.7-23.5l10.6 0c0.1 1.1 0.5 2.1 1.1 2.7 1.6-0.4 2.5-1.4 3.2-2.7l4.3 0c0.3 0.9 0.9 1.5 1.9 1.7 2-0.5 3.8-1 5.6-1.7l20.9 0C26.7-7.3 18.4 1.4 0 0" fill="#f8c114"/></g><g transform="translate(935.2031,312)"><path d="m0 0-8.1 0c0-0.5-0.1-1-0.1-1.6-1.3 0.3-2.4 0.9-3.4 1.6l-5.6 0C-12.7-9.4-5.9-7.8 0 0" fill="#d7e0b5"/></g><g transform="translate(512.5332,311.4849)"><path d="m0 0c-0.3 0.2-0.5 0.3-0.8 0.5l-3.5 0c0.7-0.6 1.4-1.1 2.2-1.6C-1.8-0.2-1.2 0.2 0 0" fill="#d7e0b5"/></g><g transform="translate(24.6758,312)"><path d="m0 0-1.3 0c0-1.2 0-2.4 0.1-3.6 0.8 0.9 1.1 2.1 1.2 3.6" fill="#d7e0b5"/></g><g transform="translate(802.6387,279.3662)"><path d="m0 0c10.1 23.4 61.8 21.8 51.8-15.5 2.3-0.8 0.4-5.8 1-8.3 0.8-0.5 1.7-1.1 3.1-1C58-2.4 50.5 21.5 28 20.7 16.1 20.3 6.7 9.6-1 2.1 0 2-0.2 0.8 0 0" fill="#d7e0b5"/></g><g transform="translate(926.9707,283.5112)"><path d="m0 0c12.8 7.6 36.3 9.9 54.9 8.3 0.4 2.3 5.1 0.4 7.3 1C40.7 14 11.6 10.8-2.1 1-0.9 1.2-0.2 0.8 0 0" fill="#d7e0b5"/></g><g transform="translate(573.6631,309.4131)"><path d="m0 0c2.6 0.6 5.9 1.6 9.3 2.6l-6.4 0C1.8 1.8 0.8 1 0 0" fill="#d7e0b5"/></g><g transform="translate(606.8174,310.4492)"><path d="m0 0c-9.1-19-35.3-31.5-63.2-24.9 2.2 15.7 20.5 15.4 29 24.9-15-6.1-30.1-12-35.2-28 32.5-8.9 62 7.7 74.7 29.5l-7 0C-1.1 1.1-0.5 0.6 0 0" fill="#d7e0b5"/></g><g transform="translate(921.7891,263.8247)"><path d="M0 0C22.5-4.3 51.4 0.4 64.2 12.4 49 5.3 30.6 1.2 8.3 1 7.5-1.3 2.5 0.6 0 0" fill="#d7e0b5"/></g><g transform="translate(524.9668,263.8247)"><path d="m0 0c-0.8 0.2-1.2 0.9-1 2.1-11.6 5.4-29.4-3.8-31.1-11.4 5.7 5.2 14.5 12 25.9 8.3 2.3-26.3-25.3-36.8-47.7-38.3-2.3 3 2.5 5.9 2.1 10.4-4-3.4-8.9-10.9-7.3-16.6C-29.9-39.9-5.5-29.4 0 0" fill="#d7e0b5"/></g><g transform="translate(25.5703,206.8398)"><path d="m0 0c13.7-11.6 46 1.3 58-12.4l1 0C48.3 2.2 17.3-5.9 0 0" fill="#d7e0b5"/></g><g transform="translate(1694.7129,158.1436)"><path d="m0 0c-8.9 15.6-19.6 29.4-20.7 52.8-2.8-0.7 0.7 4.9-2.1 4.1C-21.6 31.6-14.3 12.3 0 0" fill="#d7e0b5"/></g><g transform="translate(1957.8809,115.6641)"><path d="M0 0 0 3.1C-3.5 0.9 1.4-1.6 1-4.1 22.7 12 31.5 65.9 9.3 88.1 27.1 65.6 22.6 10.4 0 0" fill="#ad7576"/></g><g transform="translate(749.7998,171.6128)"><path d="M0 0 0 2.1C-31.5 1.8-51.7-9.8-68.4-24.9l1 0C-49.1-12.3-30-0.7 0 0" fill="#d7e0b5"/></g><g transform="translate(33.8594,133.2773)"><path d="M0 0C-15.7 13.8 2.4 60.5-17.6 66.3-0.8 55.2-18.6 9.4-1-1-1.2-0.2-0.6-0.1 0 0" fill="#d7e0b5"/></g><g transform="translate(48.3643,142.6021)"><path d="m0 0c-10.6 5.7-12.6 25.3-11.4 39.4 10.1-1.6 21.4-2.1 28-7.3 0.6 0.1 1.2 0.2 1 1-7 7.5-23.3 5.7-33.2 10.4 2.1-17.6 1.3-38.1 14.5-44.6C-1-0.4-0.9 0.2 0 0" fill="#d7e0b5"/></g><g transform="translate(65.9785,175.7573)"><path d="m0 0c0.2-0.9-0.4-1-1-1 9.5-6.4 6.7-20.8 4.1-33.2-7.3-2.5-14.4-2.1-20.7 1-0.9 0.2-1-0.4-1-1 5.1-5.3 16.6-4.1 26.9-4.1C5.3-24.1 12.4-5.4 0 0" fill="#d7e0b5"/></g><g transform="translate(1237.7969,170.5771)"><path d="M0 0C16-17.8 31.9-35.8 48.7-52.8 23.3-45.7-3.3-29 0 0M50.8-45.6C30.4-35.6 17.5-18.1 7.3 2.1 30.1-1.4 47-19.7 50.8-45.6m6.2-12.4C53.6-23.1 32.2 2.8-3.1 9.3c-9.5-40 26.8-59.9 60.1-67.3" fill="#d7e0b5"/></g><g transform="translate(44.2188,62.8232)"><path d="M0 0C-6.8 2.6-4.4 14.2-5.2 22.8 4.9 24.6 3.3 4.8 0 0m32.1-10.4c0.3-1.7-1-1.8-1-3.1 9 6.9 19.6 6.6 31.1 2.1-0.8-7.1-7.5-8.4-15.5-8.3-0.1 1.6 0.5 4-1 4.1-3.9-2-7.7-4.1-14.5-3.1l0 4.1c-3.5 0-5.1-5-8.3-2.1 1.9 3.3 4.9 5.4 9.3 6.2m-2.1-14.5c7.9 3.5 12.8-4.3 18.6-6.2 3.9-1.1 2 3.5 4.1 4.1 3.7-0.4 6.6-1.7 7.3-5.2-8.4-7.3-28.1-2-30 7.3m-19.7-2.1c8.4 0.9 17.4-10.6 25.9-12.4 19-4 30.4 3.6 41.4 14.5-7.4 24.1-43.3 25.6-62.2 11.4-1.5 31.7-16.7 49.6-48.7 50.8 0.3-4.5-1.2-10.9 2.1-12.4 0.5 4.8 7.9 0.9 6.2-3.1-4-2.1-6.5 5.4-7.3 0 3.5-23.4 18.3-35.5 35.2-45.6-10.4-11.7-20.6-23.6-27.4-39l5.1 0c7.1 17.4 15.9 34.5 29.6 35.9" fill="#f8c114"/></g><g transform="translate(1893.6426,86.6533)"><path d="M0 0C5.5 4.2 15.5 9.3 22.8 8.3 15.6-3.2-1-5.2-9.3-15.5 4.7-10.2 14.4-0.6 28 5.2 27.1-13.4 4.3-38.6-22.8-31.1c0.1 8.9 9.5 8.5 12.4 14.5-1.5 0.6-5.4-1.2-5.2 1 2 6.6 9.4 7.9 11.4 14.5C-15.7-8.2-24.6-17.9-29-32.1 7.8-45.9 27.7-9.3 40.4 14.5 23.1 14.2 3.9 10.3 0 0" fill="#d7e0b5"/></g><g transform="translate(1658.4512,40.0293)"><path d="m0 0c-37.2 12.6-26.3 75.9 9.3 79.8-0.3 1.1-2.1 0.7-2.1 2.1-22-7.7-35.9-27.9-34.2-50.8 3.7-50.2 83.1-41.9 96.4-6.2l-1 0C55.6 3.5 24.5-8.3 0 0" fill="#d7e0b5"/></g><g transform="translate(1524.7959,79.4004)"><path d="m0 0c10.9-9.7 38.6-18.1 47.7-1 18.3-4 29.3-20.2 24.9-43.5 0.6-0.1 1.2-0.2 1-1C86.8-0.9 36.5 14 0 0" fill="#d7e0b5"/></g><g transform="translate(618.2158,40.0293)"><path d="M0 0C-1.6 21.2-5.9 45.2-10.4 60.1 9.7 55.4 18.7 14.7 0 0M-12.4-8.3C-33 0.6-41.9 52.1-22.8 69.4-8.3 54.8 4.5 12.5-12.4-8.3M-24.9 77.7C-43.8 51.3-36.8 0.3-13.5-15.5 30 3.1 10.6 65.9-24.9 77.7" fill="#d7e0b5"/></g><g transform="translate(1441.9082,38.9932)"><path d="M0 0C3.1 1 4.6 3.7 9.3 3.1 21.6-9.2 8.3-27.7-1-34.2c1.2 0.2 1.8-0.2 2.1-1 12.5 8.2 24.7 30.2 9.3 43.5C4.7 7.3 2.3 3.2-2.1 1-0.9 1.2-0.2 0.8 0 0" fill="#d7e0b5"/></g><g transform="translate(1841.8389,24.4883)"><path d="M0 0C-7.6 17.9-8.6 42.5-16.6 60.1-0.8 51.6 5.2 22.5 0 0m-26.9 59.1c6.4-11.2 9.8-25.5 13.5-39.4-8.9 8-14.7 24.6-13.5 39.4m-5.2-7.3C-26.8 34.6-15.1 18.5-13.5 1-29 7.5-38.2 30.6-32.1 51.8m5.2 24.9C-45.8 45.8-35.7-8.5 3.1-9.3 9.7 28.4-3.5 62.3-26.9 76.7" fill="#d7e0b5"/></g><g transform="translate(1126.9355,37.957)"><path d="m0 0c-4.4-7.4-8.9-28.8-2.4-38l1.7 0C-3.6-25.8-1-8.8 0 0" fill="#d7e0b5"/></g><g transform="translate(1873.959,20.3433)"><path d="M0 0C15.1-3.9 38.3 0.3 48.7-8.3 36-17.1 4.7-12.6 0 0M-13.5 6.2C-4.2-13.3 33.9-21.7 58-10.4 49 8.3 7.7 22.6-13.5 6.2" fill="#d7e0b5"/></g><g transform="translate(1597.3213,34.8491)"><path d="M0 0C-10.9-38-110.7-44.1-93.2 22.8-119.6-41.8-9.8-45.5 1-1 1.2-0.2 0.6-0.1 0 0" fill="#d7e0b5"/></g><g transform="translate(1078.2402,307.3413)"><path d="M0 0C1.4-17.2 7-46.5-1-60.1-28.1-54.5-18.6-8.4 0 0M10.4-55.9C2.4-43.4 9.6-17 5.2 1 20.5-4.5 19.1-44.7 10.4-55.9m-12.4-8.3c4.6 2.6 11.5 3 17.6 4.1 5.4 14.4 7.9 54.2-4.6 64.8l-14.7 0C-21.4-7.9-30.2-61.3-2.1-64.2" fill="#d7e0b5"/></g><g transform="translate(1125.9004,251.3926)"><path d="M0 0C-12.1 0.4-10.8 19.6-10.4 29-6.9 19.9 1.5 10.6 0 0m-1-6.2c9.7 6.9 22.5 48.4 14.9 66.8l-3.7 0C16.7 48.6 12.3 21.6 5.2 14.5c-9.7 3.4-17.2 33.3-11.9 46.1l-3.8 0c-9.6-18.8-7.3-61.3 9.5-66.8" fill="#d7e0b5"/></g><g transform="translate(548.7969,254.5)"><path d="M0 0C13 0.9 19.3-14.7 13.5-25.9 1-25.9-2.7-11.7 0 0M22.8-19.7C18.8-9.9 14.4-0.5 5.2 4.1 20.1 14.2 32.8-7.8 22.8-19.7m-9.3-13.5c30.1 9.9 16.6 57.9-19.7 40.4-2.4-18.5 7.1-33.5 19.7-40.4" fill="#d7e0b5"/></g><g transform="translate(1134.1885,48.3184)"><path d="m0 0c3.3-0.2 3.5 2.8 7.3 2.1 5.2-25.4 27.9 0.8 39.4-1 13.1-2 15-33.1 9.7-49.4l2.5 0C77.2-8.9 28.1 35.5 0 0" fill="#d7e0b5"/></g><g transform="translate(1228.4736,44.1738)"><path d="m0 0c-12.5-9.5-15.8-27.4-12.8-44.2l1.9 0c-1 8.6 0.2 18.1 2.6 25.5 1.2 1.2 3.7 1.2 6.2 1-0.7 4.2 1 5.9 1 9.3 9.2-3.9 10.8-22 8.7-35.9l2.9 0c0.7 6 1.4 12 0.8 17.2 3.3-3.5 5-10.1 5.3-17.2l1.8 0C18.2-25.3 12.3-6.9 0 0" fill="#d7e0b5"/></g><g transform="translate(1225.9414,0)"><path d="M0 0 1.8 0C1 4.9 0.6 10 0.5 13.1-1.9 9.4-1.3 4.8 0 0" fill="#d7e0b5"/></g><g transform="translate(1284.4199,68.0039)"><path d="M0 0C8.8 20.2-11.9 40.9-29 37.3-42.6 34.4-58.1 21.5-53.9 4.1-49-15.5-7-16.2 0 0" fill="#56a946"/></g></g></g></svg>