<svg xmlns="http://www.w3.org/2000/svg" width="737" height="362" viewBox="71 601.5 737 362"><path fill="none" stroke="#795C4C" stroke-width="2" stroke-miterlimit="10" d="M164.053 789.045c-.25.625-7.375 14.25-27.5 14.25s-27.125-13.625-27.5-14.25c-1.125-2.125-.25-4.875 2-5.875 2.25-1.125 4.75-.25 5.875 1.875.25.5 5.125 9.375 19.625 9.375s19.375-9 19.625-9.375c1.125-2.125 3.75-3 5.875-1.875 2.25 1.125 3.125 3.75 2 5.875m-42.125-35.75c4.875 0 8.875 4.625 8.875 10.25 0 5.75-3.875 10.375-8.875 10.375-4.875 0-8.875-4.625-8.875-10.375 0-5.625 3.875-10.25 8.875-10.25m29.375 0c4.875 0 8.875 4.625 8.875 10.25 0 5.75-3.875 10.375-8.875 10.375-4.875 0-8.875-4.625-8.875-10.375 0-5.625 3.875-10.25 8.875-10.25m-15.75-34.375c-26.625.875-47.75 13.5-53.5 40.875-9.125 43.75 13.875 78.125 54 71.125 15.625-2.75 52.75-3.875 56.625-45.25 3.75-38.875-24-67.75-57.125-66.75"/><path fill="#6C757D" d="M77.959 859.993c.375-.5.75-1 1.5-1.75l3.875-4.125h2.125l-4.875 5.125 5.25 6.875h-2.25l-4.25-5.75-1.375 1.125v4.5h-1.75v-17.125h1.75v9.125c0 .5 0 1.125-.125 2h.125zm11.228.132c0 1.5.25 2.75.875 3.5s1.5 1.25 2.75 1.25 2.125-.375 2.75-1.25c.625-.75.875-2 .875-3.5s-.25-2.75-.875-3.5-1.5-1.125-2.75-1.125-2.125.375-2.75 1.125-.875 2-.875 3.5m9.125 0c0 2-.5 3.5-1.375 4.625-1 1.125-2.375 1.625-4.125 1.625-1.125 0-2-.25-2.875-.75s-1.5-1.25-1.875-2.125c-.5-1-.625-2-.625-3.375 0-2 .5-3.5 1.5-4.625s2.375-1.625 4.125-1.625c1.625 0 3 .5 4 1.625.75 1.25 1.25 2.75 1.25 4.625m4.467 0c0 1.5.25 2.75.875 3.5s1.5 1.25 2.75 1.25 2.125-.375 2.75-1.25c.625-.75.875-2 .875-3.5s-.25-2.75-.875-3.5-1.5-1.125-2.75-1.125-2.125.375-2.75 1.125-.875 2-.875 3.5m9.125 0c0 2-.5 3.5-1.5 4.625s-2.375 1.625-4.125 1.625c-1.125 0-2-.25-2.875-.75s-1.5-1.25-1.875-2.125c-.5-1-.625-2-.625-3.375 0-2 .5-3.5 1.5-4.625s2.375-1.625 4.125-1.625c1.625 0 3 .5 4 1.625.875 1.25 1.375 2.75 1.375 4.625m8.738-6.229c.5 0 1 0 1.5.125l-.375 1.75c-.5-.125-.875-.125-1.375-.125-1 0-1.75.375-2.5 1.125s-1 1.75-1 3v6.5h-1.875v-12h1.5l.25 2.25h.125c.5-.75 1-1.375 1.625-1.875s1.375-.75 2.125-.75m8.24 10.954c1.25 0 2.125-.375 2.75-1 .5-.625.875-1.75.875-3.25v-.375c0-1.75-.25-2.875-.875-3.625s-1.5-1.125-2.75-1.125c-1.125 0-1.875.375-2.5 1.25s-.875 2-.875 3.5.25 2.75.875 3.5 1.375 1.125 2.5 1.125m3.625-.25h-.125c-.875 1.25-2.125 1.875-3.75 1.875s-2.75-.5-3.625-1.625-1.375-2.625-1.375-4.625.5-3.5 1.375-4.625 2.125-1.625 3.625-1.625c1.625 0 2.875.625 3.75 1.75h.125l-.125-.875v-5.75h1.875v17.125h-1.5l-.25-1.625zm7.493 1.525h-1.875v-12H140v12zm-2-15.25c0-.375.125-.75.25-.875.25-.25.5-.25.75-.25s.5.125.75.25c.25.25.375.5.375.875s-.125.75-.375.875c-.25.25-.5.25-.75.25s-.625-.125-.75-.25c-.25-.25-.25-.5-.25-.875m14.051 15.281v-7.75c0-1-.25-1.75-.625-2.25-.5-.5-1.125-.75-2.125-.75-1.25 0-2.125.375-2.75 1-.625.75-.875 1.875-.875 3.375v6.375h-1.875v-12h1.5l.25 1.625h.125c.375-.625.875-1 1.625-1.375.625-.375 1.375-.5 2.25-.5 1.5 0 2.5.375 3.25 1 .75.75 1.125 1.875 1.125 3.375v7.875h-1.875zm8.428-13.908c.375-.5.75-1 1.125-1.625s.75-1.25 1-1.625h2.25v.25c-.375.375-.875 1-1.5 1.625-.625.75-1.125 1.25-1.625 1.625h-1.25v-.25zm.375 12.625c1.125 0 2-.25 2.625-.875s1-1.5 1-2.625v-1.125l-1.875.125c-1.5 0-2.5.25-3.125.625s-1 1-1 1.875c0 .625.25 1.125.625 1.5s1 .5 1.625.5m4.125 1.25l-.375-1.75h-.125c-.625.75-1.25 1.25-1.75 1.5-.625.25-1.375.375-2.25.375-1.25 0-2.125-.25-2.75-.875s-1-1.5-1-2.625c0-2.375 2-3.75 5.875-3.875l2-.125v-.75c0-1-.25-1.625-.625-2.125s-1-.625-2-.625-2.125.25-3.375.875l-.5-1.375c.625-.375 1.25-.625 2-.75s1.375-.25 2.125-.25c1.375 0 2.5.375 3.25 1s1 1.625 1 3.125v8.25h-1.5zm9.17-1.252c.375 0 .625 0 .875-.125.25 0 .5-.125.75-.125v1.375c-.125.125-.5.25-.875.25-.375.125-.75.125-1 .125-2.375 0-3.5-1.25-3.5-3.625v-7.125h-1.75v-.875l1.75-.75.75-2.625h1v2.75h3.5v1.375h-3.5v7.125c0 .75.125 1.25.5 1.625s.875.625 1.5.625m5.273-4.746c0 1.5.25 2.75.875 3.5s1.5 1.25 2.75 1.25 2.125-.375 2.75-1.25c.625-.75.875-2 .875-3.5s-.25-2.75-.875-3.5-1.5-1.125-2.75-1.125-2.125.375-2.75 1.125-.875 2-.875 3.5m9.125 0c0 2-.5 3.5-1.375 4.625-1 1.125-2.375 1.625-4.125 1.625-1.125 0-2-.25-2.875-.75s-1.5-1.25-1.875-2.125c-.5-1-.625-2-.625-3.375 0-2 .5-3.5 1.5-4.625s2.375-1.625 4.125-1.625c1.625 0 3 .5 4 1.625.75 1.25 1.25 2.75 1.25 4.625m8.738-6.229c.5 0 1 0 1.5.125l-.375 1.75c-.5-.125-.875-.125-1.375-.125-1 0-1.75.375-2.5 1.125s-1 1.75-1 3v6.5h-1.875v-12h1.5l.25 2.25h.125c.5-.75 1-1.375 1.625-1.875s1.375-.75 2.125-.75"/><path fill="none" stroke="#1A5792" stroke-width="2" stroke-miterlimit="10" d="M473.106 790.869c-.375.625-8.25 16.125-31.125 16.125-22.75 0-30.75-15.5-31.125-16.125-1.25-2.5-.25-5.5 2.25-6.75s5.5-.25 6.75 2.125c.25.5 5.875 10.625 22.25 10.625s22-10.125 22.25-10.625c1.25-2.375 4.25-3.375 6.75-2.125 2.25 1.375 3.25 4.25 2 6.75m-47.75-40.5c5.5 0 10 5.25 10 11.625 0 6.5-4.5 11.625-10 11.625s-10-5.25-10-11.625c0-6.5 4.5-11.625 10-11.625m33.375 0c5.5 0 10 5.25 10 11.625 0 6.5-4.5 11.625-10 11.625s-10-5.25-10-11.625 4.5-11.625 10-11.625m-17.75-39c-30.375 1-54.25 15.375-60.75 46.375-10.25 49.625 15.75 88.5 61.125 80.625 17.75-3.125 59.75-4.5 64.125-51.25 4.25-44-27.125-76.875-64.75-75.625"/><path fill="#6C757D" d="M423.308 848.92h1.25c.875.5 1.625 1.25 2.375 2.125 1-1 1.75-1.75 2.5-2.125h1.25v.25l-.75.75c-1 1.125-1.75 2-2 2.625h-1.875c-.125-.375-.375-.75-.75-1.125-.375-.5-1.125-1.25-2-2.25v-.25zm8 17.25h-8.75v-1.25l6.625-9.375h-6.125v-1.375h8.125v1.375l-6.5 9.25h6.625v1.375zm4.692-.045h-1.875v-12H436v12zm-2.002-15.25c0-.375.127-.75.252-.875.25-.25.5-.25.75-.25s.5.125.75.25c.25.25.375.5.375.875s-.125.75-.375.875c-.25.25-.5.25-.75.25s-.625-.125-.75-.25c-.252-.25-.252-.5-.252-.875m9.141 13.996c1.125 0 2-.25 2.625-.875s1-1.5 1-2.625v-1.125l-1.75.125c-1.5 0-2.5.25-3.25.625-.625.375-.875 1-.875 1.875 0 .625.125 1.125.625 1.5.375.375.875.5 1.625.5m4.125 1.25l-.375-1.75h-.125c-.5.875-1.125 1.375-1.75 1.625s-1.375.375-2.25.375c-1.25 0-2.125-.25-2.75-.875s-1-1.5-1-2.625c0-2.375 2-3.75 5.875-3.875l2-.125v-.75c0-.875-.25-1.625-.625-2-.5-.5-1.125-.75-2-.75-1 0-2.125.375-3.375 1l-.5-1.375c.625-.375 1.25-.625 2-.75s1.375-.25 2.125-.25c1.375 0 2.5.375 3.25 1 .5.5.875 1.5.875 3v8.25h-1.375v-.125zm6.905-6.128c.375-.5.75-1 1.5-1.75l3.875-4.125h2.125l-4.875 5.125 5.25 6.875h-2.25l-4.25-5.625-1.375 1.125v4.5h-1.75v-17.125h1.75v9.125c0 .375 0 1-.125 1.875h.125zm-170.433-93.414h-1.75v-11.5c0-1 0-1.875.125-2.75l-.625.625c-.125.125-1 .875-2.625 2.125l-.875-1.25 4.25-3.375h1.5v16.125zm6.679-1.165c0-.5.125-.875.375-1.125s.5-.375 1-.375c.375 0 .75.125 1 .375.125.25.25.625.25 1.125s-.125.875-.375 1.125-.5.375-1 .375c-.375 0-.625-.125-.875-.375s-.375-.625-.375-1.125m313.995 4.915h-10.5v-1.625l4.25-4.25c1.25-1.25 2.125-2.25 2.5-2.75s.75-1.125.875-1.625c.25-.5.25-1.125.25-1.75 0-.875-.25-1.5-.75-2s-1.25-.75-2.125-.75c-.625 0-1.25.125-1.875.375s-1.25.625-2 1.25l-1-1.25c1.5-1.25 3.125-1.875 4.875-1.875 1.5 0 2.75.375 3.5 1.125.875.75 1.25 1.75 1.25 3.125 0 1-.25 2-.875 3-.5 1-1.5 2.25-3.125 3.75l-3.5 3.5v.125l8.25-.125v1.75zm2.878-1.165c0-.5.125-.875.375-1.125s.5-.375 1-.375c.375 0 .75.125 1 .375.125.25.25.625.25 1.125s-.125.875-.375 1.125-.5.375-1 .375c-.375 0-.625-.125-.875-.375s-.375-.625-.375-1.125M435.635 611.797c0 1-.25 1.875-.875 2.5s-1.375 1.125-2.5 1.25v.125c1.25.125 2.25.625 2.875 1.25s.875 1.5.875 2.625c0 1.5-.5 2.75-1.625 3.5-1 .875-2.625 1.25-4.5 1.25-.875 0-1.625-.125-2.375-.25s-1.375-.375-2-.625v-1.75c.75.375 1.5.625 2.25.75s1.5.25 2.25.25c2.75 0 4.125-1.125 4.125-3.25 0-2-1.5-2.875-4.625-2.875h-1.625v-1.625h1.625c1.25 0 2.25-.25 3-.875.75-.5 1.125-1.375 1.125-2.25 0-.75-.25-1.375-.75-1.875-.5-.375-1.25-.625-2.125-.625-.75 0-1.375.125-2 .375-.625.125-1.375.5-2.125 1l-.875-1.25c.625-.5 1.375-.875 2.25-1.25.875-.25 1.75-.5 2.75-.5 1.5 0 2.75.375 3.625 1.125s1.25 1.75 1.25 3m3.482 11.117c0-.5.125-.875.375-1.125s.5-.375 1-.375c.375 0 .75.125 1 .375.125.25.25.625.25 1.125s-.125.875-.375 1.125-.5.375-1 .375c-.375 0-.625-.125-.875-.375s-.375-.625-.375-1.125m-6.252 321.435v-5.375c0-1 0-2.25.125-3.5h-.125c-.375.75-.625 1.25-1 1.75l-5 7.125h6zm4.125 1.625h-2.375v3.75h-1.75v-3.75h-7.75v-1.625l7.625-10.875h1.875v10.75h2.375v1.75zm2.127 2.561c0-.5.125-.875.375-1.125s.5-.375 1-.375c.375 0 .75.125 1 .375.125.25.25.625.25 1.125s-.125.875-.375 1.125-.5.375-1 .375c-.375 0-.625-.125-.875-.375s-.375-.625-.375-1.125"/><path fill="none" stroke="#FF5E54" stroke-width="2" stroke-miterlimit="10" d="M774.858 789.045c-.25.625-7.375 14.25-27.5 14.25s-27.125-13.625-27.5-14.25c-1.125-2.125-.25-4.875 2-5.875 2.125-1.125 4.75-.25 5.875 1.875.25.5 5.125 9.375 19.625 9.375s19.375-9 19.625-9.375c1.125-2.125 3.75-3 5.875-1.875 2.25 1.125 3.125 3.75 2 5.875m-42.125-35.75c4.875 0 8.875 4.625 8.875 10.25 0 5.75-3.875 10.375-8.875 10.375-4.875 0-8.875-4.625-8.875-10.375 0-5.625 3.875-10.25 8.875-10.25m29.375 0c4.875 0 8.875 4.625 8.875 10.25 0 5.75-3.875 10.375-8.875 10.375-4.875 0-8.875-4.625-8.875-10.375 0-5.625 3.875-10.25 8.875-10.25m-15.75-34.375c-26.625.875-47.75 13.5-53.5 40.875-9.125 43.75 13.875 78.125 54 71.125 15.625-2.75 52.75-3.875 56.625-45.25 3.75-38.875-24-67.75-57.125-66.75"/><path fill="#6C757D" d="M724.502 864.85c1.25 0 2.125-.375 2.75-1 .5-.75.75-1.75.75-3.25v-.375c0-1.75-.25-2.875-.875-3.625s-1.5-1.125-2.75-1.125c-1.125 0-1.875.375-2.5 1.25s-.875 2-.875 3.5.25 2.75.875 3.5c.75.75 1.5 1.125 2.625 1.125m3.625-.25h-.125c-.875 1.25-2.125 1.875-3.75 1.875s-2.75-.5-3.625-1.625-1.25-2.625-1.25-4.625.5-3.5 1.375-4.625 2.125-1.625 3.625-1.625c1.625 0 2.875.625 3.75 1.75h.125l-.125-.875v-5.75h1.875v17.125h-1.5l-.25-1.625h-.125zm8.899.271c1.125 0 2-.25 2.625-.875s1-1.5 1-2.625v-1.125l-1.75.125c-1.5 0-2.5.25-3.25.625-.625.375-.875 1-.875 1.875 0 .625.125 1.125.625 1.5.375.375.875.5 1.625.5m4.125 1.25l-.375-1.75h-.125c-.5.875-1.125 1.375-1.75 1.625s-1.375.375-2.25.375c-1.25 0-2.125-.25-2.75-.875s-1-1.5-1-2.625c0-2.375 2-3.75 5.875-3.875l2-.125v-.75c0-.875-.25-1.625-.625-2-.5-.5-1.125-.75-2-.75-1 0-2.125.375-3.375 1l-.5-1.375c.625-.375 1.25-.625 2-.75s1.375-.25 2.125-.25c1.375 0 2.5.375 3.25 1s1 1.625 1 3.125v8.25h-1.375l-.125-.25zm10.595-12.225c.5 0 1 0 1.5.125l-.375 1.75c-.5-.125-.875-.125-1.375-.125-1 0-1.75.375-2.5 1.125s-1 1.75-1 3v6.5h-1.875v-12h1.5l.25 2.25h.125c.5-.75 1-1.375 1.625-1.875s1.375-.75 2.125-.75m8.504 12.481c-1.75 0-3.125-.5-4-1.625-1-1.125-1.375-2.625-1.375-4.5 0-2 .5-3.625 1.5-4.625 1-1.125 2.375-1.625 4.125-1.625.625 0 1.125 0 1.75.125s1 .25 1.375.5l-.75 1.5c-.375-.25-.75-.375-1.25-.5-.5 0-.875-.125-1.25-.125-2.5 0-3.625 1.5-3.625 4.625 0 1.5.25 2.625.875 3.375s1.5 1.125 2.625 1.125c1 0 2-.25 3.125-.625v1.625c-.875.5-1.875.75-3.125.75m9.186-1.506c1.125 0 2-.25 2.625-.875s1-1.5 1-2.625v-1.125l-1.75.125c-1.5 0-2.5.25-3.25.625-.625.375-.875 1-.875 1.875 0 .625.125 1.125.625 1.5.375.375.875.5 1.625.5m4.125 1.25l-.375-1.75h-.125c-.5.875-1.125 1.375-1.75 1.625s-1.375.375-2.25.375c-1.25 0-2.125-.25-2.75-.875s-1-1.5-1-2.625c0-2.375 2-3.75 5.875-3.875l2-.125v-.75c0-.875-.25-1.625-.625-2-.5-.5-1.125-.75-2-.75-1 0-2.125.375-3.375 1l-.5-1.375c.625-.375 1.25-.625 2-.75s1.375-.25 2.125-.25c1.375 0 2.5.375 3.25 1s1 1.625 1 3.125v8.25h-1.375l-.125-.25z"/><path fill="none" stroke="#6C757D" stroke-width="2" stroke-linecap="round" stroke-linejoin="round" d="M220.652 775.316c22.479-2.118 93.375 2.633 126.11 4.344"/><path fill="#6C757D" d="M334.61 785.351l-.581-1.915 12.534-3.81-12.051-5.139.785-1.839 17.105 7.293z"/><path fill="none" stroke="#6C757D" stroke-width="2" stroke-linecap="round" stroke-linejoin="round" d="M539.58 787.404c39.551 1.279 92.583-8.332 120.483-7.141"/><path fill="#6C757D" d="M551.246 793.94l.732-1.862-12.195-4.791 12.42-4.167-.634-1.896-17.629 5.916z"/><path fill="none" stroke="#6C757D" stroke-width="2" stroke-linecap="round" stroke-linejoin="round" d="M690.907 704.045c-108.898-62.264-290.779-116.405-502.655-2.816"/><path fill="#6C757D" d="M195.799 690.167l1.48 1.348-8.819 9.688 12.983-1.754.268 1.982-18.428 2.489z"/><path fill="none" stroke="#6C757D" stroke-width="2" stroke-linecap="round" stroke-linejoin="round" d="M153.777 888.416c156.147 90.252 416.11 95.641 557.96.688"/><path fill="#6C757D" d="M705.297 900.832l-1.604-1.196 7.824-10.507-12.748 3.02-.461-1.945 18.094-4.288z"/></svg>