<svg xmlns="http://www.w3.org/2000/svg" width="266" height="266" viewbox="-246.5 471.5 266 266"><path fill="none" stroke="#6C757D" stroke-width="4.84" stroke-miterlimit="10" d="M-54.601 633.924c-.606 1.21-15.69 30.463-58.893 30.463-43.135 0-58.202-29.253-58.89-30.463-2.36-4.698-.446-10.345 4.233-12.692 4.682-2.325 10.293-.417 12.682 4.138.5 1.048 11.073 20.069 41.975 20.069 31.083 0 41.608-19.217 42.037-20.069 2.391-4.555 8.119-6.338 12.667-4.01a9.414 9.414 0 0 1 4.189 12.564zm-90.402-76.696c10.46 0 18.9 9.849 18.9 22.039 0 12.194-8.437 22.098-18.9 22.098-10.473 0-18.895-9.903-18.895-22.098.001-12.191 8.429-22.039 18.895-22.039zm63.011 0c10.47 0 18.891 9.849 18.891 22.039 0 12.194-8.418 22.098-18.891 22.098-10.447 0-18.893-9.903-18.893-22.098.005-12.129 8.444-22.039 18.893-22.039zm-33.692-73.671c-57.159 1.752-102.381 28.981-114.575 87.593-19.486 93.78 29.734 167.36 115.674 152.414 33.515-5.813 112.924-8.393 121.368-96.896 7.95-83.211-51.317-145.317-122.467-143.111z"/></svg>