<svg xmlns:svg="http://www.w3.org/2000/svg" xmlns="http://www.w3.org/2000/svg" viewBox="0 0 162.5 162.5" height="162.5" width="162.5" xml:space="preserve" version="1.1"><defs><clipPath clipPathUnits="userSpaceOnUse"><path d="M0 130 130 130 130 0 0 0 0 130Z"/></clipPath></defs><g transform="matrix(1.25,0,0,-1.25,0,162.5)"><g clip-path="url(#clipPath16)"><g transform="translate(73.0996,71.2139)"><path d="m0 0 0-5.4-16.6 0-0.1-1.6 0-1.9 0.1-1.4 14.3 0 0-5.4-13.7 0c1.5-7.3 5.8-11 12.8-11 3.4 0 6.8 0.7 10.3 2.2l0-7.1c-3.1-1.4-6.6-2.1-10.7-2.1-5.6 0-10.2 1.5-13.8 4.6-3.5 3.1-5.8 7.6-6.9 13.4l-5.3 0 0 5.4 4.8 0-0.1 1.3 0 1.3 0.1 2.3-4.8 0 0 5.4 5.3 0c0.9 5.9 3.1 10.5 6.7 13.9 3.6 3.4 8.2 5 13.9 5 4.7 0 8.9-1 12.6-3.1L5.9 9.2c-3.6 1.8-6.8 2.7-9.6 2.7-3.3 0-6-1-8.1-3C-13.9 7-15.3 4-16 0L0 0ZM-9.3 57.8C-39.5 56.8-63.4 42.4-69.9 11.4c-10.3-49.6 15.7-88.5 61.2-80.6 17.7 3.1 59.7 4.4 64.2 51.2 4.2 44-27.1 76.9-64.8 75.7" fill="#68a9a0"/></g></g></g></svg>