<?xml version="1.0" encoding="UTF-8" standalone="no"?>
<svg
   xmlns:dc="http://purl.org/dc/elements/1.1/"
   xmlns:cc="http://creativecommons.org/ns#"
   xmlns:rdf="http://www.w3.org/1999/02/22-rdf-syntax-ns#"
   xmlns:svg="http://www.w3.org/2000/svg"
   xmlns="http://www.w3.org/2000/svg"
   viewBox="0 0 17.5 23.75"
   height="23.75"
   width="17.5"
   xml:space="preserve"
   version="1.1"
   id="svg2"><metadata
     id="metadata8"><rdf:RDF><cc:Work
         rdf:about=""><dc:format>image/svg+xml</dc:format><dc:type
           rdf:resource="http://purl.org/dc/dcmitype/StillImage" /></cc:Work></rdf:RDF></metadata><defs
     id="defs6"><clipPath
       id="clipPath16"
       clipPathUnits="userSpaceOnUse"><path
         id="path18"
         d="M 0,19 14,19 14,0 0,0 0,19 Z" /></clipPath></defs><g
     transform="matrix(1.25,0,0,-1.25,0,23.75)"
     id="g10"><g
       id="g12"><g
         clip-path="url(#clipPath16)"
         id="g14"><g
           transform="translate(5.4688,18)"
           id="g20"><path
             id="path22"
             style="fill:none;stroke:#941d1e;stroke-width:1;stroke-linecap:round;stroke-linejoin:round;stroke-miterlimit:10;stroke-dasharray:none;stroke-opacity:1"
             d="m 0,0 -3.618,0 c -0.577,0 -0.889,-0.17 -0.847,-0.938 0.194,-3.462 0,-13.697 0,-14.351 0,-0.653 0.347,-1.115 1.309,-1.115 0.962,0 6.232,0.154 9.348,0 0.732,-0.036 1.439,0.236 1.329,1.327 -0.289,2.827 0.008,10.338 0.01,10.593 C 7.535,-4.031 7.26,-3.735 6.813,-3.25 5.975,-2.34 4.766,-1.056 3.938,-0.328 3.587,-0.02 3.406,0 3.076,0 L 0,0 Z" /></g><g
           transform="translate(8.5449,18)"
           id="g24"><path
             id="path26"
             style="fill:none;stroke:#941d1e;stroke-width:1;stroke-linecap:round;stroke-linejoin:round;stroke-miterlimit:10;stroke-dasharray:none;stroke-opacity:1"
             d="M 0,0 0,-3.324 C 0,-3.861 0.082,-4.498 0.962,-4.4 2.347,-4.247 4.455,-4.411 4.455,-4.411" /></g><g
           transform="translate(6.8516,12)"
           id="g28"><path
             id="path30"
             style="fill:none;stroke:#941d1e;stroke-width:1;stroke-linecap:round;stroke-linejoin:round;stroke-miterlimit:10;stroke-dasharray:none;stroke-opacity:1"
             d="M 0,0 C 0.078,-1.616 0.116,-6.771 0,-8.349" /></g><g
           transform="translate(4.0244,6.8262)"
           id="g32"><path
             id="path34"
             style="fill:none;stroke:#941d1e;stroke-width:1;stroke-linecap:round;stroke-linejoin:round;stroke-miterlimit:10;stroke-dasharray:none;stroke-opacity:1"
             d="m 0,0 c 0.597,-0.674 2.597,-3.31 2.827,-3.31 0.233,0 1.444,1.828 2.674,3.04" /></g></g></g></g></svg>