<svg xmlns:svg="http://www.w3.org/2000/svg" xmlns="http://www.w3.org/2000/svg" viewBox="0 0 23.8 33.8" height="33.8" width="23.8" xml:space="preserve" version="1.1"><defs><clipPath clipPathUnits="userSpaceOnUse"><path d="M0 27 19 27 19 0 0 0 0 27Z"/></clipPath></defs><g transform="matrix(1.25,0,0,-1.25,0,33.75)"><g clip-path="url(#clipPath16)"><g transform="translate(13,26.999)"><path d="M0 0 0-6C0-6.6 0.5-7 1-7L6-7 0 0Zm-1 0-10 0C-12.1 0-13-0.9-13-2l0-23c0-1.1 0.9-2 2-2l15 0c1.1 0 2 0.9 2 2l0 17-5 0c-1.1 0-2 0.9-2 2l0 6L-1 0Zm-3-22 0 11.1 1 0 0-11 3.3 3.3 0.8-0.7-4.5-4.5-4.5 4.5 0.8 0.8 3.3-3.2z" fill="#f8c114"/></g></g></g></svg>