<?xml version="1.0" encoding="UTF-8" standalone="no"?>
<svg
   xmlns:dc="http://purl.org/dc/elements/1.1/"
   xmlns:cc="http://creativecommons.org/ns#"
   xmlns:rdf="http://www.w3.org/1999/02/22-rdf-syntax-ns#"
   xmlns:svg="http://www.w3.org/2000/svg"
   xmlns="http://www.w3.org/2000/svg"
   viewBox="0 0 23.75 23.75"
   height="23.75"
   width="23.75"
   xml:space="preserve"
   version="1.1"
   id="svg2"><metadata
     id="metadata8"><rdf:RDF><cc:Work
         rdf:about=""><dc:format>image/svg+xml</dc:format><dc:type
           rdf:resource="http://purl.org/dc/dcmitype/StillImage" /></cc:Work></rdf:RDF></metadata><defs
     id="defs6"><clipPath
       id="clipPath16"
       clipPathUnits="userSpaceOnUse"><path
         id="path18"
         d="M 0,19 19,19 19,0 0,0 0,19 Z" /></clipPath></defs><g
     transform="matrix(1.25,0,0,-1.25,0,23.75)"
     id="g10"><g
       id="g12"><g
         clip-path="url(#clipPath16)"
         id="g14"><g
           transform="translate(1.5,17.4688)"
           id="g20"><path
             id="path22"
             style="fill:none;stroke:#941d1e;stroke-width:1.20000005;stroke-linecap:round;stroke-linejoin:round;stroke-miterlimit:10;stroke-dasharray:none;stroke-opacity:1"
             d="M 0,0 C 6.313,0.189 10.566,-0.563 16.146,0" /></g><g
           transform="translate(1.5,13.8018)"
           id="g24"><path
             id="path26"
             style="fill:none;stroke:#941d1e;stroke-width:1.20000005;stroke-linecap:round;stroke-linejoin:round;stroke-miterlimit:10;stroke-dasharray:none;stroke-opacity:1"
             d="M 0,0 C 3.5,-0.667 5.865,0.491 9.331,0" /></g><g
           transform="translate(1.5,9.7988)"
           id="g28"><path
             id="path30"
             style="fill:none;stroke:#941d1e;stroke-width:1.20000005;stroke-linecap:round;stroke-linejoin:round;stroke-miterlimit:10;stroke-dasharray:none;stroke-opacity:1"
             d="M 0,0 C 5.865,0.424 9.711,-0.389 16.146,0.259" /></g><g
           transform="translate(2.1152,6.6992)"
           id="g32"><path
             id="path34"
             style="fill:#941d1e;fill-opacity:1;fill-rule:evenodd;stroke:none"
             d="m 0,0 c -0.566,-0.018 -1.015,-0.287 -1.136,-0.868 -0.193,-0.931 0.295,-1.659 1.148,-1.512 0.332,0.058 1.119,0.083 1.203,0.961 C 1.294,-0.594 0.706,0.022 0,0" /></g><g
           transform="translate(6.1436,6.6992)"
           id="g36"><path
             id="path38"
             style="fill:#941d1e;fill-opacity:1;fill-rule:evenodd;stroke:none"
             d="m 0,0 c -0.566,-0.018 -1.015,-0.287 -1.136,-0.868 -0.193,-0.931 0.295,-1.659 1.148,-1.512 0.332,0.058 1.119,0.083 1.203,0.961 C 1.294,-0.594 0.706,0.022 0,0" /></g><g
           transform="translate(10.1719,6.6992)"
           id="g40"><path
             id="path42"
             style="fill:#941d1e;fill-opacity:1;fill-rule:evenodd;stroke:none"
             d="m 0,0 c -0.566,-0.018 -1.015,-0.287 -1.136,-0.868 -0.193,-0.931 0.295,-1.659 1.148,-1.512 0.332,0.058 1.119,0.083 1.203,0.961 C 1.294,-0.594 0.706,0.022 0,0" /></g></g></g></g></svg>