<svg version="1.1" xmlns="http://www.w3.org/2000/svg" x="0" y="0" width="2500" height="950" viewBox="0 0 2500 950" enable-background="new 0 0 2500 950" xml:space="preserve"><path fill="#D64326" d="M280.6 78.8c-11-11.9-28.7-17-38.9-29.7C232.8 70 259.5 91.6 280.6 78.8M289.8 73.6c19.1-3.9-28.2-50.7-41.5-36.4C244.9 54.1 274.6 76.6 289.8 73.6M262.5 29.5c10.5 11.1 23.5 19.8 36.3 28.5C299.5 40.8 281.3 31.5 262.5 29.5M258.6 14c15.8 9.3 36.3 13.9 46.6 28.5 -0.4 10.6 2 16.5 0 25.9 13 11.6 30.9 18.4 41.4 32.4 -12.9-1.4-21.7-17.9-36.2-22 -33.4 10.5-72.2 10.3-80.2-25.9C236.9 37.3 248.3 26.1 258.6 14"/><path fill="#D7E0B5" d="M1661.2 21.8c-8 27.1 14 45.1 35 51.8C1709.3 45 1687.1 23.6 1661.2 21.8M1669 19.1c17.4 9.5 36.3 17.3 36.3 44.1C1726.6 41.9 1690.2-2.4 1669 19.1M1697.5 80c-21.9-12.6-48.6-28.4-41.4-62.1C1700.3-12.4 1736.1 55.8 1697.5 80"/><path fill="#F8C114" d="M2260.9 107.2c-7 3.6-3.9 23.5-2.6 31.1C2277.7 141 2268 111.7 2260.9 107.2M2277.7 125.4c7.9-8.2 2.1-33.2-10.4-33.6C2269.2 104.5 2271.1 117.2 2277.7 125.4M2247.9 95.6c9.9-2 19.6-10.5 16.9-20.7C2256 78.6 2247.5 82.6 2247.9 95.6M2281.6 69.7c-8.9 10.9 0.5 34 9 40.1 8.3-12 1.4-34.7-9.1-40.1M2270 49c-16-5-24.7 8-29.9 18.1C2254.2 70.4 2264.9 59 2270 49M2196.1 50.2c-1 4 2.3 3.8 1.3 7.8 7.5 3 16.4-1 18.1-7.7C2211.7 45.1 2201 48.7 2196.1 50.2M2258.2 41.2c-4.9-8.2-15.9-16.7-27.1-14.2C2234.4 36.9 2246.6 47.9 2258.2 41.2M2231 41.2c-2.7-8-18.4-21.1-25.9-11.6C2211.2 35.4 2220 44.7 2231 41.2M2214.2 63.2c11 10.1 24.8-4.7 29.8-13C2232.2 43.1 2216.7 52.7 2214.2 63.2M2439.6 54.1c-38-20.6-102-28.4-138.6 0 13.3 59.8-22.2 93.5-68.6 97.1 1.5-27.9 7.8-51 13-75.1 -23.5-7.9-53.6-10.2-67.4-31.1 5.6-24.9 35-28 66-23.4 24.3 3.9 38.8 22.9 53.1 24.8 14.3 1.9 38-13.4 54.4-15.5C2384.9 26.5 2415.6 39.6 2439.6 54.1"/><path fill="#D7E0B5" d="M1485.1 61.9c5.9-4.5 9.5-11.1 13-18.1 -8.1-4.2-14.1 3.8-19.5 6.5C1479.7 55.3 1479.6 61.3 1485.1 61.9M1499.3 38.5c4.4-3.2 7-14.1 3.9-20.7C1487.7 17 1485.3 36 1499.3 38.5M1408.7 56.8c29-22.4 19.3 34.3 51.8 20.8 2.6-2.6 2.3-8.1 5.1-10.4 2.9 2.6-4.6 11 0 15.5 6.8-3.2 10.8-9.1 15.5-14.2 0.1-3.7-10.1-3.6-11.6-1.2 -3.4-3.5 7.5-3.7 9.1-6.5 -5.7-13.1 6.4-16.1 11.6-22.1 -9-16.9 7.3-23.7 19.5-27.1 -4.5 47.8-13.5 91-57 99.8 7.3-6.1 25.9-7.7 24.6-18.1 11.8-5.5 24.5-22.4 19.4-36.2 -9.9 18.9-63.1 57.4-75.1 18.1 2.5-1.7 7.4-1.2 10.4-2.6 5.9-14-12.4-23.2-22-14.2C1408.8 58.3 1408.7 57.5 1408.7 56.8"/><path fill="#D7E0B5" d="M945 47.7c-30.7 10.6-35.6 72.1-2.6 82.9 35.6 11.6 63.5-12.2 67.4-31.1 5.5-26.9-5.2-44.6-18.1-50.5 -7.9-3.6-35.7-5.7-37.5 5.3 -3.1 18.4 41.1 14.4 45.3 10.4C986.3 83.5 942.3 72.7 945 47.7M942.4 43.8c23.9-11.7 55.6 0.4 63.5 11.6 47.3 68.4-78.5 118.3-92 50.5C908 76 925.4 52 942.4 43.8"/><path fill="#D7E0B5" d="M1232.5 133.1c3.4-17-23.7-24.1-22-3.9C1216.8 131 1225.3 136.5 1232.5 133.1M1206.7 121.5c4-4.9 4.1-20.2-3.9-20.7C1196 103.8 1194.4 123.5 1206.7 121.5M1228.7 72.3c-11.9 2.9-19.1 10.3-22 22 8.4 3.5 17.6-0.6 22-5.1C1228.7 83.8 1231.9 76.9 1228.7 72.3M1235.2 69.6c6.5 21 40.1 13.5 36.3-11.6C1255.3 57.9 1244 62.6 1235.2 69.6M1312.9 55.4h-32.4c0.4 13.4 7.4 20.3 23.3 18.1C1308.4 69.3 1315.5 63 1312.9 55.4M1345.2 59.3c-6.6-2.4-15-3-24.5-2.5C1316.2 82 1346.9 82.4 1345.2 59.3M1376.3 65.8C1331 42.9 1364 108.3 1376.3 65.8M1310.3 39.9c28.9 3.5 53.4 11.4 73.8 23.4 -3.6 15.4-27.9 30.5-37.5 10.3 -9.4 11.5-25.1 7.5-29.9-5.1 -11.9 11.8-32.2 10.5-40.1-3.9 -5.6 14.9-21.6 29.6-40.1 16.9 -4.6 9.5-9.7 18.6-24.6 18.1 -3 5.4 1.3 9.4 2.6 14.3 17.9-1 23.8 9.9 24.6 25.9 -16 19.8-64.1 35.1-80.2 0 12.6 17 56.5 30.4 66 1.3 -0.5-2.9-7.1-1.2-6.5 1.3 -5.4-9.7-18-12.2-23.2-22 3.9-71.1 96.1-73.2 155.4-66 -10.6-7.5-26.9-9.4-42.7-11.6C1308 41.1 1310.3 41.6 1310.3 39.9"/><path fill="#D7E0B5" d="M1307.6 42.5c-79.2-10-170.6 9.1-151.5 93.3 -33-79.4 77.6-111.1 154.1-95.9C1310.3 41.6 1308 41.1 1307.6 42.5"/><path fill="#D7E0B5" d="M486.5 98.2c18 19.9-9.5 32-25.9 18.1C476.5 153.4 552 99.2 486.5 98.2M473.5 65.8c-9.5 0-13.2 5.8-15.5 13C467.9 85.3 478.8 77.3 473.5 65.8M465.8 37.3c-11.2 3.3-14.6 19.8-15.5 36.3 13.5 1.9 11.5-11.9 23.4-11.6 13.9 8.5-5.9 22.9-2.6 32.4 32.6-2.2 35.1-68.6-5.1-57M402.4 73.6c-1 5.8 1.8 7.8 1.3 13 -21.1-27.2 29.4-32.1 40.1-14.2 7.8-14.5 8-37.4 24.6-40.1 31.3-5.1 40.8 40.8 18.1 56.9 12.1 7.5 31.8 6.1 29.8 24.6 -2.6 24.8-54.9 22.5-64.7 1.4 -8-1.6-6.7 6.3-13 6.5 1.1-3.2 3.5-5.1 3.9-9.1 -6.5-6.9-24.4-2.5-29.7-10.4 2.1-3.6 5.9 1.9 10.4 0 0.9-7.7-6-7.7-6.5-14.2 -2.4-12.9 19.3-10.5 19.4-14.2 0.5-7.9-30.5-13-33.6 0"/><path fill="#D7E0B5" d="M1916.4 36c-1.7 18 25.5 20.4 27.3 3.9C1940.1 33.1 1923.2 31.4 1916.4 36M2004.5 89.1c-0.5-16.9-12.4-22.1-23.4-28.5C1964.1 72.4 1986.5 100.5 2004.5 89.1M1974.7 58c-4.7-8.2-13.5-12.5-24.6-14.2 -4.6 5.5-2.9 18.9 1.3 23.3 12.3 1.4 19.3-2.4 23.4-9.1M1983.9 156.3c-18.5-10.4-17.5-50.2 1.3-59.6 -3.2-11-14.4-14.1-15.5-27.2 -6.5-0.1-10.7 2.3-18.1 1.3 -4.6-4.4-4.6-13.5-9.1-18.1 -11.6 9.5-39.2-7.7-31.1-22 4.5-7.7 27.1-16.2 41.5-18.1 45.8-5.6 94.5 19.6 108.6 37.9 -25.9-23.5-93.2-50.7-133.4-23.4 35.3 16.6 75.1 28.5 85.5 69.9 -12-1.4-15.5 4.3-25.9 1.3 -17 9.5-18.4 45.3-2.6 57 -1.1-0.2-1.2 0.5-1.2 1.3"/><path fill="#F8C114" d="M68.2 58c2.8 17.5 21.3 19.4 22 38.9 18.5 0.1 25.4 11.8 32.4 23.3 25.4-5.1 29.8 10.8 41.5 19.4 7.1-9.2 16.9-16 25.9-23.2C144.4 101.9 103.2 83 68.2 58M169.2 90.4c9.3 19.3 33.6 23.4 59.6 25.9 -4.4 9.3-19.4 4.3-27.2 5.1 -20.4 2.3-29.5 14.1-38.9 27.3 -7.2-13.5-21.7-32.9-42.7-20.7 -3.6-14.4-13.4-31-32.4-22 -2.2-19.4-11.2-32-27.2-37.5 5.8-13-0.1-24.4-5.1-33.6 17.9 2.8 26.8 14.8 45.4 16.8 6.5-1.2 3.6-12 7.8-15.5 6.9 0.5 9.1 5.6 10.4 11.6 -6-6.9-10.7 1.9-13 6.5 -15.6 2.8-19.7-6-32.4-6.5 22.4 27.4 56.1 50.1 97.1 54.4 0.3-5.5-3.7-6.6-5.1-10.4 1.1-0.2 1.3 0.5 1.3 1.3 2.3 0.5 2.5-1 2.6-2.6"/><path fill="#D7E0B5" d="M1410 58c-28.9 21.5 0.4 62.5 41.5 53.1 -38.6 16.9-76.6-33.6-42.7-54.4C1408.7 57.5 1408.8 58.3 1410 58"/><path fill="#63A9A0" d="M2184.4 162.9c13.6-16.6 8.6-57.4-25.9-51.7 1.9 25.3-24.1 38.8-42.7 24.5 -31.5 32.9 40 54.4 62.1 31.1 -11.9 27.6-88.7 9.1-72.5-25.9 1.5-3.2 18.1-22.1 23.3-25.9C2166.2 87.9 2220.4 131.9 2184.4 162.9"/><path fill="#D7E0B5" d="M1790.7 80c-16.1 10.4-36.7 2.6-49.2-5.1 -20.9 10.9-15.2 54.9 11.6 54.4 -0.2 1.5-2.4 1.1-3.9 1.3 -57.1-17.9 5.4-94.5 42.8-51.7C1792.2 79.8 1791.5 79.9 1790.7 80"/><path fill="#F8C114" d="M1373.7 216c6.3 4.6 22.8 0.3 25.9-6.5C1392.7 203.8 1375.8 208.7 1373.7 216M1389.2 199.2c-10.6-3.1-27-1.2-29.7 7.8C1368.3 212 1386.8 208.7 1389.2 199.2M1350.3 188.8c-0.6 5 0.4 8.3 2.6 10.4 9.5-1.7 21.1-1.4 24.6-9.1C1373.7 183 1356.6 186.3 1350.3 188.8M1487.7 201.8c-18.2 3.9-35.5 8.5-48 18.1C1457.3 221.4 1487.7 217.9 1487.7 201.8M1461.8 179.8c11.9-13.4 34-9.1 40.1-27.2 -8.6-4-15.1 4.5-23.2 5.1 4.1-7.5 18.3-5.1 18.1-16.9 -13.2-1.1-14.4 9.9-25.9 10.4 -1.7-12 9.5-11.2 9.1-22 -15.1-6-15 13.1-18.1 23.3 5.9 2.6 2.6 6.5 7.8 9.1 1.1-1.1 7.3-3.7 7.8-1.2 -8.2 4-14.1 10.3-22.1 14.3 1-15 7.3-31.5 6.5-44 -16.5 4.1-18 44-10.4 55.8 -2.4 3.3-2.7 8.5-6.5 10.4 -5.7-15.5 1.5-36.2 1.3-54.4 -14.1 8.8-6.9 38.9-9.1 59.6 2.6 4.3 5.5-3.2 6.5 0 -2.1 0.1 1.4 5.4 0 9.1 20-8.9 52.4-5.5 57-29.7 -19.1 0.9-27.7 12.6-45.2 15.4 12.1-14.6 44.1-9.5 49.1-31.1C1488.6 160.2 1476 179.9 1461.8 179.8M1490.2 124c27.8 29.3 21.1 70.4-3.9 92 -14.1 12.3-33.9 12.3-51.7 19.4 -30 12 7.5 69.1 18.1 84.1 -16.9-15.5-35.9-45.7-31.1-82.9 -30.7-6.7-78.5-15.6-76.4-50.5 2.1-35.1 58.3-25.4 67.4 1.3 7.1-4 4.5-18 13-20.7 -0.6 19.4-4.1 42.1 6.5 53.1 2-18.1 3.4-49.1 1.3-71.2 11-16.2 26.8-27.6 57-24.6"/><path fill="#63A9A0" d="M1860.7 137c10.4-1.4 7-16.2 10.4-24.6 -4.9 1.9-2.5-3.5-6.5-2.6C1856.9 118 1865.7 126.7 1860.7 137M1863.3 155.2h-3.9c-8.9-31.1 6.1-56.6 18.1-75.1C1893.3 108.4 1869.5 132.8 1863.3 155.2"/><path fill="#D7E0B5" d="M1833.5 142.2c-15.2 0.6-29.7 0.4-29.7-14.2C1815.6 125.7 1829 132.8 1833.5 142.2"/><path fill="#D7E0B5" d="M610.9 266.5c3.8 2.8 6.5 6.4 14.3 5.1 6.3-6.2 10.9-14.1 11.6-25.9C622.9 238.3 607.6 248.7 610.9 266.5M604.4 166.8C594.5 198.5 640.9 172.3 604.4 166.8M640.6 236.8c1.3-7.1 5.5-20.1 0-25.9C613 205.4 615.8 245.9 640.6 236.8M640.6 203.2C635.5 157.7 597 214.5 640.6 203.2M578.5 335.2c11 2 15.9-15.4 19.4-24.6C579.5 301.4 562.6 332.3 578.5 335.2M604.4 304c8.5-1 13.5-13.9 14.3-25.9C594.5 261.5 580.4 307 604.4 304M644.5 148.7c-31-22.7-97.5-18.6-106.2 18.1 -8.5 35.9 15 60.8 49.3 40.1 10.3-6.1 16.5-24.6 5.1-36.2 -3.7-2.5-13 0.3-16.7-2.5 51.8-27.7 83.5 33.6 72.5 75.1 -2 7.6-13.6 15.1-7.7 25.9 -14.4 8.9-21.2 25.4-29.7 40.1 1.1 3.8 3.3-1.6 6.5 0 -13.9 11.6-22.9 28-40.1 36.3 -14.9-11.9-7.5-36.7 10.4-40.1 -2.9-20.6 5.1-30.4 16.9-36.2 -3.2-17.4 8.3-20.2 12.9-29.9 -5.6-17.2 8.5-39.5-9.1-49.1 -9.6 2.5-7.7 13.8-15.5 19.4 -29.6 21.4-66.5 5.3-62.1-32.4 5.1-44.6 75.8-61.4 111.4-33.6 -0.4 2.3 6.1 4 2.6 5.1"/><path fill="#F8C114" d="M1825.7 262.7c-0.2-8.1-19.7-12.4-25.9-13 -22.4-1.9-44.7 7.1-46.6 24.6C1766.6 290.7 1826.2 278.5 1825.7 262.7M1856.8 376.7c41.4-18.1 6.6-113.4-22-110.1 -10.4 1.1-22.4 29.8-23.2 42.8 -2 29.5 18.3 68.1 41.5 67.4 1 0 3 0.4 3.9 0M1853.1 384.4c-34-12.9-56.4-61.6-36.2-104.9 -20.7 4.6-57.1 14.4-73.9-5.1 9-29.7 59.4-37.4 86.8-19.4 25.1-35.5-6-82.7-25.9-102.4 18.8 12.9 35.3 32 38.8 63.4 1.9 16.9-4 35.8 3.9 47.9 11.8 18.3 33.5 35.6 35 64.8 1.1 24-11.1 42.1-28.5 55.8"/><path fill="#D7E0B5" d="M451.6 227.7c-3.5-22.4-7.4-44.5-19.4-58.2C428.7 193.9 435.3 218.7 451.6 227.7M460.7 247.1c-20.1-19-42.5-52.7-29.9-91.9 26.5 15.5 40.1 43.6 41.5 84.1C467.5 241.1 467.5 247.4 460.7 247.1"/><path fill="#D7E0B5" d="M1153.5 169.4c-5.1 24.6 10.1 46.8 15.5 60.9 -15.6-10.2-15.4-36.5-24.6-53.1 -6.7 27.3 4.1 58.8 31.1 60.9C1180.5 212.7 1174 177.8 1153.5 169.4M1145.8 157.8c27.1 8.5 46.5 60.3 27.1 86.8C1143.5 235 1128.4 191 1145.8 157.8"/><path fill="#D7E0B5" d="M1985 155.2c40.8 39 117.9 4.5 99.8-62.1v-2.6c26.9 67-61 112.1-101 66C1983.7 155.7 1983.9 154.9 1985 155.2"/><path fill="#F8C114" d="M2398.1 174.6c10.4 12.1 26.3 29.9 33.6 49.3C2441.9 195.6 2426.5 172.8 2398.1 174.6M2409.8 242c-5-23.9-13.4-44.5-31.1-55.7C2365.9 210 2380.9 243.3 2409.8 242M2389 183.7c10.6 17.9 16 41 31.1 54.4C2428 212.6 2411.8 182.8 2389 183.7M2408.4 251.1c-17-10.1-34.5-19.9-41.5-40.1C2356.8 238.6 2380 253.6 2408.4 251.1M2359.1 192.8c13.6-15.5 31.3-26.9 50.6-36.4 -1 5.4-9.1 3.8-9 10.4 33.6 4.8 52.6 45.1 25.9 76.4 -5 21-4 47.8-18.1 59.6 3.6-13.5 15.6-33.2 3.9-46.6 -46.6 4.5-57.5-27-53.1-63.5"/><path fill="#D7E0B5" d="M254.2 223.8c-3.8 4-4.5 25.4-0.9 35.6 8.8 24.8 45.5 16.8 55.2-0.9 6.9-12.5 7.4-45.7-8.4-47.7 -9.7-1.4-18.5 7.3-30.9 9.3C262 221.2 257.7 220.1 254.2 223.8M312.2 219.1c13.5 29.5-15.1 81.9-52.4 54.3 -27.4-20.2-9.8-65.6 16.9-67.4C290.4 205.1 306.5 206.5 312.2 219.1"/><path fill="#D7E0B5" d="M1704 235.5c27.3-2.9 46.9-13.6 58.3-32.4C1744.8 216 1718.3 219.7 1704 235.5M1729.8 190.1c9.3-9.4 33.3-8.4 45.4-5.1 -9.7 45-59.1 57.4-107.5 59.6 2.8-15 12.5-23 20.8-32.4 1 6.6-10.6 11.9-11.6 20.8 33-0.6 69.9-19.9 89.4-42.7 -6.9-8.5-27.9-2.5-36.2 0"/><path fill="#D7E0B5" d="M1217 221.2c-2.2-15.4 5-32 14.3-40.1 1.3 8.3-10.4 14.6-7.7 28.5 28.5-13 55.9-27 72.5-51.9 -14.7-6.9-32 3.6-42.7 9.1 6-10.5 31.8-19.2 53.1-14.2 0.9 9.1-5.7 10.6-6.5 18.1 -25.1 5.6-45.2 27.1-66 41.4 23.4 4.4 46.8-13.5 57-31C1283.7 206 1248.7 221.1 1217 221.2"/><path fill="#D7E0B5" d="M1876.2 231.6c16-9.9 14.3-37.6 33.6-44 5.9-0.7 4.6 5.8 9.1 6.5 26.1 2.9 43.8-15.6 40.1-35 -5.7-30.7-67-13.2-76.4 3.9 10.6-26.1 79.6-37.1 81.6 0 1.3 24.4-27.2 38.6-53.1 36.3 -6.1 9-3.6 26.6-13 32.4 9.6 13.1 2.1 27.5-10.4 32.4 -15.2-18.5-30.7-62.9-14.2-89.4C1869.7 190.8 1867 214.3 1876.2 231.6"/><path fill="#D7E0B5" d="M1602 44.7c-14.7-6.4-33.8-2.6-46.8 1.6 20.6-15.3 58-5.5 74.1 5.8 -3.2 10.6-14.4 17.6-25.8 10.6 -4.1 8.1-18.7 7.2-25.6 12.8 3.6 21-6.1 45.3-26.2 45.9 -30.5 0.8-26.1-56.4-5.4-66.8 -13.4 8.8-23.7 60.1 1.9 62.8 16.1 1.7 30.1-14 26-35.1 -0.9-3.6-6.1-2.2-5.9-7C1572.1 58.8 1594.9 58.4 1602 44.7"/><path fill="#D7E0B5" d="M2034.2 300.2c-15.5 24.6-62.6 17.6-95.9 24.6 5.4-28.6-21.5-45.6-15.5-75.1 6.8-33.5 43.1-38.6 80.3-47.9 -25.4 17.5-66.9 11.9-73.9 47.9 -4.2 22 7.4 41.8 18.1 55.8 5.6-15.2-5.6-32.6-3.9-49.2 3.9-37 65.1-25.5 75.1-59.6 1.9 38-62.1 24.8-68.6 54.4 -3 13.8 4.3 33 6.5 47.9 19.1-8.7 42.3-2 55.8-14.2 21.4-19.5-7.5-60.9 16.9-79 -17.1 19.1 5.3 56.6-9.1 77.8 -13.9 20.6-49.9 8.3-68.6 28.5 27.8 10.1 68.9 2.1 82.9-14.2V300.2z"/><path fill="#D7E0B5" d="M350.6 275.6c9.8-33 25.1-60.4 55.8-72.5C410.3 243.9 370.8 259.2 350.6 275.6"/><path fill="#D7E0B5" d="M2467.9 161.3c-17.6-29.6-27.2-59.5-15.3-90.2C2485.2 95.9 2469.6 135.3 2467.9 161.3"/><path fill="#D7E0B5" d="M973.5 315.8c2.6 10.8 19.6 7.1 32.4 7.8C1005 309.3 984.5 315.9 973.5 315.8M959.3 306.6c10.1 1.8 23.4 6.8 33.6 4C991.8 300.1 964.1 297.4 959.3 306.6M986.5 332.6c-3.1 13.8-3.1 41.5 14.3 35C998.3 353.8 1001.4 334.3 986.5 332.6M954.1 336.5c-3.4-10 2.4-29.1-9.1-31.1 -5.7 8.5-6.7 37.4 1.3 44 5.8 0.6 6.5-1.7 10.4 0 2.4 5.9 1.8 14.6 11.6 13 3.3-4.4-0.4-10.6 3.9-11.6 0.1 8.1-0.1 16.6 7.8 16.9 4.4-9.6 4.6-35-3.9-40.1 -4.9 1.1-2.2 9.8-5.1 13 -3-10 0-25.9-13-25.9 -3.5 5.1-1.1 16.1-3.9 22M908.6 258.9c3.1 15 15 21.3 28.5 25.9C940.8 268.9 918.6 261 908.6 258.9M911.3 240.8c-4.4 15.4 11.9 20.9 23.3 24.6C932.8 251.1 922.8 245.1 911.3 240.8M944.9 268c5.9-6.4 9-21.9 6.5-32.4C942.6 237.9 937.6 262.4 944.9 268M939.8 247.3c3.1-5 9.8-21.5 1.3-25.9C933.3 223.5 934.5 243.4 939.8 247.3M958 284.6c21 8.3 37.9 17 54.4 35 6.9 7.5 23.9 24.3 23.3 32.4 -0.6 9.3-23.4 20.4-33.6 22 -47.7 7.8-77.7-31.6-79-75.1 -57.9 0-88.5 27.1-116.5 57 21.4-36.5 59.1-56.6 108.8-64.7 -19.4-21.5-11.5-69.6 7.8-85.5C956 211.3 969.8 249.6 958 284.6"/><path fill="#F8C114" d="M2079.5 301.5c-6.6-2.2-12.9-3.4-20.7-1.2 -5.2 3.4-1.6 15.6-6.5 19.4 -5.1 0.9-5.2-3.4-10.4-2.6 -4.1 2.8-7.6 6.1-6.5 14.3 32.1-2.9 57.5-23.6 63.5-57 -5-1.4-9.5-3.4-16.7-2.5C2072.5 280.6 2082.7 295 2079.5 301.5M2136.5 296.4c26.5-28.1 20.4-97.5-31.1-86.9 -18.6 3.9-37.7 33.5-20.7 54.5 10-4.7 15.6 1.1 23.4 5.1 -1 22.3-19.4 27.3-20.7 49.3 -8.2-2.2-13.4 5.3-18.1 10.4 10.4 10.9 28.3-9.1 38.9-6.5 -18.4 12.8-45.4 16.8-73.9 19.4 -8.7-9.9-2.7-32.1 13-29.7 5.5-8.2 9.5-18.1 23.3-18.1 2.8-8 3.8-17.7 7.8-24.6 -31.1-62 70.4-88.5 77.8-25.9C2158.7 266.3 2148 284.3 2136.5 296.4"/><path fill="#D7E0B5" d="M208 233c3.1-10.3 3.9-30.2-5.6-35.1 -13.8-7.2-38.9 15.2-53.8-9.8C84.2 234.9 186.4 305.1 208 233M206.8 245.2c-24.8 45.6-93.4 15-83.7-28.8 3.3-15.2 19.8-35.8 34.7-39.8 42.5-11.3 66 37.2 48.8 68.5"/><path fill="#D7E0B5" d="M1017.5 203.1c-2.5-12.6-7.1-23.1-10.4-35 18.4 15 20.8 45.9 58.3 41.5 1.1 3.6 3.1 6.4 3.9 10.4h-2.6c-5.6-9.9-25.6-5.4-33.6-13 13.9 44.8 49.6 79 82.9 108.8 12.4-10.7 27.4-31.9 2.6-38.9v-2.6c8.3 5.3 19 7.8 24.6 15.5 -14.5 10.6-22 28.9-22 50.5 -11.1-9.7-29-18.5-49.2-11.6 -0.1-6-3.2-8.7-2.6-15.5 0.3-2.2-1.2-6.5 2.6-5.1 0 6.5 4 9 6.5 13 13.1-1.1 21.5 2.6 32.4 3.9 -27.7-38.7-62.7-70.1-86.7-112.6 -5.4-1.1-0.6 7.9-3.9 9C1016.3 218.1 1021.4 206.2 1017.5 203.1"/><path fill="#D7E0B5" d="M768.9 190.1c-16.9 12.5-33.9 24.8-45.4 42.8 4.8-18.6 25.3-32.6 42.8-42.7H768.9z"/><path fill="#D7E0B5" d="M2235 197.9c-2.9 11-12.5 15.1-18.1 23.3 8.1 12.6 3.9 27.5-6.5 35 -0.2-1.6-1.4-0.7-2.6 0 10.1-9.2 13.5-25.6 1.3-35 9.4-6.2 19.4-11.7 23.3-23.2H2235z"/><path fill="#D7E0B5" d="M642 143.5c51.3 28.4 30.5 110.8-2.6 143.8 23.5-29.2 50.5-107.9 5.3-138.6C648.1 147.5 641.6 145.8 642 143.5"/><path fill="#F8C114" d="M21.6 187.5c-26.4 54.3 56.8 71.9 77.8 36.3 1.1 3.5 2.9-3 5.1-2.6 -21.1 48.8-124.5 14.5-81.6-37.5C23.6 185.5 17.9 186.8 21.6 187.5"/><path fill="#D7E0B5" d="M1296 275.6c14.8-12 38.5-0.2 49.3 7.8 22.9-28.1-9.6-74.7-46.6-55.7 45.9-36.2 82.3 58.3 33.6 72.5 -0.4-1.7-3.2-1.1-5.1-1.2 28.6-9.2-7.9-30.7-28.5-22C1298.5 275.6 1297 275.9 1296 275.6"/><path fill="#D7E0B5" d="M1975.9 270.4c-0.4-15.5 14.8-15.5 20.8-24.6C2008.1 258.6 1988.1 268.8 1975.9 270.4"/><path fill="#D7E0B5" d="M2034.2 297.6c25.9-25.6-15.4-67.7 6.5-92 -12.5 27 22.8 72.5-6.5 94.6V297.6z"/><path fill="#D7E0B5" d="M1529.1 258.8c8.5 21.6-5 42.9-15.5 57C1541.4 317.8 1559.1 268.9 1529.1 258.8M1489 306.7c0.6-13.7 4-31.2 3.9-41.5C1476.9 266.7 1475.4 301.1 1489 306.7M1513.6 302.8c11.8-4 18-23.6 11.6-37.5C1516 272.4 1515.9 288.8 1513.6 302.8M1504.6 260.1c-5.5 7.8-13.7 29.5-5.1 38.9C1499.7 285.9 1509 269.2 1504.6 260.1M1511.1 239.3c17.8 12.4 46.6 26.3 36.3 55.8 -6.2 17.6-30.2 22.3-44 35 -41-19.2-29.9-72.5 7.8-90.6"/><path fill="#D7E0B5" d="M1566.7 402.5c-8.5-77.7 32.9-127.6 112.6-125.6 3.5 2.6 7.4 4.9 11.8 6.5 -70.2-11.9-131.9 32.9-121.7 114 -2 0.1-1.2 3.1-1.4 5.1H1566.7z"/><path fill="#D7E0B5" d="M709.3 353.3c32.6 22.1 38-41.6 5.1-32.4C713.4 332.3 710.3 341.8 709.3 353.3M768.9 240.7c-14.4 4.6-25.2 12.6-27.2 29.8C759.2 283.2 779.2 259.6 768.9 240.7M723.6 396.1c17.8 0 16.1-40.1-10.4-33.6C708.7 372.9 711.8 396.1 723.6 396.1M735.2 276.9c-9.9 1.5-13.7 21.6-15.5 34.9 5.4 5 16.4 9.1 24.6 3.9 7.9-13.4 7-41.2-9.1-38.9M766.3 190.1c42.3-33.2 114.6-9.2 115.3 44.1 0.6 52.4-83.1 91.4-103.6 28.5 -8.4 6.6-15.6 14.5-24.6 20.8 3.3 21.6-4.4 32.8-12.9 42.6 5 15.5-0.5 26.6-7.9 36.4 13.1 16.8 3.1 41.6-18.1 42.6 -35.9-26.4-37.9-120.9-5.1-152.7 -16.9 29.5-28.1 90.9-7.7 124.3 2.5-59.1 31.3-150.2 86.8-149 10.9 0.3 24.6 7.3 24.6 16.9 -6.6 4.1-25.7-4.5-29.7 7.8 7.1 76.3 119.4 28.4 86.8-41.5 -14.1-30.4-64.6-41-101-20.7h-2.6V190.1z"/><path fill="#D7E0B5" d="M2232.4 197.9c2.9-10.1-5-15.1-3.9-19.4 11.9-4.5 24.9-8 29.8-19.4 17.6 10.1 44.4 7 55.8-6.5 -1.6 11.1-8.4 17.9-5.2 29.8 2.1 7.9 17.6 12.9 7.8 18.1 -6-6.1-10.5-13.6-12.9-23.4 -38.1 34.5-58.1 86.9-92 125.6 8.6 5.9 23.6-1.5 32.4 5.1 10.4-17.2 21.3-34 42.8-40.1 -4.5-21.5-2.1-43.2 10.4-54.4 -7.1 10.5-13.4 38-3.9 55.8 -21.6 7.8-40 18.8-41.5 46.6 -20.2-12.9-49.5-4.1-64.7 6.5 7-15.4 39-40.6 10.4-53.1 0.6-7.1 6.6-9 10.4-13 1.1-0.7 2.4-1.6 2.6 0 -12.9 10.5 4.6 17.6 5.1 29.8 33.6-32.5 55-77.1 81.6-116.5 -30.4-4.2-44.4-2.5-60.9 13 0 5.6 0.5 11.6-1.2 15.5H2232.4z"/><path fill="#D7E0B5" d="M461.9 289.9c-17.7-3.4-37.9-11.4-58.2-7.7C410.8 298.1 447.2 300 461.9 289.9M384.2 274.4c34.4-8 75.3-3.9 94.5 14.3C452.3 308.2 397.1 300.9 384.2 274.4"/><path fill="#D7E0B5" d="M293.6 319.6c-33.5-32.7-87.7 0.5-111.4 20.8 19.4-24.7 73.8-56.4 107.5-27.2 -2.9 0.9 2.5 4.4 3.9 5.3V319.6z"/><path fill="#56A946" d="M126.5 337.8c-11.9-1-20.1 1.4-22 10.4 -6.5-10-25.7-14.7-33.6-2.6 -0.7-14.7-15.1-22.2-29.7-15.5 5.8-24.4-12-25.1-23.2-32.4 13.8 4.4 39.4 10.6 44-6.5 4.6-0.4 4.8 3.9 9.1 3.9 -7.7 1.8-13 6-19.4 9.1 13.1 10.1 38.1 8.5 54.4 15.5 -19.9 0.4-40.5-9.6-62.1-11.6 0.1 5.5 2.1 9 1.3 15.5 2.8 2.4 9.5 0.9 14.3 1.3 4.9 4.3 9.5 8.6 13 14.3 8.9-6.4 23-3.6 29.8 2.6 5.6-0.9 7-6 13-6.5C115.9 338.9 125.5 334 126.5 337.8"/><path fill="#56A946" d="M114.9 335.2c9.3-4.6 16.9 2.8 23.3 5.1 3.8-3.5 4.8-10 7.8-14.2 -12.1 1.4-26-0.7-40.1-3.9 16.8-1.7 43 2.8 57-5.1 -2.6-4.7-11.5-3.2-15.5-6.5 -1.7-4.6-3.7-9.2-6.5-13 -12.4 5.3-28.4 5-36.2-3.9 -8.4 4.6-22.4 9.9-33.6 3.9 9.8-0.9 26.9 2 32.4-6.5 9.3 8.6 28.3 10 40.1 2.6 0.5 17.8 18 18.3 31.1 23.4 -12.4 8.4-35.1 6.4-31.1 31.1 -6.9-2.2-8.9-9.4-16.9-10.4C125.5 334.1 115.9 338.9 114.9 335.2"/><path fill="#D7E0B5" d="M516.3 322.2c-21.4 1.9-46.4 11.4-63.5 22C478.2 346.1 504.5 338.1 516.3 322.2M535.7 311.9c-20 23.8-58.2 42.6-99.7 36.3C444.6 322.7 489 299.4 535.7 311.9"/><path fill="#D7E0B5" d="M376.5 337.8c-5.6-12.9-18.1-19-29.7-25.9C347.5 323.8 362.6 339 376.5 337.8M336.3 300.3c35.5 5 58.1 23 71.3 50.5C373.1 349.8 342.2 334 336.3 300.3"/><path fill="#F8C114" d="M1499.3 367.6c-19.1-10.6-29.7-29.9-45.4-44C1469.7 332.4 1485.2 352.7 1499.3 367.6"/><path fill="#D7E0B5" d="M1591.3 427.1c22.9 9 25-26.7 2.6-24.6C1589.5 407.1 1588.8 419.8 1591.3 427.1M1593.9 393.5c16.5 9.9 28.1-24 11.6-27.2C1598.7 372.4 1595.4 382.1 1593.9 393.5M1636.7 341.6c-13.9 0.4-21.9 6.8-24.6 18.1C1621.3 373.3 1644.7 357.4 1636.7 341.6M1569.3 397.4c0.9 9.9 10.1 11.5 11.6 20.8 7.9-41.9 30.8-98.5 80.3-77.7 2.1 9-7.6 6.3-9.1 11.6 -2.1 25.4 27.1 30.5 45.4 24.6 35.4-11.4 26.6-70.9 0-86.7 18 9.1 30.8 31.9 28.6 54.4 -4.2 43.8-69.5 52.8-81.6 10.4 -9.5 5.3-13.2 16-25.9 18.1 -1 12-5.1 20.9-10.4 28.5 15 17.9-1.9 35.1-18.1 40.1 -7.1-13.6-19.4-22.1-23.4-38.9h1.3c0.1-2-0.6-5 1.3-5.1"/><path fill="#D7E0B5" d="M1261 354.6c1.6 12.1 42.6 12.8 41.5-6.5C1294.5 339.1 1259.2 340.6 1261 354.6M1246.8 348.1c18-6.1 41-14.7 58.3-3.9 21.9 13.8 26 50.5 6.5 68.6C1271.2 450.4 1200.3 385.4 1246.8 348.1"/><path fill="#63A9A0" d="M286.9 128.2c1.6 12.1 42.6 12.8 41.5-6.5C320.4 112.7 285 114.2 286.9 128.2M272.6 121.7c18-6.1 41-14.7 58.3-3.9 21.9 13.8 26 50.5 6.5 68.6C297 224 226.1 159 272.6 121.7"/><path fill="#D7E0B5" d="M1773.9 375.3c3.8-4.2 6.1-18.5 1.3-23.4C1766.1 351.3 1763 375.3 1773.9 375.3M1789.4 376.6c-10.2 38.1-45.4-28.2-14.2-32.4C1789.5 342.3 1793.1 363 1789.4 376.6"/><path fill="#63A9A0" d="M2347 291.2c-22-16.6-49.5 11.5-54.4 35.1 -7.4 35.7 51.7 71 75.5 39.7 -39.6 42.1-105.4-24.1-66.5-68.6 10.9-12.4 29.5-14.3 44.6-11.5 -1.5 1.8-0.8 3.1 1.5 4.4L2347 291.2z"/><path fill="#D64326" d="M2433.1 367.6c9.9-1.7 10.5-18.2 7.8-28.5C2421 330.6 2420.1 363.2 2433.1 367.6M2429.2 394.8c-4.5-3.1 2.5-10.1-1.2-13 -8-6.4-19.1-1.5-19.4-13 -0.1-6.7 6.6-4.4 10.4-10.4 6.9-11.1 4.5-25.5 16.9-24.6 8 0.6 9.6 8.5 11.6 19.4 2.1 4.4 12 1 11.6 7.8 -10.6-4.4-18.6 2.6-18.2 13.1 10.8 5.5 18.3-3.4 20.8-10.4C2467.2 385.3 2427.4 372.6 2429.2 394.8"/><path fill="#D7E0B5" d="M1156.1 323.5c-8.7 19.8-13.5 43.5-13 72.5 -2.7-0.2-0.6 4.6-1.2 6.5 -6.7-28.9 1.9-62.1 13-81.6C1155.1 321.9 1154.9 323.5 1156.1 323.5"/><path fill="#D7E0B5" d="M175.7 471.2c14-1.6 7.5-26.6-5.1-24.6C167.6 454.5 169.5 468 175.7 471.2M171.8 437.5c17.9 7.5 28.9-31.6 9-35C173.7 409.3 170.7 426.8 171.8 437.5M209.3 367.5c-11.6 4.5-23.6 14.9-22 28.5C204.2 396.8 212 381.9 209.3 367.5M249.5 370.2c2.4-16-37.6-22.1-31.1 5.1C226.8 382.9 248.1 379.4 249.5 370.2M289.6 313.2c47.5 21.8 18 113.6-27.1 112.6 -17.5-0.4-35.1-15.3-32.4-40.1 -18.9-9.9-25.7 11.4-36.2 18.1 12 15.9-8.5 27.4-10.4 38.9 -2.4 14.3 12.8 33.8-10.4 38.9 -34.7-25.6-31.1-113.5 3.9-136 -18.9 20.4-29.1 66-19.4 95.9 12.9-16.5 14.5-44.4 29.8-63.5 16.6-20.7 66.6-44.2 70 2.6 -42.4 3.5-14 52.9 19.4 38.9 29.5-12.4 45.8-75.1 16.9-99.7v-1.2c-1.4-0.9-6.7-4.2-3.9-5.1"/><path fill="#D7E0B5" d="M1464.4 379.2c8.8 7.6 14.8 18 22 27.3C1494.7 391.8 1479 374.8 1464.4 379.2M1485.1 419.3c-10.6-7-3.9-31.5-20.7-32.4 -4.6-0.7-3.9 3.9-3.9 7.8C1438.5 353.6 1519.1 384.3 1485.1 419.3"/><path fill="#D7E0B5" d="M2250.5 355.9c-21.6-1.2-42.9 15.6-38.9 40.1C2237.7 402.3 2260.9 381.9 2250.5 355.9M2200 396c3.6-10.4 3.1-24.6-5.1-29.7 -20.4-0.4-28.5 18-24.6 37.5C2182.4 403.3 2192.2 400.8 2200 396M2207.7 402.5c-14.4-1.5-31.7 4.3-42.7 10.4C2158.6 461.2 2224.6 445.3 2207.7 402.5M2161.1 406.4c10.3-53.5-49.5-37.2-42.7 2.6C2129.1 413.4 2150.4 410.3 2161.1 406.4M2158.5 414.2c-14.5-2.7-32.2 2.1-47.9 2.6 -3 8.1-1.1 21.6 2.6 27.3 20.6 8.9 46.5-4.6 45.4-29.7M2011 388.4c-29.6 32.4 32.9 55.4 36.3 16.9C2037 397.8 2027.1 390 2011 388.4M2064.1 402.7c10.6 5.3 34 9 46.6 3.9C2114.5 352.9 2063.1 367.8 2064.1 402.7M2017.5 380.7c1.4 11 22.1 15 36.3 16.9C2089.5 365.4 2013.6 349.2 2017.5 380.7M2113.4 392.3c10.5-18.4 39.8-39.1 53.1-9.1 5.6-16.2 32.5-31.2 40.1-6.5 11-14 26.9-23.2 46.6-28.5 17.6 31.4-13 52.6-38.9 57 7.1 37.8-37.9 58-53.1 28.5 -14.1 6.9-32.7 27.4-50.5 14.3 -5.6-4.1-3.5-13.1-13-15.5 0.9-6.1 4.5-9.2 3.9-16.9 -11.5-6.2-31.1-4.2-44-9.1 -21.6 24.9 15.8 49.5 36.3 29.8 -8.4 16.8-50 11.9-49.2-13 -29.4 20.5-61-11.1-38.9-38.9 -3.2-10.6-14.4-13.4-16.9-24.6 7.5 3.8 9.9 12.6 18.1 15.5 15.8-13.6 51.4-27.2 59.6 2.6 15.9-18.9 45.3-14.4 46.6 14.3"/><path fill="#F8C114" d="M1805 405.1c11 2.9 14.4-16.4 5.1-18.1C1803.1 387.2 1802.4 399.4 1805 405.1M1801.1 415.5c-5.9-14.9 0.5-37.2 12.9-37.6C1834 377.4 1829.1 428.6 1801.1 415.5"/><path fill="#D7E0B5" d="M439.9 513.9c12.9-22.4 1.9-47.9 0-72.5 -3.4-44.4 34.8-84.5 80.3-79 32 3.9 73.8 35 77.8 77.8 4 42.8-33 75.9-72.5 77.6 -23.4 1-51.5-11.9-63.5 10.4 4.5-33.7 44-12.9 72.5-16.9 30.5-4.1 59.3-29 59.6-64.7 1-93.9-167.2-110-146.4 5.3 2.4 13.3 7.5 22 5.3 44C447.7 500.9 449.8 513.4 439.9 513.9"/><path fill="#D7E0B5" d="M1075.8 379.2c6.9 26 16.9 48.8 37.5 60.9C1111.9 413.8 1096.4 390.6 1075.8 379.2M1096.6 433.6c-12.6-12.9-15.1-35.7-27.2-49.2C1061.1 406.3 1081.7 434.8 1096.6 433.6M1065.4 362.3c24.9 20.9 53.8 44.8 53.1 86.8C1080.1 442.1 1053.9 411.1 1065.4 362.3"/><path fill="#D7E0B5" d="M490.4 477.6c38.3-1 61.4-36.7 44-73.9C501.3 407.4 474.7 442.1 490.4 477.6M476.2 411.6c-0.2-1 0-2.5-1.2-2.6 13.8-15.7 64.9-39.5 80.3-10.4 -5.5-1-6.1-6.7-14.2-5.1 11.4 46.3-4.6 89.3-55.6 88 -17.7-43.5 19.9-73.2 47.9-88C511.8 392 487.9 399.1 476.2 411.6"/><path fill="#D7E0B5" d="M886.7 467.3c-15.7 0.1-31.2 10.1-22 27.3 4.1 4.5 16.1 1.1 15.5 10.4 -12.7-2.7-26-0.7-32.4 6.5 -0.2 19.8 13.1 25.8 24.6 33.6C883.6 526.4 893.6 495.7 886.7 467.3M882.9 559.3c-8 14-21.6 22.5-41.5 24.6 7.4-11.6 22-16 25.9-31.1 -20.7-17.1-48.4 8.1-31.1 31.1 -19.2-14.6-4.2-43.4 18.1-42.7 -9.1-14.1-16.5-36.9 5.1-42.7 0.9-7.2-2.9-10.1-5.1-14.2 -81.6 7.9-61.6-105.5-7.7-115.2 36.1-6.5 66.5 17.6 73.9 55.8 -15.9-27.6-23.7-60.4-72.5-51.7 -54.4 9.5-59.7 126.8 3.9 104.9 15.6-5.4 21.5-28.5 5.1-36.2 58.9 2 37.4 92 14.3 120.5 2.8 4.4 6-1.7 9.1-1.2 1.3 0 1.5-1 2.6-1.2"/><path fill="#56A946" d="M2282.9 403.8c-27.4 35.4-2.7 93.8 42.8 92C2330 456.6 2312.1 417.8 2282.9 403.8M2275.1 473.7c-6.2-15-5.6-38.9-7.7-54.4C2257.7 433.8 2258.4 467.7 2275.1 473.7M2325.6 406.5c1.4 1.5 1.1 2.6-1.2 2.5 -8.5-5.9-19.1-16.1-33.7-11.6 19.8 24.8 38.6 50.4 41.5 92 3.3 0.3 4-2 5.1-3.9 1.3 0 1 1.6 1.3 2.6 -2.1 6.5-5 12.3-9.1 16.9 -28.2-13-77.5-19.2-72.5-66 3.4-32.2 40.3-65.5 68.6-32.4"/><path fill="#F8C114" d="M331.1 485.4c21.3 20.5 64.6 1.8 71.3-20.7C382.3 470.2 358.1 482.5 331.1 485.4M341.5 393.4c27.5-6.5 62.4 14.8 68.6 32.4 23.3 66.4-77.1 96.8-101 48C293.9 442.7 312.1 400.5 341.5 393.4"/><path fill="#D7E0B5" d="M1783 428.4c-7.1 33.1-48.4-23.2-11.6-20.7C1782 408.4 1784.7 420.2 1783 428.4"/><path fill="#F8C114" d="M29.4 429.7c3.9-4.4-1.2-17.6 2.6-22 3.8 7.5-1.9 24.3 3.9 29.8 12.5-4.2 10.1-23.5 10.4-40.1 3.8 2.3-1.2 13.3 2.5 15.5 0.1 16.1-4.7 27.1-14.2 33.8 -18.4-8.7-24-45.4-12.9-64.7 -0.2 1.5 0.3 2.3 1.3 2.5 -6.6 12.9-4.7 37.6 2.6 48C27.8 432.4 28.9 431.4 29.4 429.7"/><path fill="#D7E0B5" d="M469.7 498.4c1 0.3 1.5 1.1 1.3 2.6 -5.6 8.3-11 8.9-19.4 14.3 23.8-25.1-1.2-83.6 23.3-106.2 1.4 0 1 1.6 1.4 2.6 -18.6 19.1 1.4 61.3-11.6 85.5C465 498.9 467.7 498.1 469.7 498.4"/><path fill="#D7E0B5" d="M520.2 424.6c-13.1 2.8-20.1 11.9-20.7 27.3C514.8 451.9 521.5 436.7 520.2 424.6M495.6 460.8c-3.7-23.2 14-35.9 28.5-45.4C531 436.9 514.1 456.2 495.6 460.8"/><path fill="#D7E0B5" d="M1833.5 428.4c29.4-35.4 110-31.4 117.9 20.8 6 39.9-15 65.9-38.9 82.9 1.9-3.7 1-1.5-2.6-1.2 44.9-17.5 57.3-116.6-7.7-121.7 -25.5-2-55.6 3.8-67.4 22C1835 429.6 1834.5 428.7 1833.5 428.4"/><path fill="#56A946" d="M2337.3 485.4c12.5-24.9 4.6-62.7-13-76.4 2.4 0.1 2.8-1 1.3-2.6 20.1 12.6 30.1 58.6 13 81.6C2338.3 487 2338.5 485.4 2337.3 485.4"/><path fill="#D7E0B5" d="M2455.1 425.8c2.5 1.4 10.3-1.6 11.6 3.9 0.3 4-0.9 9.5 1.3 11.6C2491.2 436.1 2456.2 403.5 2455.1 425.8M2424 468.6c-5.9-4.9-12.7-8.9-16.9-15.5C2380 459 2418.1 492.1 2424 468.6M2394.2 454.3c-10.4 2.1-13.7 11.3-13 24.6 8 9.3 17.5 17 35 16.9 4.6-4 9.6-7.6 10.4-15.5 -15.7 0.4-37.5-1.4-32.4-25.9M2440.9 493.3c17.9 15 45.8-18.4 27.3-31.1 -0.6 18.9-25.9 27-31.1 6.5C2433.6 476.7 2439 486.3 2440.9 493.3M2444.7 476.5c3.4 1.4 8 1.5 13 1.3 11.3-10-4.2-24.2-16.9-18.1C2440.7 466.6 2442.9 471.5 2444.7 476.5M2435.6 497.2c-3.2 26.8 42.1 20.6 50.5 5.1 -2.2 18.6-40.9 23.5-54.4 7.8 -1.9-5-2-11.9-3.9-16.9 -17.6 13.8-48.9 0.4-51.7-16.9 -3.9-23 22.4-35.9 51.8-32.4 -5.1-18.1-23.6-23-37.5-32.4 23.1 0.3 28 18.6 44 25.9 5.4-26 36-66.9 53.1-20.7 -6.4-18.6-41.9-24.5-40.1 5.1 6.1 2.6 7.1-9.9 14.3-10.4 12.4 5 22.1 16.3 18.1 33.6 0.1 3.3 4.4 2.6 7.8 2.6 -0.5 6-1.6 7.5 0 13 -3.6 1.1-3.4-1.9-6.5-1.2 -3 25-16.9 49.6-45.4 37.5"/><path fill="#63A9A0" d="M640.7 425.8c3.4 0.5 3.9 3.9 7.8 3.9 15.3-13.5 1.5-46-6.5-57 0-2.4 1-2.7 2.6-1.2 12.9 14.5 22 48 7.8 67.4 -7.6-1-9.7-7.5-14.2-11.7C638.4 426.1 639.2 425.6 640.7 425.8"/><path fill="#63A9A0" d="M2032.9 541.1c0.3-40-13.4-77.2-46.6-88.1C1984.9 494.1 2004.9 525 2032.9 541.1M2038 521.7c4.3-22.4-3-44.5-19.4-50.6C2026.7 486.5 2030 506.4 2038 521.7M1995.4 533.4c-22.2-12.4-26.2-62.2-14.2-89.4 47.5 9.3 72.4 52.4 60.9 108.8 -5.7 3.8-11.4-2-18.1-1.2 -3.1-3 2-3.5 2.6-6.5 -18.5-19.5-35.9-40.1-44-69.9 -8 21.5 4 45.1 13 58.3"/><path fill="#D7E0B5" d="M1227.4 450.5c0.5-2.9 6.4-0.5 9.1-1.2 10.4 1.3 20.5 2.9 27.3 7.8 -4.9 4.5-15.6 0-20.7 6.5 -27.5-5.7-69.7 5.8-94.5 15.5 1.3 5.3 10.8 2.3 14.3 5.1 -1 2.9-7.2 0.5-10.4 1.3 -6.6-0.7-13.4-1.4-18.1-3.9 1.9-12.7 14.3-15.1 22-22 1.5-0.2 2.3 0.3 2.6 1.3 -3 2.6-6.9 4.3-7.7 9.1 25-1.7 54.4-10.2 80.3-15.5C1230.5 452.5 1229.2 451.2 1227.4 450.5"/><path fill="#D7E0B5" d="M1540.8 532c-9.9-14.4-13.9-34.5-16.9-55.7C1520.1 499.7 1523.1 526 1540.8 532M1574.4 538.5c12.5-27.9-3-69.5-24.5-80.4C1559.9 483.2 1577.1 500.9 1574.4 538.5M1534.3 467.3c-11.5 25.8-1.2 61.9 22 68.6C1550 512 1544.9 486.9 1534.3 467.3M1568 541.2c5.3-29-7-62-24.6-76.5C1544.8 491.8 1553.6 522.7 1568 541.2M1534.3 449.2c45.4 0.8 63.9 80.9 35 111.4C1530.9 545.8 1498.4 489.8 1534.3 449.2"/><path fill="#63A9A0" d="M105.8 438.8c-15 15.3-31.2 29.3-45.4 45.4 0.5-2.2-1-2.5-2.6-2.6 16-15.1 32.8-29.4 46.6-46.6C104.2 437 105.7 437.2 105.8 438.8"/><path fill="#D7E0B5" d="M1487.7 464.7c-37.2-2.9-63.4 57.6-50.5 86.8C1470.5 540.7 1490.5 503.2 1487.7 464.7M1491.5 462.1c2.5 42.8-19.6 82.9-57 94.5 -30.2-30.9 8.8-75.1 24.6-99.7 12.4 0.1 25.6-0.6 32.4 5.1"/><path fill="#63A9A0" d="M1732.4 515.2c18.1 10 26.5-24.6 5.1-22C1742.6 504.7 1733.3 506.1 1732.4 515.2M1649.6 526.8c-13.4 49.3 86.4 57.3 63.5 10.4 -3.7 43.5-72.4 11.9-47.9-22 -9.5-0.4-11.1 7-15.5 11.6M1670.4 472.5c-2.1-2.1-7.6-1-11.6-1.2 -7.9 5-7 24 7.8 20.8 -2.2-10.2 1.5-11.6 3.9-19.4M1636.8 473.8c-6.4 26.9 32.6 41.1 42.5 20.6 -21 10.3-40.5-6.9-27.1-25.9 8.5-6.4 23.1 1.1 31.1-1.2 -9-17.4-41.6-7.1-46.6 6.5M1684.6 506.1c-9.9 1.5-22 18.5-18.1 32.4 6.4 23.3 57.3 20.6 37.5-11.6 -6.1 0.9-5 8.8-11.6 9.1 -15.2-2.4-10.9-17-7.7-29.7M1701.4 499.7c-12.9-0.9-21.7 24.4-10.4 31.1C1702.9 529 1701.3 513.5 1701.4 499.7M1754.6 536c18-4.5 19.6-45.1 3.9-53.1 -10.5 1.6-27.5-3.2-33.6 2.6 43-8.2 32.6 53-3.9 31.1C1726.6 527.8 1741.1 539.5 1754.6 536M1738.9 435c-12.9 11.6-24.4 24.9-31.1 42.8 19.6 1.5 49.3-9.2 60.9 7.8 11.1 16.4 0.9 51-14.2 54.4 -17.7 4-22.9-10.9-36.2-14.2 26.9 88.3-121.1 31.6-62.1-14.2 -9.1-10.7-28.2-14.4-27.2-32.4 0.6-10.4 18.3-24.1 31.1-25.9 20.1-2.7 28.9 13.3 40.1 22C1716.1 464.7 1718.4 440.8 1738.9 435"/><path fill="#D7E0B5" d="M1043.4 554.1c27.8 17.4 75.1 5.1 68.6-31.1 -3.9-21.6-49.5-32.5-57-3.9C1102.3 517.7 1078.6 560.9 1043.4 554.1M1057.7 546.3c19.4 9 31.8-26.5 2.6-20.7C1063.9 535.1 1067.8 541.1 1057.7 546.3M1027.9 541.2c9-0.9 14.6-24.9 0-23.4 -5.9 2.1-8.6 22 0 23.3M1038.3 512.6c0.4-46.5-44.4-0.4-20.7 20.8C1021.2 523.2 1020.6 508.7 1038.3 512.6M1068.1 485.3c2.9 1 0.5 7.3 1.3 10.4 1 0.6 2.1 1.4 3.9 1.3 18.1-0.1 33.4 4.5 40.1 15.5 23.4 38.3-40.5 69.9-77.6 45.5 -2.4 19.1 13.5 31.5 22 44 -18.6-1.4-20.2-30.6-33.6-41.5 -26 5-45.1-1.5-54.4-16.9 4.9 1.1 6.3 5.9 13 5.1 3.8-3-1.9-7.6 0-13 3.8-4 11-4.5 16.9-6.5 -1.2-32.1-51.6-29.5-36.2 7.8 -16.4-12.7 1.8-44.9 24.6-35 6.8-10.9 3.5-31.9 14.3-38.9 1.3 0 1 1.6 1.3 2.6 -7.6 13.5-12.7 44.4 2.6 53.1 -3.7-36 44.4-43.9 36.3 1.3 15.1-5.2 16.8-23.9 25.9-35"/><path fill="#63A9A0" d="M104.5 434.9c0.8-2.7 3.8-4.1 1.3-6.5 -29.9 5.5-43.1 27.6-53 53.1h5.1c1.6 0.1 3.1 0.4 2.6 2.6v3.9c30.6-1.2 49.9-20.9 49.3-49.2h-3.9C105.7 437.2 104.1 437 104.5 434.9M47.5 493.2c4.8-35.9 27.1-65.2 67.4-69.9C122.4 465.5 89.4 495.9 47.5 493.2"/><path fill="#D7E0B5" d="M469.7 498.4c39.4-9.1 87.8-11.4 99.8-47.9 4.4-13.4-1.9-27.1-5.2-41.5 33.1 58.1-33.2 93.8-93.2 92C471.2 499.5 470.7 498.6 469.7 498.4"/><path fill="#D7E0B5" d="M212 545c0.6-21 10.9-32.2 14.3-50.5C214.2 502.5 206.5 528.1 212 545M227.5 558c11.6-11.2 12.1-33.6 14.3-54.4C230.2 514.9 231 538.5 227.5 558M239.1 567.1c14.3-15.9 29.8-53 9.1-73.9 -3.9 26.3-7.2 53-16.9 73.8 -0.6 2.1 7 2.1 6.5 0 3 4.8-8.4 6.3-6.5 14.3 14 2.8 23.4-10.2 31.1-18.1 -3 16-25.4 23.8-44 28.5 -27.7-34-7.4-95.7 16.9-119.1 38.5-0.2 55.3 57.6 32.4 86.8 8.9-19.6 10.4-67.2-14.2-75.1 10.5 24.3 10.9 70.3-14.2 82.9"/><path fill="#D7E0B5" d="M2137.8 504.8c15.6 18.9 29.8 62.6 18.1 92 4.1-36.4-5.6-69.2-20.7-90.6C2136.6 506.1 2136.8 505.1 2137.8 504.8"/><path fill="#D7E0B5" d="M94.1 533.3c16.9 14.8 63 7.5 68.6-13C138.8 523.6 116.1 528.2 94.1 533.3M95.4 526.8c21.3-3 43.3-5.1 58.4-14.2C134.3 508.3 102 510.1 95.4 526.8M81.1 534.6c10.3-27.4 56.9-33.7 89.4-23.4 2.1 33.4-63.7 41.4-89.4 23.3"/><path fill="#D7E0B5" d="M1058.9 51.9c16.9 14.8 63 7.5 68.6-13C1103.6 42.2 1080.9 46.8 1058.9 51.9M1060.2 45.4c21.3-3 43.3-5.1 58.4-14.2C1099.1 26.9 1066.8 28.7 1060.2 45.4M1045.9 53.2c10.3-27.4 56.9-33.7 89.4-23.4 2.1 33.4-63.7 41.4-89.4 23.3"/><path fill="#D7E0B5" d="M2135.2 506.1c-2.7-2-3.9-5.6-9.1-5.1 10.9 31.3 31.3 64.6 22 107.5 4.4 0.9 4.8-2.1 5.1-5.1 2.1 10.1-10.4 27.4-22 32.4 -5.2-2.5-6.1-9.5-9.1-14.2 4-0.1 3.8 4.1 9.1 2.6 33.6-33.1 4.5-109.2-20.7-132.1 -14.4 11.5-18.7 33-18.1 59.6 -3.5 0.9 0.9-6.1-2.6-5.1 -0.4-27.6 6.5-47.9 19.4-62.1 11.8 4.6 22.6 10.1 28.8 20.5C2136.7 505.1 2136.5 506.1 2135.2 506.1"/><path fill="#D7E0B5" d="M309.1 543.7c4.8 15.1 59.1 6.8 58.3-11.6C357.2 517.1 302.7 523.1 309.1 543.7M293.6 551.4c24.5-73.6 154.9-0.7 89.4 53.1 16.6-16.1 20.9-59.7-5.1-68.6 -15.2 13.5-52.4 29.3-75.1 11.6 -4.4-0.5-3.9 3.9-6.5 5.1C295.2 552.4 295 551.4 293.6 551.4"/><path fill="#D64326" d="M796.1 541.1c-16.9 9.5-32.9 50.8-15.5 69.9C794.7 596.7 794.2 567.7 796.1 541.1M787 611c23.5-1 26.6-39.1 15.5-55.7C797.5 574 794.8 595.1 787 611M796.1 530.7c25 21.4 24.9 92.3-20.7 89.4C760.2 587.9 778.1 549.4 796.1 530.7"/><path fill="#D7E0B5" d="M880.3 560.5c27.1-29.4 48.6-77 41.5-132.1 12.6 54.3-10.5 104.9-38.9 130.9C881.8 559.5 881.5 560.5 880.3 560.5"/><path fill="#D7E0B5" d="M1404.8 592.9c3.8-14.7 0.6-44.5-11.6-51.7C1393.5 556.8 1396.2 581.2 1404.8 592.9M1375 539.8c-6.9 1.4-10.5 17-10.4 23.4 0.4 17.6 14.8 43.3 32.4 38.9C1395.3 586.3 1395.9 535.7 1375 539.8M1411.3 596.8c-39.9 48.1-76.6-75.6-16.9-62.1C1409.4 546 1409.8 571.9 1411.3 596.8"/><path fill="#D7E0B5" d="M1829.6 572.2c-6.2-8.9-15.9-14.2-31.1-14.2 -9 3.6-14.2 20.8-6.4 29.8C1808 590.8 1823.3 583.1 1829.6 572.2M1865.8 543.7c-1.1-11.7-32.6-17.7-41.4-9 -13.6 13.4 2.6 28.1 11.6 36.3C1842.7 561.9 1867 556.3 1865.8 543.7M1875 535.9c6-6.1 11.1-13 13-23.4C1856.8 485.4 1830.1 532.9 1875 535.9M1912.5 532.1c-29.7 29.4-72.1 46.1-110.1 67.4 -22.6-3.6-24.6-39.1-3.9-46.6 5.6-0.9 7.3 2.3 13 1.3 7.1-13.2 8.1-32.5 32.4-28.5 2.4-2.7 0.9-9.5 1.3-14.2 4.5-9.7 18.6-12.2 29.8-11.6 -37.2-1.6-70.9-39.4-41.5-71.2 1 0.3 1.5 1.1 1.3 2.6 -36.2 45.9 53.3 88.9 59.8 32.4 21.9 30.8-12.4 63.8-22 88 -7 2-15.1 3-15.5 11.6 19.6-3.7 37-20.9 53.1-32.4 3.6-0.1 4.5-2.5 2.6 1.3"/><path fill="#63A9A0" d="M2421.4 602c-5.5 4.4-8.6 6.9-13 7.8 -66 13.6-56.7-79.9-5.1-82.9 17.4-1 30.9 6.8 41.5 15.5 -9.7-4-21.9-13-37.6-12.9 -53.7 0.1-62.4 91 1.3 77.8 4.5-1 6.3-2.4 11.6-6.5C2419.9 601.7 2420.7 601.9 2421.4 602"/><path fill="#D7E0B5" d="M1196.3 572.2c0.6-7.7 8.1-17.6 1.3-24.6 -20.1 26.5-56.9 68.4-31.1 112.6 9 8 25.5 15.5 37.5 23.3 4.9 3.1 8.8 10.8 14.3 11.6 13.5 2.4 24.8-11.7 38.9-15.5 3.4 0 1.6 1 1.3 2.6 -14 8.4-30.9 14-42.7 24.6 -1.6-3.9-3.7-7.5-5.1-11.6 -20.6-18.4-53.6-25.4-58.2-57 -6.7-45.4 30.1-63.7 41.5-97.1 10.9 1.5 8.1 9.5 13 15.5 18.8 23.6 65.5 19.4 68.6 58.3 0.3 1.5-0.2 2.3-1.2 2.6 -9.2-30.9-41.2-39-68.6-51.7 1.8 30.1 48.4 33.6 41.5 72.5 -3.6 0.3 1.1-8-2.6-7.7 -6.7-26.1-27.4-38.2-46.7-51.7C1194.8 578.9 1197 574.1 1196.3 572.2"/><path fill="#D7E0B5" d="M1228.6 761.3c-10.2-1.7-10.7-9.7-18.1-13 -17.1-7.4-31.9-4-44-9.1 -36-14.9-71.6-58.7-67.4-106.2 5.4-59.2 58.8-70.7 77.8-120.5 -8.1 51.8-64.6 59-72.5 114 -11.9 82.1 57.3 108 120.5 123 49.8-21.2 116.8-63.7 92-141.1 -11-34.2-39.4-57.4-71.2-68.6 -18.7-6.6-37.9-7.9-40.1-33.6 15.6 30.1 61.5 31.6 86.6 55.8 43 41.4 42.8 117.1-1.4 155.5C1270 735.3 1239.6 736 1228.6 761.3"/><path fill="#56A946" d="M442.5 802.7c-9.2 17.5-19.7 33.8-22 58.3 30.9 35.3 123.3 8.5 86.8-45.2C483 815.5 464 797.2 442.5 802.7M534.5 797.6c30.5-34.7-24.4-73.6-63.5-68.7 -6.5 21.8-21.4 41.6-22 64.8C467.8 803 517.1 817.2 534.5 797.6M463.3 728.8c-20.5-23.2-97-34.2-88.1 16.9 4.5 25.8 43.4 30.4 59.6 47.9 -14.2-0.5-16.9-8-28.5-9.1 -45.9-4.1-34.7 54.9-11.6 71.3 6.8-0.2 14.6 0.8 19.4-1.2C428.8 811 454.3 778.1 463.3 728.8M487.9 665.3c-18.5-11.9-73.9-27.9-75.1 5.3 -1 25.3 29 47.3 57 49.3 4.4-19.7 16-32.4 18.1-54.4M565.6 665.5c17.6-29.2-18.4-55.9-50.5-40.1 -6.2 10.1-13.9 19-14.2 35C517.4 666 553 686.5 565.6 665.5M494.4 599.5c-56.7-16.5-54.9 67.9-2.6 59.6C503.9 642.2 514.1 615.2 494.4 599.5M547.5 558c-15.6-4.2-51.2 31-40.1 54.4 8.9 8.8 32.9 5.4 42.8 0C557.5 601.1 562.4 562 547.5 558M551.4 735.3c16.1-6.2 19.3-40.6 5.1-51.7 -21.9-3.2-39.9-17-59.6-18.1 -9.7 16.5-17.5 35.1-22 57 21.1 7.9 47.6 17 76.4 12.9M560.4 677.1c18.8 20.6 10 66-23.4 64.8 15.6 26.8 7.4 67.1-22 71.3 -0.6 7.5 3.6 10.3 5.1 15.5 6.5 59.4-64.9 60-103.6 41.5 -7 5.6-3 22-9.1 28.5 -7.6-8.2 4-19.1 1.3-31.1 -38.2-7.1-56.6-76.9-13-90.6 -7.6-14.9-27.6-18.5-27.2-37.5 0.5-21.5 22.9-37.5 50.5-37.5 -19.4-27-8.5-55.5 25.9-58.2 -4.1-29.5 11.3-48.9 35-50.5 22.9-1.5 15.6-1 29.8-16.9 10.6-11.9 29.9-17.9 40.1-27.2 16.6 12.1 12.4 48.4 3.9 66 11 11.1 22.6 21.4 19.4 46.6 -3.2 6.3-10.2 8.8-13 15.5"/><path fill="#D7E0B5" d="M621.2 576.1c-6 6.6-0.1 22 9.1 22C629.7 588.3 629.4 578.3 621.2 576.1M667.9 669.3c1.8 15.5 14.3 27.1 14.3 40.1 -7.9-4.6-7-18.1-15.5-22 -1.9 11.4 1 28 9.1 33.6 29.6-7.1 33.5-72.9-5.1-72.5 -3.5 8.3 5.9 12.4 7.8 19.4 -3.2 0.8-10.1-4.7-10.4 1.3M653.7 623.8c-4-15.4-4-34.9-18.1-40.1C637 601.8 639.4 618.8 653.7 623.8M740.4 538.6c-8.5 43.6-38.9 65.5-67.4 89.3 39.1 18.8 39.6 101.9-13 106.3 -16.5-24.9-24.7-66.2-6.5-95.9 -25.1-15-55.6-24.6-53.1-67.4 41.4-7.1 51.6 27.8 70 47.9 36.9-13.1 54.4-45.7 69.9-80.2"/><path fill="#D7E0B5" d="M2034.2 586.4c-12.1-6.2-31.4 0.9-33.6 13C2010.2 593.4 2026 593.7 2034.2 586.4M2061.5 604.6c-20.4 8.1-42.9 14.1-57 28.5C2024.8 647.4 2072.1 637.3 2061.5 604.6M1986.3 625.3c27.5 1.1 52.8-11 66-28.5C2026.7 588.7 1989.5 598.4 1986.3 625.3M1978.6 630.4c-4.2-43 68.3-69.6 88.1-32.4 5.5 10.4 3.1 30.1-1.2 38.9 -13 25.6-74.9 9.3-86.7-6.5"/><path fill="#F8C114" d="M1654.7 659c-48-39.2 26.3-102.6 58.3-49.2 0 0.9-0.1 1.6-1.2 1.4 -15.7-3.4-44 11.4-59.6-3.9 -15.2 8.6-5.6 42.8 3.9 50.5C1656 658.5 1655.9 659.2 1654.7 659"/><path fill="#D7E0B5" d="M1447.5 634.4c-4.4 27.3 4.9 58.9 23.4 63.5C1463.1 676.6 1457.8 653 1447.5 634.4M1452.6 624c6.9 30.3 11 63.4 31.1 80.3C1477 674 1465.8 648.1 1452.6 624M1507.1 659c-0.9-22.1-9.9-47.1-29.9-54.4C1489.5 620.4 1497.8 640.2 1507.1 659M1441 607.1c-12.1 34.4-8.2 88.8 23.4 98.5C1441.3 687.2 1440.1 641.9 1441 607.1M1465.6 605.9c10.8 34.1 33.3 56.5 37.5 97.1C1508.8 662.6 1493 621.7 1465.6 605.9M1495.4 712.1c4.9-47.2-21.4-81.4-40.1-105C1464.8 646.1 1480.3 678.9 1495.4 712.1M1499.3 730.2c-59.6-5.6-92.1-92-50.5-141.2C1510.8 588.1 1530 682 1499.3 730.2"/><path fill="#D7E0B5" d="M1862 614.9c3.9-9 11.1-14.9 13-25.9 6.1 0.4 2.3 10.6 5.1 14.3 11.9 14.6 31.9-1.9 49.3-1.2 -12.1 19.8-1 42.8 9 55.6 -20.1 3.1-38.2 8.3-42.7 27.1 -24-8.1-49.2-2-58.2 15.5 -13-13.6-40.7-12-51.7 2.6 -20.2-19.9-53.1-3.7-71.2 7.8 12.5-25.5 46.9-21.2 71.3-35 -1.5 6.3-10.6 4.9-13 10.4 11 25.1 43.4-15.7 62.1 7.8 13.4-9.4 31.3-22.5 54.4-14.2 10.1-11.9 24.3-19.7 40.1-25.9 -4.7-13-13.4-22-10.4-42.7 -48 13.8-85 45.4-126.7 61 30.4-20.5 67.3-34.5 97.1-55.7C1883.5 607.3 1869.8 609.9 1862 614.9"/><path fill="#D7E0B5" d="M76 665.4c-58 24.1-69.6-42.6-60.9-92 0.6 41.8-2.9 113.5 60.9 90.8V665.4z"/><path fill="#F8C114" d="M1215.7 644.7c2.9-14 0.8-33.4-11.6-36.2C1199.2 621.5 1200.6 643.8 1215.7 644.7M1215.7 655.1c-18.5-9-23.1-34.7-15.5-59.6C1216.7 601.7 1228.4 636.3 1215.7 655.1"/><path fill="#D7E0B5" d="M61.8 603.3c0.6 10.6 2.9 19.6 13 20.8C81.6 614.1 73.9 602 61.8 603.3M54 595.5c11.6 2.6 20.3 8.1 27.1 15.5 0.5 7.4-2.2 11.5-1.2 19.5C60.8 629.3 61.3 608.5 54 595.5"/><path fill="#F8C114" d="M1246.8 638.2c-1.2 22.5-12.2 35.3-32.4 38.9 -13.4-19.7-35.7-29.7-35-55.7 0.5-15.2 12.4-32.9 16.9-49.2 0.8 1.9-1.5 6.8 1.3 6.5 -3.1 12.8-12.2 24.6-12.9 40.3 -2.1 47 63.8 75 59.5 11.6C1247.9 630.2 1243.2 638.5 1246.8 638.2"/><path fill="#D7E0B5" d="M296.2 552.8c-21.7 52.8 39 80.5 81.6 57 -37.2 35.1-112.9-4.2-84.2-58.2C294.9 551.5 295.2 552.5 296.2 552.8"/><path fill="#D7E0B5" d="M937.2 598.1c39-5.9 76.9 8.6 99.8 27.3 -0.1 1.5 1.9 2 0 2.6 -25.6-16.7-55.6-29.1-99.7-27.2V598.1z"/><path fill="#63A9A0" d="M2433.1 638.2c-2.2 12.3 7 12.8 10.4 19.4 -4.1 1.4-9.4 1.9-11.6 5.1 -0.5 7.4 2.3 11.6 7.8 13 15.8-22.1 11.5-76.6-9.1-89.4 -2.6 2.6-4.4 5.9-3.9 11.6 1.1 2.8 8.3-0.5 9.1 2.6 -16.2 6.1-14.9 33.6 9 29.9C2441.7 633.9 2434.7 633.5 2433.1 638.2M2448.6 675.7c-2.6 4.3-6.5 7.3-13 7.8 -2.1-10.4-11.2-20-1.2-28.5 1.1-20.7-20-33-7.7-51.7 -0.4-1.7-3.2-1.1-5.1-1.2 -0.7-0.1-1.5-0.2-1.2-1.2 4.3-8.5 6.5-19 1.3-27.2 27 12.9 37.5 61.3 25.9 93.3 -4.4 2.8 1.8 6 1.3 9.1"/><path fill="#D64326" d="M160.2 693.9c3.3-27.6-6.1-53.2-20.7-67.4C123.1 648.7 135.7 689.1 160.2 693.9M145.9 621.4c3.3 20.9 20.6 39 19.4 68.6C185.1 670.6 175.4 622.3 145.9 621.4M165.3 701.7c-32.4-7.2-46.5-54.9-25.9-85.5C182.2 615.8 186.3 674.6 165.3 701.7"/><path fill="#D7E0B5" d="M2412.4 648.6c-3.9-13.7-28.2 8.3-40.1-2.6 -2.7 5.1-1 15.3 0 20.8C2390.6 679.9 2417.9 668.2 2412.4 648.6M2372.3 670.6c-26.6-31.1 38.8-52 42.8-19.4C2417.6 672.5 2392.6 679.7 2372.3 670.6"/><path fill="#D7E0B5" d="M42.3 648.6c16.1 14.3 41.9 1 57-5.1 0.9-15.2 6.5-25.2 3.9-40.1 -6.7-37.4-60-12.5-75.1-41.5 10.4 16.5 31.4 10.9 50.5 14.3 28.6 5 32 33.4 25.9 66 20.1-11.6 17.5-57.6 0-69.9h1.3c28 16.1 12.5 57.6 2.6 81.5 -17.9-3.1-19.4 10-32.4 11.8v-1.2c6.4-2.6 11.5-6.6 15.5-11.6 -15.2 0.1-38.1 13.8-50.4-2.7C40.8 648.9 41.6 648.7 42.3 648.6"/><path fill="#F8C114" d="M223.6 639.5c-3-0.1-19.4 11.6-19.4 31.1 0 63.5 121.1 59.5 106.3-11.6 -3.1-14.1-15.6-21.4-20.9-20.7 -11 1.3-13.2 17-32.4 18.1C235.8 657.7 235.8 640.2 223.6 639.5M205.5 691.3c-37-65 92.3-85.9 108.8-36.2 10 29.9-17.1 56.1-32.4 62.1C248.4 730.4 216.8 711.2 205.5 691.3"/><path fill="#D7E0B5" d="M1037 625.3c23.3 15.4 42.6 54.9 27.3 89.4 -0.7-0.1-1.5-0.2-1.2-1.2 10.4-35.4-5.9-68.7-26-85.5C1038.8 627.3 1036.8 626.8 1037 625.3"/><path fill="#F8C114" d="M1656 657.7c31.6 27.9 83.8-10.9 55.8-46.6 1.1 0.3 1.3-0.5 1.3-1.2 34 36.9-28.4 83.6-58.2 49.1C1655.8 659.2 1655.9 658.4 1656 657.7"/><path fill="#D7E0B5" d="M1371.1 705.6c4.8-10.6 4.3-28.2 1.3-40.1C1338 659.1 1343.1 708.8 1371.1 705.6M1261 831.2c-6.4-22-45.7-21.6-45.4 6.5 87.9 11.6 128.9-56.5 152.9-121.7 -13.5-15.7-49.7-7.5-42.7 20.8 3.9 8.6 16 9 16.9 20.8 -15-15.4-48.2-9.7-49.2 11.6 -0.6 15.6 16.8 15.9 13 32.4C1285.5 776.5 1244.1 799.7 1261 831.2M1343.9 824.7c23.3-26.6 43.1-69.9 35-119.1 -1.4 10.3-10.2 17.1-7.7 27.3 -30.9 44.5-64.2 112.8-134.7 114 -15.9 0.3-36.6-2.7-41.5-16.9 28.8 6.4 30.9-41 2.6-45.4 -61.1-17.4-68.2 71.8-27.2 82.9 -66.7-10.5-10.6-130.1 42.8-77.7 6.1 6 7.4 13.4 13 22 8.6-1.4 16-1.4 24.6 0 6.1-16.7 18.6-31.1 44-24.6 -12.5-24.4 4-40.9 27.3-44 -4.2-23.5 7-37.5 25.9-41.5 -6.1-10.9-3.9-27.5 2.6-36.2 7.3-4 16-6.5 27.3-6.5C1393.7 717.6 1382.5 797.2 1343.9 824.7"/><path fill="#F8C114" d="M2084.7 665.4c-0.4-1.4-2.6-0.9-2.6-2.6 43-5.1 84.5 26.6 77.8 71.3h-1.2c-0.7-23.6-6.9-47.9-24.6-53.1C2115.1 675.4 2095 682.4 2084.7 665.4"/><path fill="#D7E0B5" d="M838.8 675.8c-12-1.6-22 27.1-25.9 38.9C840.8 731.8 858.6 678.4 838.8 675.8M899.7 658.9c-16 8.6-23.2 26-47.9 26 -0.9 23.6-23.6 43.4-46.6 32.4 5.3-38.7 20.9-67.2 46.6-85.5h1.3c-13.7 16.4-32.1 28.4-35 55.6 15-14.9 29.6-29.9 50.5-38.9 1.1-0.1 1.3 0.5 1.4 1.4 -6.7 6.8-24.6 9.3-24.6 19.4 0 22.3 53.3 0.8 51.8-15.5C895.6 657.9 899.1 656.9 899.7 658.9"/><path fill="#F8C114" d="M1275.3 614.9c11.5 23.3 3.1 59.8-16.9 67.4 0.3-1.6 2-2.6-1.2-2.6 17.8-8 21.5-36 16.9-62.1C1275 617.2 1275.5 616.4 1275.3 614.9"/><path fill="#D7E0B5" d="M1198.9 513.9c4.4 32.1 37.4 32.4 62.1 46.6 33.5 19.3 65.3 80.6 29.8 125.6 -18.1 23-54.6 21.6-68.6 53.1 -6.4-22.9-41.1-18.2-59.6-28.5 -21.6-12-44.7-50.1-41.5-84.1 5-52.6 62.1-64.9 71.3-115.2 -6.2 61.3-90.2 77.6-59.6 159.3 10.5 27.9 34.3 36.6 69.9 45.4 5.5 1.4 13.6 6.6 18.1 6.5 23.3-0.9 39.9-26.5 62.1-32.4 35-43.5 14.6-102.9-22-124.4C1235.2 550.5 1194 551.5 1198.9 513.9"/><path fill="#D7E0B5" d="M2317.8 687.5c13.8-8.4 12.3-25.4 19.4-41.5C2324.1 653.2 2319.8 669.2 2317.8 687.5M2351.5 637c-15.6 12.4-24 43.3-29.7 69.9C2343.5 695.5 2349.2 667.8 2351.5 637M2316.6 718.6c-9.4-42.9 9-79.7 37.5-93.2C2358 662.7 2344.1 704 2316.6 718.6"/><path fill="#F8C114" d="M2246.6 624c8.8 9.3 30.1 17.4 38.9 2.6C2275.1 624.6 2254 612.5 2246.6 624M2330.7 583.9c-10.7-3.1-24 2.6-34.9 3.9 5.1 9.6 26.8 4.3 34.9 1.3V583.9zM2332 570.9c-11.6-0.7-21.5 0-23.2 9.1C2316.1 581.5 2331.7 580.7 2332 570.9M2211.6 614.9c9.5-16.7-10.6-35.4-22-38.9C2194.6 592.7 2204.5 603.4 2211.6 614.9M2201.2 555.2c9.5-6-3.4-19.9-10.4-22 -3 7.3 6.9 11.9 7.8 19.4 -4.2-1.4-4-7.1-10.4-6.5 -0.5 10 7.4 11.6 9.1 19.4 -4.1 0.6-2.9-4-7.7-2.6 1.8 14.5 15.4 10.3 22 18.1 4.8-11.9-7.2-17.6-10.4-25.9M2223.4 586.5c6.6 1.4 5-12.2 9.1-9.1 -2.1 9.6-8.4 15-9.1 25.9 12.3-2.4 11.1-18.1 18.1-25.9 2.8 14.3-16.5 23.9-14.2 37.5 19-3.4 21.8-32.4 16.8-51.7 -2.9-3.4-4.2 4-7.7 0 2.1-4.5 8.3-17-1.2-18.1 -6 4.4-3 17.6-10.4 20.8 2-12.7 16-34.4-1.2-40.1C2220.6 542.7 2213.4 572.6 2223.4 586.5M2213 515.2c-2.2 9.8-2 27.8 0 37.5C2220 548.4 2223.2 516.6 2213 515.2M2207.9 538.5c3.1-8.6-0.4-21-1.2-29.7 -3 0-3.7-2.2-7.7-1.2 0.8 12.6 4 22.8 9.1 31.1M2260.9 613.6c12.8 7.5 45.8 17.4 51.8-1.2C2296.9 613.4 2270.9 601.6 2260.9 613.6M2277.7 602c8.6 5.4 49.1 13.3 47.9-6.5C2310.5 600 2285.4 588.6 2277.7 602M2302.4 555.4c-1.6-1.7-5.6-1.2-9.1-1.2 -4.9 6.4-5.6 23.8-11.6 24.6 0.1-5.9 5.1-7 3.9-14.2 -10.7 1.3-10.1 14-16.9 19.4 1-11.1 10.1-14.1 10.4-25.9 -11.9-1.6-8.4 12.3-15.5 15.5 -1.1-4.6 3.4-6.6-1.2-7.7 -6.4 9.3-14.6 21.8-10.5 37.5 -2.5 6.8-17.6 7.1-14.2 15.6 15.8-0.7 18.6-14.4 26-23.4v7.8c8.6 0 7.1-10.1 13-13 2.5 0.5 2.4 3.8 6.5 2.6 6.9-5.2 8.4-15.7 15.5-20.7 -1.7 1.6-1.7 6.1 0 7.8 10.4-6.5 20.8-12.9 25.9-24.6 -10.9-8.6-18.5 4.6-23.2 10.4 -0.9-4.7 2.3-5.5 1.3-10.4M2187.1 522.9c7.5-1 3.8 9.1 11.6 7.8 4-11.1-13.9-16.2-6.5-31.1 31.4 7 46 30.9 55.8 59.6 26.6-5.7 51.5-13.2 86.8-10.4 3.8 13.5 0.8 25.6 1.3 41.6 -9.1 27.9-39.1 35.1-59.6 51.8 -25.5 5.8-37.4-15.5-55.6-13 -36.4 5-13.5 87.3 0 106.3 -16.4-22.5-32.1-60.6-19.4-92 8.1-19.9 9.8-14.6-2.6-33.6 -14.6-22.6-22.4-55.5-11.6-86.7"/><path fill="#D7E0B5" d="M72.1 819.6c-1.2 12 16.5 23 27.3 27.3C124 825.1 75 791.8 72.1 819.6M147.2 859.7c11.6-31-37.9-33.1-38.9-7.7C115.2 860.1 134.7 861.4 147.2 859.7M203 842.8c-9.1-25-57-17.5-45.4 16.9 37.6-4.7 68.6-16 84.1-42.7 -20-16.2-50-0.7-38.9 25.9M91.5 855.8c10.9 42.9 86.6 49.5 136 37.5 47.8-11.6 102.4-65.5 93.3-115.2 -6.2-34.4-86.6-58.7-104.9-14.2 -14.1 34.5 17.1 48.6 41.5 44.1C233.4 855.3 152.6 877.1 91.5 855.8M191.2 824.7c7.8-7 14.3-15.1 23.4-20.7 -35.6-82 110.4-88.2 112.6-16.9 0.8 24.4-19.4 57.3-36.2 72.6 -42.9 39.1-126 58.6-185.2 28.5 -22.4-11.4-24.6-44.5-41.5-66 9.4-27.7 47.4-17.4 46.6 13 14.3-7.1 27.4-7.1 38.9 2.6 12-6.5 21.6-22 41.5-13"/><path fill="#D7E0B5" d="M1007.2 666.7c1.8-12.9-24.7-22.7-38.9-24.6C938.7 671.1 1004.4 686.9 1007.2 666.7M959.3 638.2c-12.2-7.1-40.1-4.1-51.7 1.3C896.2 681.2 962.9 668.5 959.3 638.2M1018.9 697.9c-1-9.1 0.4-20.4-7.9-22 -14.1 3.3-6.2 28.9 7.8 22M1064.2 714.6c-5.4 26.6-36.5 66.1-68.6 48 -23.6-13.4-37-60 1.3-67.4 0.5-6.5-0.7-11.2-2.6-15.5 -23.5 3.1-32.9-7.7-40.1-20.7 -14.2 10.1-42.6 18-54.4 0 -0.5-2-4.1-1.1-2.6-5.1 0.1-4.2 4.5-8 1.3-11.6 -9.7-2.6-19.7 5.1-28.5 7.8 -0.1-0.7-0.2-1.5-1.2-1.2 43.5-28.9 127-22.2 149 22 6.4 12.9 13.1 47.4-1.2 57 5.8-36.2-39.6-29.9-41.5-6.5 -1.4 17.6 17.8 39.8 35 41.5 31.4 3 43.4-27.1 53.1-49.2 -0.2 1.1 0.5 1.3 1.3 1.3"/><path fill="#D7E0B5" d="M928.2 776.8c0.1-10.1-6.7-26.5-14.2-27.2 -7.9-0.6-19.1 16.4-35 18.1 -22.2 2.6-25.9-6.5-42.7-10.2C810.7 838.2 927.4 848.3 928.2 776.8M867.3 739.3c14.3 0.1 28.5 6.8 37.5 7.8C904.2 734.4 875.6 731.7 867.3 739.3M834.9 753.4c21.1-37.7 91.9-23.7 95.9 18.1 6.9 71.8-97 75.9-103.6 13C825.9 772.8 828.7 762.6 834.9 753.4"/><path fill="#D7E0B5" d="M582.4 867.5c29 2.8 44.8-8 40.1-38.9 -13.1 3.6-11 22.9-24.6 23.4 -19.5 0.6-17.6-27.1-7.7-41.5C562.6 809.2 561.8 860.4 582.4 867.5M595.4 765.1c-18.7 2.3-18.4 38.5 2.5 35 -0.1-7.1-7-7.6-6.4-15.5 9.8-14.6 22.1 2.6 32.4 6.5C625.6 777.4 608.9 763.6 595.4 765.1M630.3 814.4c4.3 11.1 18.6 20.8 31.1 18.1 22.6-4.6 9.6-42.5-18.1-34.9C662.9 811.6 653.1 829.5 630.3 814.4M610.9 831.2c-4.5-1-5 1.9-9.1 1.3 -4.6-2.2-6-7.7-10.4-10.4C573.9 844.6 613.4 855.2 610.9 831.2M613.5 809.2c-8.9 0.5-15.7 9-11.7 18.1C612.5 828.7 618.8 815.6 613.5 809.2M639.4 859.7c43.3 30.4 88-63 33.6-75.1 -8.4-1.9-16.5-0.5-24.6 2.6 -1 0.3-1.5 1.1-1.2 2.6 11.8 7.4 31.5 11.4 29.8 29.8 -2.1 23.5-31.9 17.4-46.6 7.8C625.4 840.2 631.5 854.2 639.4 859.7M640.6 780.7c24.6-3.4 54.6 2.9 62.3 27.1 1.6 34.1-18.6 61-49.2 60.9 -8.6 0-17.5-10.5-25.9-10.4 -15.4 0.4-24 19.5-45.4 14.3 -29-7.1-28-54.9 0-67.4 -26.4-40.2 35.4-57.6 47.9-24.6 11.4-2.9 13-15.5 27.3-15.5 -5 5.8-14.6 7-16.9 15.5"/><path fill="#D7E0B5" d="M1109.4 102c-21.9-2.1-33.8 6-30.3 29.4 9.9-2.7 8.3-17.3 18.6-17.7 14.7-0.5 13.3 20.5 5.9 31.4C1124.3 146 1125 107.4 1109.4 102M1099.6 179.3c14.2-1.7 13.9-29.1-1.9-26.4 0.1 5.4 5.3 5.8 4.8 11.7 -7.4 11-16.7-2-24.5-4.9C1076.7 170.1 1089.4 180.4 1099.6 179.3M1073.2 142.1c-3.2-8.4-14.1-15.7-23.5-13.7 -17.1 3.5-7.3 32.1 13.7 26.3C1048.6 144.2 1056 130.7 1073.2 142.1M1087.9 129.4c3.4 0.8 3.8-1.4 6.9-0.9 3.5 1.7 4.5 5.9 7.8 7.8C1115.8 119.3 1086 111.2 1087.9 129.4M1085.9 146c6.7-0.4 11.9-6.8 8.9-13.7C1086.7 131.2 1081.9 141.2 1085.9 146M1066.4 107.8c-32.7-22.9-66.5 47.6-25.4 56.8 6.3 1.4 12.5 0.4 18.6-2 0.8-0.2 1.1-0.8 0.9-2 -8.9-5.6-23.8-8.6-22.5-22.5 1.6-17.8 24.1-13.1 35.2-5.9C1076.9 122.6 1072.3 112 1066.4 107.8M1065.4 167.5c-18.6 2.6-41.3-2.2-47-20.5 -1.2-25.8 14.1-46.1 37.2-46 6.5 0 13.2 7.9 19.5 7.8 11.6-0.3 18.1-14.7 34.3-10.8 21.9 5.4 21.2 41.5 0 50.9 19.9 30.4-26.7 43.5-36.2 18.6 -8.6 2.2-9.8 11.7-20.6 11.7 3.8-4.3 11-5.3 12.7-11.7"/><path fill="#D7E0B5" d="M1612 787.2c26.9-3.4 59.4-12.2 77.8-28.5C1659.1 758.4 1631.3 771.9 1612 787.2M1612 775.6c15.8-2.1 37.8-8.9 47.9-20.7C1639.5 759.8 1622 759.8 1612 775.6M1696.1 763.8c-29.9 13.3-63.6 22.8-95.7 33.8C1641.6 800.8 1677.3 787.2 1696.1 763.8M1709.1 761.2c-28 24.1-72.1 50.5-124.4 37.6 16.5-33.7 80.8-66.2 124.4-37.5"/><path fill="#D7E0B5" d="M981.3 861c-6.2-19.2-9.5-41.4-16.9-59.6C957.3 823.5 964.9 858.3 981.3 861M994.3 874c-35.7-3.5-47.1-57.6-28.5-88.1C987.3 796.6 1001.5 838.6 994.3 874"/><path fill="#D7E0B5" d="M652.2 110.6c1.4-20.2 6.7-41.9 6.7-61.6C644 66.8 638.1 101.9 652.2 110.6M659.4 127.5c-31.8-16.6-22.1-71.1 6.6-92.4C681.9 53.2 679.4 97.4 659.4 127.5"/><path fill="#D64326" d="M2145.6 898.6c30 10.1 54.3-15.7 44-38.9 -2.6-6.1-10.4-5.7-16.7-11.6 -12.4-11.2-15.7-28.7-20.7-41.5C2101.7 811.9 2128.8 877.2 2145.6 898.6M2118.3 908.9c-5.2-12.1 10.9-10.6 13-22 2.6-14.6-14.7-31.5-13-50.5 1.8-18.4 14.4-29.5 32.4-35 2.8-2.9 3.5-7.6 6.5-10.4 31.6 6 44.4 30.8 48 64.8 -14.6 17.3-13 43.8-35 49.3C2148.7 910.3 2128 885.6 2118.3 908.9"/><path fill="#63A9A0" d="M1062.9 774.2c-14.5 7.6-22.4 40.8-14.2 58.3C1055.9 815.6 1060.9 796.4 1062.9 774.2M1057.7 833.9c12.5-9 22.1-40.4 13-58.2C1064 792.6 1058.6 810.9 1057.7 833.9M1052.6 853.2c-26.9-26.4-5.2-82 19.4-95.9C1092.2 788.7 1068.5 833.1 1052.6 853.2"/><path fill="#D7E0B5" d="M2255.7 815.7c11.9 11 19.5 26.3 35 33.6C2291.4 831.7 2274.8 813.6 2255.7 815.7M2288 862.3c-8.2-20.2-20.1-36.9-44-41.5C2241.2 847.2 2257.7 864.9 2288 862.3M2299.7 850.7c10.3-28.5-27.4-66.9-50.5-45.4C2276.2 810.3 2291.2 827.2 2299.7 850.7M2295.8 866.2c-43.7 4.5-61.9-23.5-55.6-64.7C2277.2 773.9 2324.3 832.4 2295.8 866.2"/><path fill="#D7E0B5" d="M1566.7 898.6c15.1 0.1 33.5 3.5 47.9 0C1618.5 857.1 1559.3 859.4 1566.7 898.6M1679.3 885.6c2-47.1-76.1-31.6-55.6 13C1645.7 897.7 1664.8 893.9 1679.3 885.6M1685.8 881.7c21.4-6.6 40.8-15.4 53.1-31.1C1723.5 817.9 1674.4 838.7 1685.8 881.7M1757 873.9c0.4-8.2-7.7-20.7-5.1-23.2 2.1-2.1 24 6.9 35 5.1 29.8-4.6 9.3-38-14.2-28.5 -8 3.3-12.9 17.5-22 24.6 -14.6 11.4-37.1 15.9-46.6 31.1 14.9 17.8 51.9 16.4 53.1-9.1M1774 818.2c-0.5-14.4-28.5-24.9-37.5-7.7 0.9 14.8 0.5 30.5 11.6 35C1756.3 837.6 1774.5 831.2 1774 818.2M1803.8 810.4c-17.7 7.4 1.9 14.8 3.9 24.6 4.4 21.6-20.7 28.9-45.4 22 5.1 37.5-30 50.6-57 33.6 -10 29.8-45.6 59.6-68.6 23.3 -6.2 1.5-9 6.5-13 10.4 -0.2-5.9 7.8-14.6 15.5-16.9 9.5 36.8 64.5 18.4 54.4-20.7 -36.9 14.3-79 19-128.1 18.4 -3 7.6-1.6 21.1 3.9 24.6 -7.9 1.4-10.9-13.2-10.4-24.6 -11.1-8.4-38.9 0-47.9-10.4 12.8-1.5 29.8 2.8 45.4 2.6 5.1-26.9 39.9-51.5 57-19.4 8.5-20.6 42.5-37 63.5-15.5 9.6-17.5 24.6-43.2 53.1-29.7 -3.9-29.1 19.3-45.9 42.8-27.2 11-11.4 11.1-33.9 27.3-40.1 1.5-0.2 2.3 0.3 2.6 1.3 -15.1 7.4-21.9 29.9-19.4 50.5 9.6 1 11.6-5.6 18.1-7.7 1.5-0.2 2.3 0.3 2.6 1.3"/><path fill="#F8C114" d="M2440.9 787.2c26.6-2 36.4 12.8 36.3 37.5 -12.7-2.4-21.5-8.7-33.6-11.6 -3.6 0.6-2.4 6.3-3.9 9.1 -3.1-2.9-2.9-9.2-7.7-10.4 -3.6 3.3 0.3 16.9 5.1 11.6 1.9 7.1-7.7 13.9-14.2 16.9 -16.1-16 1-44.6 11.6-54.4 -1.1-10.2-2.5-40 0-18.1C2435.1 774.4 2436.4 783.4 2440.9 787.2"/><path fill="#63A9A0" d="M1862 827.3c-22.1-3.9-34.6 42.5-14.2 54.4C1849 860.1 1854.1 842.3 1862 827.3M1862 903.7c30.8 15.3 40.6-69.6 3.9-67.2C1853.1 843.7 1846.7 896.2 1862 903.7M1856.8 823.5c40.4-10.1 49.6 90.5 9.1 85.5C1838.7 905.6 1818.8 833 1856.8 823.5"/><path fill="#F8C114" d="M793.5 827.3c6.6 8.1 11.3 18.1 22 22C814.5 836.5 803.6 826.8 793.5 827.3M809 866.2c-23.5-4.1-31.4-23.9-35-47.9 -40-9-44.2 56.6-19.4 80.3 24.8 23.5 77.5 12.6 67.4-37.5C815.4 860.5 816.1 867.3 809 866.2M828.4 866.2c2.9 32.1-18 52.4-49.2 49.3 -22.9-2.4-46.5-32-46.6-54.4 -0.1-19.7 10-46.5 28.5-49.2C792.4 807.2 825.9 838.7 828.4 866.2"/><path fill="#D7E0B5" d="M2355.4 853.2c-14.6-1.2-29.6-24.9-32.4 3.9 -3.1 33.8 53.5 41.3 60.9 13C2390.6 844 2371.1 854.5 2355.4 853.2M2387.8 872.6c-14.2 27.9-70.4 23.8-69.9-11.6C2318.4 820.7 2395 820.9 2387.8 872.6"/><path fill="#D7E0B5" d="M1179.4 874c64.8 16.9 123.5-14.6 160.6-45.4C1307.4 863 1241.8 897.7 1179.4 874"/><path fill="#F8C114" d="M1941 908.9c-10.4-10.7-23.5-18.7-27.2-36.2C1906.5 889.2 1920.3 924.7 1941 908.9M1931.8 845.4c-21.7-2-16.5 58.9 11.8 51.9C1947.3 882.9 1946.2 846.8 1931.8 845.4M1933.1 841.5c19.1 3.8 24.6 71.1 3.9 76.4C1899 927.7 1901.6 835.3 1933.1 841.5"/><path fill="#D7E0B5" d="M565.3 244.7c-11.5 9.6-20.4 22.1-38.1 24.5C543.1 277.7 579.6 266.4 565.3 244.7M501.3 249.2c-3.6 21.5 57.5 20.7 52.6-7.9C539.9 236.5 503.8 234.9 501.3 249.2M497.6 247.6c5.1-18.8 72.7-19.4 76.5 1.7C581 288 489 278.6 497.6 247.6"/><path fill="#D7E0B5" d="M868.6 857.1c12.6 17.6 31 29.5 54.4 36.3C916 871 893.1 857.7 868.6 857.1M934.6 897.2c-32.9 18.3-79.5-4.2-79-44C893.4 846.4 919.4 873.1 934.6 897.2"/><path fill="#D7E0B5" d="M694.2 181.8c20.5-7.2 37-21.5 50.1-42C720.8 140.3 701.7 158.5 694.2 181.8M751.2 129.8c8.3 36.7-26.4 75.1-64.4 63.4C690.8 155.1 723.8 137.6 751.2 129.8"/><path fill="#63A9A0" d="M1438.5 859.7c4.8 15.5-8.5 23.3-18.1 28.5 2.6-8.1 12.6-9 13-19.4 -39.4-0.1-81 20-104.9 44 28.4 7.9 67.3-4.5 85.5-19.4 -15.1 19.1-60.5 31.3-98.4 23.3 -3.5-18 12.4-27.2 23.4-35 -6.9 7.9-14.6 14.8-19.4 24.6C1352.3 894.3 1388.3 863.2 1438.5 859.7"/><path fill="#D7E0B5" d="M1022.7 894.7c22.9 5.6 55.4 8.5 82.9 5.1C1092.5 879.4 1039.9 874.9 1022.7 894.7M1026.6 905.1c15.4 10.6 60.4 21.6 75.1 2.6C1077.1 908.1 1048.2 899.2 1026.6 905.1M1008.5 898.6c24.9-31.2 92.1-22.1 112.6 6.5C1095.5 931.2 1029.9 923.4 1008.5 898.6"/><path fill="#D7E0B5" d="M1995.4 889.5c24.9 19.3 72.8 6.1 62.1-37.5 1-0.2 1.5-1.1 1.3-2.6 16.6 40.6-34.2 67.3-60.7 45.3C1998 892.1 1994.4 893 1995.4 889.5"/><path fill="#D7E0B5" d="M1617.2 928.3c-3.1 11.8-37.7 16.6-47.9 3.9C1580.7 936.3 1606.2 938.2 1617.2 928.3"/><path fill="#F8C114" d="M586.3 36c8.1 14.8 20 25.8 29.8 38.9C623.1 54.9 606.9 36.8 586.3 36M569.4 41.1c-5.1 26 12.4 40.3 35 42.8 0.8-1.9 2-3.1 3.9-3.9C604.4 58.9 592.3 39.1 569.4 41.1M613.5 89.1c-26.5-0.9-59.4-19.7-45.4-57C607.3 20.8 634.1 60.8 613.5 89.1"/><path fill="#63A9A0" d="M780.5 113.7c22.6 15.6 66.5 2.4 71.3-20.7C831 102.8 807.8 110.3 780.5 113.7M767.5 104.6c31.1 6 80.6 1.5 86.9-29.7C817.4 67 777.7 77.2 767.5 104.6M846.5 67.1c-21-23.6-81.6-3.1-80.2 24.6C784.8 80.7 812.9 63 846.5 67.1M759.8 109.8c-6.9-37.5 37.4-65.1 73.9-58.2 57.1 10.8 16.3 77.1-35 73.8C783.2 124.3 770.5 115.5 759.8 109.8"/><path fill="#D6D6D9" d="M1845.1 43.8c8.8 7.8 10.1 29.5 7.8 44C1846.9 76.5 1848.1 58 1845.1 43.8"/><path fill="#F8C114" d="M165.4 91.7c-12-1-12.5-13.4-18.1-20.7 -13.9 1.4-19.1-5.9-22-15.5 4.6 0.9 3.8 7.5 9.1 7.8 7.4 2.3 4.9-5.5 10.4-5.1 5 6.8 7.3 16.1 11.6 23.3h10.4c1.4 2.5 1.6 6.1 2.5 9.1 -0.1 1.5-0.4 3-2.6 2.5C166.6 92.2 166.5 91.5 165.4 91.7"/><path fill="#D64326" d="M1852.9 87.8c2.4-14.6 1-36.2-7.7-44C1848.1 58.1 1846.9 76.6 1852.9 87.8M1838.6 45.1c-8.1 9.9-0.9 33.3 6.5 40.1C1847.3 72.7 1846.4 51.9 1838.6 45.1M1854.1 99.4c-10.6-10-24.6-16.9-31.1-31.1 -1-10 1.5-24.4 1.3-6.5 3 6.1 3 15.1 10.4 16.9 0.8-13.5-4.6-27 1.3-41.5 -5.6 0.9-6.4 6.6-9.1 10.4 -2.4-8.1 9.6-12.7 9.1-23.4 17.9 7.9 31.4 26.8 31.3 48.1 -2.1-10.9-4.5-21.5-13-26C1849 63.8 1869.3 87.4 1854.1 99.4"/><path fill="#63A9A0" d="M1662.5 98.2c-16.4 22.6-1.4 62.4 23.3 64.8C1675.5 143.9 1662.1 127.9 1662.5 98.2M1667.6 87.8c-2 29.4 4.8 60.9 26 71.3C1705.6 133.6 1696.3 89.4 1667.6 87.8M1692.3 170.7c-34.1-6.9-49.1-51.9-31.1-88.1C1701.6 81.9 1709.6 140.7 1692.3 170.7"/><path fill="#F8C114" d="M710.4 112.4c8 0.3 7.3-8.2 14.3-9.1 -4.4 6-7.6 13.3-14.2 16.9 -16.4-24.2 1.3-62.2 16.9-75.1 10.6 5.4 10.3 35.6 2.6 44 2.6-10.6 5.4-29.5-3.9-35C710.6 62.6 702.1 92.4 710.4 112.4"/><path fill="#D7E0B5" d="M1792 78.8c35 21.1-6.5 67.1-42.7 51.8 1.5-0.2 3.6 0.3 3.9-1.2 35.6 10.4 69.5-30.4 37.5-49.2C1791.5 80 1792.3 79.9 1792 78.8"/><path fill="#FAEACF" d="M1864.6 109.8c4-1 1.6 4.5 6.5 2.6 -3.4 8.3-0.1 23.3-10.4 24.6C1865.6 126.7 1856.9 118 1864.6 109.8"/><path fill="#D7E0B5" d="M1568 148.7c26.6 9.6 36.3 36.3 53.1 55.8C1623.8 172.8 1599.6 137.3 1568 148.7M1614.6 225.1c-1.6-33-16.6-63.6-50.5-68.6C1561.1 194.1 1583.5 217.3 1614.6 225.1M1622.3 231.6c-39.1-9.5-73-37.1-62.1-88C1608.3 129.4 1637.1 182.7 1622.3 231.6"/><path fill="#D7E0B5" d="M1071.9 308c-3.9-1.2-2.2 2.9-2.6 5.1 -6.5-15.6-16.2-27.7-37.5-28.5 3.3-24.5-3.4-38.9-23.4-40.1 6.6-10.2 10.8-23 9.1-41.5 3.9 3.1-1.2 15 2.6 18.1 0.4 6.9-3.4 9.6-2.6 16.9 11.8 8.5 21.8 18.9 20.8 40.1C1052.6 285.1 1066.2 292.6 1071.9 308"/><path fill="#D7E0B5" d="M2001.8 238.1c-19.4 3.4-41.7 15-32.4 38.9C1996.1 279.3 2016.7 261.6 2001.8 238.1M1964.3 287.3c-14.2-39.4 21.1-46.6 41.4-59.6C2023 265.9 1994.5 281.8 1964.3 287.3"/><path fill="#D7E0B5" d="M1069.3 219.9c5.1 13 21.3 15 36.3 18.1 -1.7 18.1 3.4 29.5 13 36.3v2.6c-11.1-6.1-16.2-18.2-16.9-35 -15.4-3.6-29.1-8.9-35-22H1069.3z"/><path fill="#D7E0B5" d="M1253.3 302.8c12.5-44.6-24.4-17.4-47.9-27.2C1186.5 305.6 1232.8 319.2 1253.3 302.8M1201.5 276.9c12.1-34.5 65.9-14 56.9 19.4C1252.1 319.6 1185.1 323.3 1201.5 276.9"/><path fill="#D7E0B5" d="M1327.1 298.9c2 0.3 4.8-0.5 5.1 1.3 -19.4 8.3-48.5-1.9-49.2-24.6 4.1 3.8 8.3 1.9 13 0 1 0.3 2.5 0 2.6 1.3 -0.9 2.6-3.9 3.1-5.1 5.3C1294.6 297.7 1310.5 298.8 1327.1 298.9"/><path fill="#D7E0B5" d="M1171.7 326.1c-13 17.9-5.9 66.6-2.6 89.4C1182.4 395.6 1183 349 1171.7 326.1M1143.2 396c4.8 10.9 3.1 28 15.5 31.1 3-33.4 4.3-75.2 2.6-108.7 -1.1 2.3-4.7 2.1-5.1 5.1 -1.2 0-1-1.6-1.2-2.6 16.9-33.5 32 22.4 29.8 55.8 -3.2 47.8-36 85.8-42.7 25.9C1142.7 400.6 1140.4 395.7 1143.2 396"/><path fill="#63A9A0" d="M642 372.7c-3.6-5.2-11.5-12.4-18.1-10.4 -8.9 21.8 1 54 16.9 63.5 -1.5-0.2-2.2 0.3-2.6 1.3 -18-11.2-28-45.6-18.1-72.5 11.5 2.3 18.4 9.3 24.6 16.9C643 370 641.8 370.4 642 372.7"/><path fill="#F8C114" d="M46.2 397.4c-2-9.2-1.6-20.7-10.4-23.4 -5.5 7-1 24-3.9 33.6 -3.9 4.4 1.3 17.6-2.6 22 -0.7-16.1 1.5-35.2-1.2-49.2 -4.1-1.1-4 2-5.1 3.9 -1-0.2-1.5-1.1-1.2-2.6 2.9-5.7 6-11.2 7.8-18.1 15.9 6.4 23 28 19.4 49.4C45 410.6 50 399.6 46.2 397.4"/><path fill="#D7E0B5" d="M1002 463.4c9.6-9.5 21.4-22.7 36.3-23.4 28.1-1 37.5 29 35 57 -1.7 0-2.9-0.6-3.9-1.2 -0.7-3.1 1.6-9.4-1.2-10.4 12.4-46.6-52.2-48.6-64.9-19.4C1003 465 1003.3 463.4 1002 463.4"/><path fill="#D7E0B5" d="M1156.1 459.5c17.1-12.1 53.5-16.2 80.3-10.4 -2.6 0.8-8.5-1.6-9 1.3 -23.2-1.9-52.6 0.9-68.6 10.4C1158.4 459.8 1157.6 459.3 1156.1 459.5"/><path fill="#D7E0B5" d="M671.8 462.1c6.4-19.9 25.4-27.4 44-35 -10.5 11.9-33.4 11.5-36.2 31.1 34.9 8.3 67.6-7.4 79-31.1 -9-10.4-29.9-1.4-41.5 1.3 8.6-10.2 33.1-10.5 50.5-7.7C753.3 450.2 714.6 473.9 671.8 462.1"/><path fill="#D7E0B5" d="M1162.6 484.1c27.9-0.2 50.9-5.2 69.9-14.2 -16 15-52.1 20.9-80.2 15.5C1155.3 484.6 1161.6 487 1162.6 484.1"/><path fill="#D7E0B5" d="M2421.6 75c-0.5-2.9 5.8-2.6 8.2-4.3 10.2-2.3 20.3-4.2 28.3-1.9 -3.1 5.9-14.7 5.3-17.3 13.1 -27.8 3.9-63.7 29-83.7 46.6 3 4.5 10.9-1.5 15.1 0 0 3-6.7 2.9-9.3 4.7 -6.5 1.5-13 3.2-18.4 2.5 -2.6-12.6 8.3-19.1 13.2-28.2 1.3-0.7 2.2-0.5 2.9 0.3 -1.9 3.5-5 6.3-4.2 11.2 22.9-10.1 47.7-28.1 70.3-41.8C2425.2 75.8 2423.6 75.1 2421.6 75"/><path fill="#D7E0B5" d="M2357.6 107.7c12-17.2 44.8-33.4 72-36.9 -2.2 1.6-8.5 1.4-8 4.2 -22.5 6.1-49.2 18.7-61.1 33C2359.8 107.2 2359 106.9 2357.6 107.7"/><path fill="#D7E0B5" d="M2372.1 128.6c26.1-9.7 46.1-22.2 60.9-37.1 -10 19.5-42 37.3-70.3 41.8C2365.4 131.6 2372.1 131.7 2372.1 128.6"/><path fill="#D7E0B5" d="M582.4 542.4c-2-7.1 4.1-16.4 9.1-20.7 0.6 5.6-5.4 9.1-2.6 13 28-2 62.5-15.1 59.6-47.9 -14.2-4.6-25.2 3.9-32.4 10.4 2.1-9.5 24.4-21 38.9-14.2 -0.2 1.5 0.3 2.3 1.3 2.6C649.4 522.2 618.9 535.3 582.4 542.4"/><path fill="#D7E0B5" d="M104.5 572.2c-15-17.1-55.4-1-72.5-15.5 21.6 7.4 60.4-2.9 73.8 15.5H104.5z"/><path fill="#D7E0B5" d="M2092.5 551.5c1.4 29.3 14.8 46.5 25.9 66 -17.9-15.2-26.9-39.5-28.5-71.1C2093.4 545.3 2089 552.3 2092.5 551.5"/><path fill="#63A9A0" d="M2447.4 666.7v3.9c28.3-13 33.9-82 11.6-110.1 27.8 27.8 16.8 95.1-10.4 115.4C2449.1 672.7 2443 669.5 2447.4 666.7"/><path fill="#D7E0B5" d="M851.8 631.8c20.9-18.9 46-33.4 85.5-33.6v2.6c-37.5 0.9-61.4 15.4-84.2 31H851.8z"/><path fill="#D7E0B5" d="M41 649.9c-22-13 0.4-70.2-20.7-84.1 25 7.1 2.4 65.6 22 82.9C41.5 648.6 40.8 648.8 41 649.9"/><path fill="#D7E0B5" d="M59.2 638.2c-16.5-8.1-15.5-33.7-18.1-55.7 12.4 5.9 32.8 3.6 41.4 13 0.3 1.1-0.5 1.3-1.2 1.3 -8.2-6.4-22.4-7-35-9 -1.5 17.5 1.1 42 14.3 49.3C59.4 636.7 59.3 637.5 59.2 638.2"/><path fill="#D7E0B5" d="M82.5 595.5c15.5 6.8 6.6 30.1 10.4 47.9 -12.9 0-27.4 1.5-33.6-5.1 0.1-0.7 0.3-1.5 1.3-1.2 8 3.9 16.8 4.4 25.9 1.3 3.3-15.4 6.8-33.4-5.1-41.5C82 596.8 82.7 596.6 82.5 595.5"/><path fill="#D7E0B5" d="M1556.3 599.4c12.8 25.1 28.9 47 54.4 59.6C1605.9 626.5 1584.8 603.6 1556.3 599.4M1608.1 668c-20.9-21.4-40.7-43.7-60.9-66C1543.1 638.3 1576.3 659.1 1608.1 668M1543.3 590.3c44.1 8.3 70.9 40.5 75.1 84.3C1576.9 665.1 1531.6 640.3 1543.3 590.3"/><path fill="#F8C114" d="M92.8 767.8c2.4 11.6 27 18.3 37.5 9.1 -0.7-4.4-4.4-6-9.1-6.5 -2.5 0.8-0.2 6.5-5.1 5.1C108.8 773.1 102.7 763.4 92.8 767.8M112.2 756.1c1.9 0.3 1.3 3.1 1.3 5.1 10 0.1 18.4-1.5 19.4-10.4 -14.2-5.6-27.5-6-38.9 2.6 0.1-1.6 1.6-1.7 1.3-3.9 -5.5 1-9.2 3.6-11.6 7.8 4 3.6 6-2.6 10.4-2.6v5.1C102.7 761.3 107.5 758.6 112.2 756.1M48.8 708.1c0.9 10.8-2 25.3 6.5 28.5C59.5 730.6 61.5 705.9 48.8 708.1M74.7 753.5c23.6-17.7 68.4-15.9 77.8 14.3 -13.9 13.6-28.1 23.1-51.9 18.1 -10.6-2.2-21.9-16.6-32.4-15.5 -28.5 3-39.9 59.6-53.1 82.9 3.6-39.9 23.5-63.7 44-86.7 -21.1-12.5-39.6-27.7-44-57 1-6.7 4 2.6 9.1 0 2-5.1-7.1-9.9-7.7-3.9 -4.1-2-2.1-9.9-2.6-15.5 40 1.4 59 23.9 60.9 63.5"/><path fill="#D7E0B5" d="M2367.1 706.9c4.9-12.9 28.9-17.7 50.5-18.1 -15.9 29.8-40.7 75.5-86.7 58.3 5.5-17.7 16.8-29.9 31.1-38.9 -2.5 8.3-11.7 9.9-14.2 18.1 -0.2 2.8 4.6 0.6 6.5 1.3 -3.6 7.5-15.5 7-15.5 18.1 33.8 9.5 62.3-22 63.4-45.2 -17 7.3-29.1 19.3-46.6 25.9 10.4-12.9 31.1-15.4 40.1-29.7C2386.4 695.3 2373.9 701.6 2367.1 706.9"/><path fill="#F8C114" d="M2084.7 665.4c-44.5 4.8-58.1 84-11.6 99.8 30.6 10.4 69.5-4.4 85.5-31.1h1.3c-16.6 44.5-115.7 54.9-120.5-7.7 -2.1-28.6 15.1-53.9 42.8-63.5C2082.1 664.6 2084.3 664.1 2084.7 665.4"/><path fill="#D7E0B5" d="M1996.7 771.6c5.6-29.1-8.2-49.4-31.1-54.4 -11.4 21.3-46 10.9-59.6-1.2 45.6-17.5 108.6 1 92 56.9C1998.2 771.9 1997.4 771.8 1996.7 771.6"/><path fill="#63A9A0" d="M772.8 765.2c23.4-18.4 12.1-69.2-13-75.1C765.4 708.7 770.8 738.7 772.8 765.2M757.3 775.5c21.1-26 5.1-78.9-13-97.1C720.4 700 731.5 764.4 757.3 775.5M741.6 668c44.4 14.8 68.6 93.3 14.3 116.5C726.8 764.8 718 701 741.6 668"/><path fill="#D7E0B5" d="M1799.8 765.2c5.5-2.7 8.5-7.9 15.5-9.1 19.3 16.8 4.1 44.1-11.6 54.5 -0.2-1-1.1-1.5-2.6-1.2 11.6-8.1 28.3-31.2 13-46.6 -5.9-0.7-7.7 2.5-11.6 3.8C1802 765.4 1801.3 764.9 1799.8 765.2"/><path fill="#F8C114" d="M2285.5 783.3c-2-21.7-16.6-42-23.2-63.5C2254.6 746.4 2266.1 775.3 2285.5 783.3M2268.6 710.8c-1.5 18.4 5.8 39.1 16.9 49.3C2280.8 742.5 2276.6 724.8 2268.6 710.8M2302.3 784.5c6.4-28.1-1-64.5-20.7-75.1C2291.6 731.4 2292.7 762.2 2302.3 784.5M2306.2 796.2c-48.5-1-61.1-69-37.5-107.5C2298 706.7 2314.6 749 2306.2 796.2"/><path fill="#D7E0B5" d="M1408.7 767.8c-1.4 11.8-4.9 35.3 0 50.5C1396.4 809.6 1402.5 777.9 1408.7 767.8"/><path fill="#D7E0B5" d="M2403.3 800.1c-13-10.7-42-5.5-60.9-10.4C2348.3 805.5 2387.6 811.1 2403.3 800.1M2414.9 802.8c-30.1 14.1-77.7 3.6-89.4-20.7C2352.1 761.5 2403.7 779.4 2414.9 802.8"/><path fill="#D7E0B5" d="M1997.9 772.9c-13.5 55.6-150.7 50.9-117.9-29.7 -21.7 83.6 102.9 75.9 116.6 28.5C1997.4 771.7 1998.2 771.8 1997.9 772.9"/><path fill="#D7E0B5" d="M1489 819.6c-9.7 27.8-64.2 25-77.7 2.6 12.1 13.8 64.6 23.9 75.1-2.6H1489z"/><path fill="#D7E0B5" d="M1997.9 894.7c-66.5-39.7 42-120.5 60.9-45.4 0.3 1.5-0.2 2.3-1.2 2.6 -1.6-10.6-8.5-6.9-19.4-11.6 -11.2-4.9-17.1-16.1-24.7-16.9 -33.4-3.5-40.7 48.4-18.1 66.1C1994.4 893.1 1997.9 892.1 1997.9 894.7"/><path fill="#D7E0B5" d="M2459 862.3c-8.1 2.9-22.6-0.4-33.6 5.1 -2.9-0.1-0.5-5.5-1.2-7.7 13.4 10.4 30.4-3.5 37.5-6.5 -1 11.4 1.3 19.5 7.8 23.4 -1.4 3.4-5.2 4.3-10.4 3.9 0.1-3.4 5-1.9 5.1-5.1C2462.3 871.2 2459.9 867.4 2459 862.3"/><path fill="#D7E0B5" d="M2390.4 916.7c5.5-10.1 13.9-17.1 11.6-35 3.3-1 12.4 0.5 15.5-3.9 2.5 4.3-9.5 5.1-14.2 6.5 0.9 7.4-1.4 11.6-1.2 18.1 5.6 0.9 5.8-3.7 10.4-3.9 2.3 3.8 6.1 6 11.6 6.5 11.5-8.2 24.6-15.1 35-24.6 -5.2 5.5-12.9 8.6-11.6 20.8 -7-8.2-20.1-0.7-20.7 9C2413.7 896.6 2397.2 910.9 2390.4 916.7"/><path fill="#F8C114" d="M99.3 223.8c13.5-10.1 10.1-48.5-7.7-50.5 -12.9 16.3-45.6 24.6-70 14.3 -3.7-0.7 2-2 1.3-3.9 22.1-34.2 96.6-29.4 89.5 28.5 -3.2 2.4-3.7 7.5-7.9 9C102.2 220.8 100.4 227.3 99.3 223.8"/><path fill="#63A9A0" d="M2347 291.2l0.8-1c-2.3-1.3-3-2.6-1.5-4.4 37 1.3 56.4 48.9 25.5 79.7 5.4-15.2 18.1-31.3 11.5-45C2367.9 311.8 2352 307.5 2347 291.2"/><path fill="#D7E0B5" d="M1406.1 376.6c19.4 1.4 23.1-43 14.3-59.6 -14.7-27.5-58.5-16.7-71.2 9.1 -1 12.3 1.3 21.3 6.5 27.3C1384.5 332.8 1391.6 375.6 1406.1 376.6M1382.8 381.8c-19.2-6.2-43.4-24.7-37.5-54.4 3.5-18.1 32.8-34.9 54.4-31.1C1441 303.5 1440 400.1 1382.8 381.8"/><path fill="#D7E0B5" d="M1347.8 431c-23.2 10.5-35.1 68.1-1.2 75.1C1356.6 489.1 1349.6 452.5 1347.8 431M1354.3 429.8c5.5 22.6-3.4 55.5 6.5 71.3C1371.7 486.9 1373.6 436.8 1354.3 429.8M1367.3 506.1c-7.6 1.5-16.2 1.9-22.1 5.1 -39.5-4.1-20.7-87.7 6.5-89.4 26.5-1.5 23.5 63.3 15.5 84.3"/><path fill="#63A9A0" d="M1407.4 418.1c-19.6 2-8.7 59.5 6.5 64.8C1425.6 470.9 1431.6 415.6 1407.4 418.1M1394.4 464.7c-0.6 11.9-2.1 35.8 13 36.3C1409.3 487.7 1398.8 476.1 1394.4 464.7M1406 508.7c-26.6-8.7-24-92.6 1.4-94.5 37.3-2.7 14.5 83.3-1.2 94.5"/><path fill="#D7E0B5" d="M714.5 521.7c12.5-14.9-3.4-42.4-22-29.7C704 497.7 709.5 509.4 714.5 521.7M702.9 529.4c7.3-14-0.6-33.4-16.9-32.4C682.7 511.7 687.2 529.4 702.9 529.4M702.9 538.6c-15.7-8.6-27.6-27.5-24.6-50.5C723.6 466.1 740.5 526.1 702.9 538.6"/><path fill="#D7E0B5" d="M1486.4 819.6c8.8-18.5 7.3-63.2-10.4-66 -14.4-2.2-42.6 30.5-49.2-1.2 -4.7-0.9-5 2.8-9.1 2.6 36.3-45.9 100.3 14.4 71.4 64.6H1486.4z"/><path fill="#D7E0B5" d="M1549.8 846.8c8.3-10.7 9.8-42.9 0-53.1C1551.6 810 1543.8 831.8 1549.8 846.8M1533 798.9c0.5 7.9 1.6 25.9 7.8 32.4 7.1-14 9.4-54.2-6.5-60.9 0 4.3-2.1 6.5-1.2 11.6 -3.2-0.1-6.2-0.2-7.7 1.3 -6.2 18.9-5.7 49.4 10.4 57 4.8-12.9-9.6-30.5-2.6-41.5M1535.6 759.9c26.1 14.8 29.1 71.4 14.3 101.1 -31-12.5-45.1-77.5-14.2-101"/><path fill="#56A946" d="M1569.3 683.6c21.4-4.5 47.3 21.4 36.3 46.6 -8.7 20.3-61.2 19.4-67.4-5.1C1532.9 703.3 1552.3 687.2 1569.3 683.6"/></svg>