<svg xmlns:svg="http://www.w3.org/2000/svg" xmlns="http://www.w3.org/2000/svg" viewBox="0 0 162.5 162.5" height="162.5" width="162.5" xml:space="preserve" version="1.1"><defs><clipPath clipPathUnits="userSpaceOnUse"><path d="M0 130 130 130 130 0 0 0 0 130Z"/></clipPath></defs><g transform="matrix(1.25,0,0,-1.25,0,162.5)"><g clip-path="url(#clipPath16)"><g transform="translate(71.6719,60.1167)"><path d="m0 0 0-1.1c0-1.8-1.3-4.1-2.9-5l-27.4-15.8-6.7 11.5 23.6 13.7 0 41.6 13.3 0 0-35.5 24 23.5c1.6-1.6 3-3.3 4.3-5.1L0 0Zm-7.8 68.9c-30.2-0.9-54.2-15.3-60.6-46.3-10.3-49.6 15.7-88.5 61.2-80.6 17.7 3.1 59.7 4.4 64.2 51.2 4.2 44-27.1 76.9-64.8 75.7" fill="#68a9a0"/></g></g></g></svg>