<svg xmlns:svg="http://www.w3.org/2000/svg" xmlns="http://www.w3.org/2000/svg" viewBox="0 0 402.5 145" height="145" width="402.5" xml:space="preserve" version="1.1"><defs><clipPath clipPathUnits="userSpaceOnUse"><path d="M0 116 322 116 322 0 0 0 0 116Z"/></clipPath></defs><g transform="matrix(1.25,0,0,-1.25,0,145)"><g clip-path="url(#clipPath16)"><g transform="translate(252.2832,1.3848)"><path d="m0 0c-12.9 0-27.2 1.1-42.4 2.2-17.1 1.3-34.8 2.6-52.6 2.6-8.2 0-15.6-0.3-22.7-0.8-19.1-1.5-34.2-2.2-47.7-2.2-25.5 0-44.5 2.7-58.1 8.2-18.2 7.4-27.9 20.5-27.9 38 0 23.5 12.1 41 34.9 50.8 16.1 6.9 38 10.2 67.1 10.2 15.8 0 31.3-0.9 44.9-1.7 10.5-0.6 19.6-1.2 26.7-1.2 1.4 0 2.6 0 3.7 0.1 27.2 1 37.8 3.2 46.4 5 6.4 1.3 12.5 2.6 22.7 2.6 6.1 0 13.3-0.4 22.8-1.3 15.8-1.5 37.4-15.8 46.3-37.1C69.9 61.6 72.5 40.4 52.8 16.5 40.7 1.9 18.2 0 0 0L0 0Z" fill="#f9ead1"/></g><g transform="translate(252.292,6.3848)"><path d="m0 0c-12.7 0-26.9 1-42 2.2-17.2 1.3-34.9 2.6-52.9 2.6-8.3 0-15.9-0.3-23.1-0.9-19-1.5-34-2.2-47.3-2.2-24.8 0-43.2 2.6-56.2 7.8-16.4 6.7-24.8 17.9-24.8 33.3 0 21.6 10.7 37.2 31.9 46.2 15.4 6.6 36.7 9.8 65.1 9.8 15.6 0 31-0.9 44.6-1.7 10.6-0.6 19.8-1.2 27-1.2 1.4 0 2.7 0 3.9 0.1 27.6 1 38.5 3.3 47.3 5.1 6.4 1.3 12 2.5 21.7 2.5 5.9 0 13-0.4 22.3-1.3 14-1.3 34.1-14.7 42.1-34.1C64.8 55.9 67.1 36.6 48.9 14.7 38.2 1.7 17.1 0 0 0" fill="#9c2d33"/></g><g transform="translate(178.7217,97.376)"><path d="m0 0c60.8 2.2 43.1 10.8 90.6 6.4 21.5-2 62.3-38.1 28-79.5-21.5-26-95.7-3.6-163.5-9-65-5.1-122.8-3.9-122.8 34C-167.7 22.9-41-1.5 0 0" fill="#f5c135"/></g></g></g></svg>