<svg xmlns:svg="http://www.w3.org/2000/svg" xmlns="http://www.w3.org/2000/svg" viewBox="0 0 737.5 362.5" height="362.5" width="737.5" xml:space="preserve" version="1.1"><style>.s0{fill:#121726;}.s1{fill:none;stroke-linecap:round;stroke-linejoin:round;stroke-width:2;stroke:#020611;}.s2{fill:#020611;}</style><defs><clipPath clipPathUnits="userSpaceOnUse"><path d="M0 290 590 290 590 0 0 0 0 290Z"/></clipPath></defs><g transform="matrix(1.25,0,0,-1.25,0,362.5)"><g clip-path="url(#clipPath16)"><g transform="translate(74.2422,140.1641)"><path d="m0 0c-0.2-0.5-5.9-11.4-22-11.4-16.1 0-21.7 10.9-22 11.4-0.9 1.7-0.2 3.9 1.6 4.7 1.8 0.9 3.8 0.2 4.7-1.5 0.2-0.4 4.1-7.5 15.7-7.5 11.6 0 15.5 7.2 15.7 7.5 0.9 1.7 3 2.4 4.7 1.5C0.2 3.8 0.9 1.7 0 0m-33.7 28.6c3.9 0 7.1-3.7 7.1-8.2 0-4.6-3.1-8.3-7.1-8.3-3.9 0-7.1 3.7-7.1 8.3 0 4.5 3.1 8.2 7.1 8.2m23.5 0c3.9 0 7.1-3.7 7.1-8.2 0-4.6-3.1-8.3-7.1-8.3-3.9 0-7.1 3.7-7.1 8.3 0 4.5 3.1 8.2 7.1 8.2m-12.6 27.5c-21.3-0.7-38.2-10.8-42.8-32.7-7.3-35 11.1-62.5 43.2-56.9 12.5 2.2 42.2 3.1 45.3 36.2 3 31.1-19.2 54.2-45.7 53.4" fill="#d7e0b5"/></g><g transform="translate(5.3672,83.4053)"><path d="m0 0c0.3 0.4 0.6 0.8 1.2 1.4l3.1 3.3 1.7 0-3.9-4.1 4.2-5.5-1.8 0-3.4 4.6-1.1-0.9 0-3.6-1.4 0 0 13.7 1.4 0 0-7.3C0 1.2 0 0.7-0.1 0L0 0Z" fill="#121726"/></g><g transform="translate(14.3496,83.2998)"><path d="m0 0c0-1.2 0.2-2.2 0.7-2.8 0.5-0.6 1.2-1 2.2-1 1 0 1.7 0.3 2.2 1C5.6-2.2 5.8-1.2 5.8 0 5.8 1.2 5.6 2.2 5.1 2.8 4.6 3.4 3.9 3.7 2.9 3.7 1.9 3.7 1.2 3.4 0.7 2.8 0.2 2.2 0 1.2 0 0M7.3 0C7.3-1.6 6.9-2.8 6.2-3.7 5.4-4.6 4.3-5 2.9-5c-0.9 0-1.6 0.2-2.3 0.6-0.7 0.4-1.2 1-1.5 1.7-0.4 0.8-0.5 1.6-0.5 2.7 0 1.6 0.4 2.8 1.2 3.7 0.8 0.9 1.9 1.3 3.3 1.3 1.3 0 2.4-0.4 3.2-1.3C6.9 2.7 7.3 1.5 7.3 0" fill="#121726"/></g><g transform="translate(25.2227,83.2998)"><path d="m0 0c0-1.2 0.2-2.2 0.7-2.8 0.5-0.6 1.2-1 2.2-1 1 0 1.7 0.3 2.2 1C5.6-2.2 5.8-1.2 5.8 0 5.8 1.2 5.6 2.2 5.1 2.8 4.6 3.4 3.9 3.7 2.9 3.7 1.9 3.7 1.2 3.4 0.7 2.8 0.2 2.2 0 1.2 0 0m7.3 0c0-1.6-0.4-2.8-1.2-3.7-0.8-0.9-1.9-1.3-3.3-1.3-0.9 0-1.6 0.2-2.3 0.6-0.7 0.4-1.2 1-1.5 1.7-0.4 0.8-0.5 1.6-0.5 2.7 0 1.6 0.4 2.8 1.2 3.7 0.8 0.9 1.9 1.3 3.3 1.3 1.3 0 2.4-0.4 3.2-1.3C6.9 2.7 7.3 1.5 7.3 0" fill="#121726"/></g><g transform="translate(39.5137,88.2832)"><path d="M0 0C0.4 0 0.8 0 1.2-0.1L0.9-1.5c-0.4 0.1-0.7 0.1-1.1 0.1-0.8 0-1.4-0.3-2-0.9-0.6-0.6-0.8-1.4-0.8-2.4l0-5.2-1.5 0 0 9.6 1.2 0 0.2-1.8 0.1 0c0.4 0.6 0.8 1.1 1.3 1.5C-1.2-0.2-0.6 0 0 0" fill="#121726"/></g><g transform="translate(46.1055,79.5205)"><path d="m0 0c1 0 1.7 0.3 2.2 0.8 0.4 0.5 0.7 1.4 0.7 2.6l0 0.3c0 1.4-0.2 2.3-0.7 2.9-0.5 0.6-1.2 0.9-2.2 0.9-0.9 0-1.5-0.3-2-1-0.5-0.7-0.7-1.6-0.7-2.8 0-1.2 0.2-2.2 0.7-2.8C-1.5 0.3-0.9 0 0 0m2.9 0.2-0.1 0c-0.7-1-1.7-1.5-3-1.5-1.3 0-2.2 0.4-2.9 1.3-0.7 0.9-1.1 2.1-1.1 3.7 0 1.6 0.4 2.8 1.1 3.7 0.7 0.9 1.7 1.3 2.9 1.3 1.3 0 2.3-0.5 3-1.4l0.1 0-0.1 0.7 0 0.7 0 3.9 1.5 0 0-13.7-1.2 0-0.2 1.3z" fill="#121726"/></g><path d="m55 78.5-1.5 0 0 9.6 1.5 0 0-9.6zm-1.6 12.2c0 0.3 0.1 0.6 0.2 0.7 0.2 0.2 0.4 0.2 0.6 0.2 0.2 0 0.4-0.1 0.6-0.2 0.2-0.2 0.3-0.4 0.3-0.7 0-0.3-0.1-0.6-0.3-0.7-0.2-0.2-0.4-0.2-0.6-0.2-0.2 0-0.5 0.1-0.6 0.2-0.2 0.2-0.2 0.4-0.2 0.7" fill="#121726"/><g transform="translate(64.6406,78.4746)"><path d="m0 0 0 6.2c0 0.8-0.2 1.4-0.5 1.8-0.4 0.4-0.9 0.6-1.7 0.6-1 0-1.7-0.3-2.2-0.8C-4.9 7.2-5.1 6.3-5.1 5.1l0-5.1-1.5 0 0 9.6 1.2 0 0.2-1.3 0.1 0c0.3 0.5 0.7 0.8 1.3 1.1 0.5 0.3 1.1 0.4 1.8 0.4 1.2 0 2-0.3 2.6-0.8C1.2 8.4 1.5 7.5 1.5 6.3L1.5 0 0 0Z" fill="#121726"/></g><g transform="translate(71.3828,89.6016)"><path d="m0 0c0.3 0.4 0.6 0.8 0.9 1.3 0.3 0.5 0.6 1 0.8 1.3l1.8 0 0-0.2C3.2 2.1 2.8 1.6 2.3 1.1 1.8 0.5 1.4 0.1 1-0.2L0-0.2 0 0Zm0.3-10.1c0.9 0 1.6 0.2 2.1 0.7 0.5 0.5 0.8 1.2 0.8 2.1l0 0.9-1.5-0.1c-1.2 0-2-0.2-2.5-0.5-0.5-0.3-0.8-0.8-0.8-1.5 0-0.5 0.2-0.9 0.5-1.2 0.3-0.3 0.8-0.4 1.3-0.4m3.3-1-0.3 1.4-0.1 0c-0.5-0.6-1-1-1.4-1.2-0.5-0.2-1.1-0.3-1.8-0.3-1 0-1.7 0.2-2.2 0.7-0.5 0.5-0.8 1.2-0.8 2.1 0 1.9 1.6 3 4.7 3.1l1.6 0.1 0 0.6c0 0.8-0.2 1.3-0.5 1.7-0.3 0.4-0.8 0.5-1.6 0.5-0.8 0-1.7-0.2-2.7-0.7l-0.4 1.1c0.5 0.3 1 0.5 1.6 0.6 0.6 0.1 1.1 0.2 1.7 0.2 1.1 0 2-0.3 2.6-0.8 0.6-0.5 0.8-1.3 0.8-2.5l0-6.6-1.1 0z" fill="#121726"/></g><g transform="translate(82.2188,79.5029)"><path d="m0 0c0.3 0 0.5 0 0.7 0.1 0.2 0 0.4 0.1 0.6 0.1l0-1.1C1.2-1 0.9-1.1 0.6-1.1 0.3-1.2 0-1.2-0.2-1.2c-1.9 0-2.8 1-2.8 2.9l0 5.7-1.4 0 0 0.7 1.4 0.6 0.6 2.1 0.8 0 0-2.2 2.8 0 0-1.1-2.8 0 0-5.7c0-0.6 0.1-1 0.4-1.3C-0.9 0.2-0.5 0 0 0" fill="#121726"/></g><g transform="translate(86.4375,83.2998)"><path d="m0 0c0-1.2 0.2-2.2 0.7-2.8 0.5-0.6 1.2-1 2.2-1 1 0 1.7 0.3 2.2 1C5.6-2.2 5.8-1.2 5.8 0 5.8 1.2 5.6 2.2 5.1 2.8 4.6 3.4 3.9 3.7 2.9 3.7 1.9 3.7 1.2 3.4 0.7 2.8 0.2 2.2 0 1.2 0 0M7.3 0C7.3-1.6 6.9-2.8 6.2-3.7 5.4-4.6 4.3-5 2.9-5c-0.9 0-1.6 0.2-2.3 0.6-0.7 0.4-1.2 1-1.5 1.7-0.4 0.8-0.5 1.6-0.5 2.7 0 1.6 0.4 2.8 1.2 3.7 0.8 0.9 1.9 1.3 3.3 1.3 1.3 0 2.4-0.4 3.2-1.3C6.9 2.7 7.3 1.5 7.3 0" fill="#121726"/></g><g transform="translate(100.7285,88.2832)"><path d="M0 0C0.4 0 0.8 0 1.2-0.1L0.9-1.5c-0.4 0.1-0.7 0.1-1.1 0.1-0.8 0-1.4-0.3-2-0.9-0.6-0.6-0.8-1.4-0.8-2.4l0-5.2-1.5 0 0 9.6 1.2 0 0.2-1.8 0.1 0c0.4 0.6 0.8 1.1 1.3 1.5C-1.2-0.2-0.6 0 0 0" fill="#121726"/></g><g transform="translate(321.4844,138.7051)"><path d="m0 0c-0.3-0.5-6.6-12.9-24.9-12.9-18.2 0-24.6 12.4-24.9 12.9-1 2-0.2 4.4 1.8 5.4 2 1 4.4 0.2 5.4-1.7 0.2-0.4 4.7-8.5 17.8-8.5 13.1 0 17.6 8.1 17.8 8.5 1 1.9 3.4 2.7 5.4 1.7C0.2 4.3 1 2 0 0m-38.2 32.4c4.4 0 8-4.2 8-9.3 0-5.2-3.6-9.3-8-9.3-4.4 0-8 4.2-8 9.3 0 5.2 3.6 9.3 8 9.3m26.7 0c4.4 0 8-4.2 8-9.3 0-5.2-3.6-9.3-8-9.3-4.4 0-8 4.2-8 9.3 0 5.1 3.6 9.3 8 9.3m-14.2 31.2C-50 62.8-69.1 51.3-74.3 26.5c-8.2-39.7 12.6-70.8 48.9-64.5 14.2 2.5 47.8 3.6 51.3 41 3.4 35.2-21.7 61.5-51.8 60.5" fill="#63a9a0"/></g><g transform="translate(281.6465,92.2646)"><path d="M0 0 1 0C1.7-0.4 2.3-1 2.9-1.7 3.7-0.9 4.3-0.3 4.9 0l1 0 0-0.2-0.6-0.6C4.5-1.7 3.9-2.4 3.7-2.9l-1.5 0C2.1-2.6 1.9-2.3 1.6-2 1.3-1.6 0.7-1 0-0.2L0 0Zm6.4-13.8-7 0 0 1 5.3 7.5-4.9 0 0 1.1 6.5 0 0-1.1-5.2-7.4 5.3 0 0-1.1z" fill="#121726"/></g><path d="m291.8 78.5-1.5 0 0 9.6 1.5 0 0-9.6zm-1.6 12.2c0 0.3 0.1 0.6 0.2 0.7 0.2 0.2 0.4 0.2 0.6 0.2 0.2 0 0.4-0.1 0.6-0.2 0.2-0.2 0.3-0.4 0.3-0.7 0-0.3-0.1-0.6-0.3-0.7-0.2-0.2-0.4-0.2-0.6-0.2-0.2 0-0.5 0.1-0.6 0.2-0.2 0.2-0.2 0.4-0.2 0.7" fill="#121726"/><g transform="translate(297.5117,79.5029)"><path d="m0 0c0.9 0 1.6 0.2 2.1 0.7 0.5 0.5 0.8 1.2 0.8 2.1l0 0.9L1.5 3.6C0.3 3.6-0.5 3.4-1.1 3.1-1.6 2.8-1.8 2.3-1.8 1.6-1.8 1.1-1.7 0.7-1.3 0.4-1 0.1-0.6 0 0 0m3.3-1-0.3 1.4-0.1 0C2.5-0.3 2-0.7 1.5-0.9 1-1.1 0.4-1.2-0.3-1.2c-1 0-1.7 0.2-2.2 0.7-0.5 0.5-0.8 1.2-0.8 2.1 0 1.9 1.6 3 4.7 3.1l1.6 0.1 0 0.6C3 6.1 2.8 6.7 2.5 7 2.1 7.4 1.6 7.6 0.9 7.6 0.1 7.6-0.8 7.3-1.8 6.8l-0.4 1.1c0.5 0.3 1 0.5 1.6 0.6 0.6 0.1 1.1 0.2 1.7 0.2 1.1 0 2-0.3 2.6-0.8C4.1 7.5 4.4 6.7 4.4 5.5l0-6.6-1.1 0z" fill="#121726"/></g><g transform="translate(306.3359,83.4053)"><path d="m0 0c0.3 0.4 0.6 0.8 1.2 1.4l3.1 3.3 1.7 0L2.1 0.6 6.3-4.9 4.5-4.9 1.1-0.4 0-1.3l0-3.6-1.4 0 0 13.7 1.4 0 0-7.3C0 1.2 0 0.7-0.1 0L0 0Z" fill="#121726"/></g><g transform="translate(169.9883,158.1367)"><path d="m0 0-1.4 0 0 9.2c0 0.8 0 1.5 0.1 2.2C-1.5 11.2-1.6 11.1-1.8 10.9-1.9 10.8-2.6 10.2-3.9 9.2L-4.6 10.2-1.2 12.9 0 12.9 0 0Z" fill="#121726"/></g><g transform="translate(175.332,159.0684)"><path d="m0 0c0 0.4 0.1 0.7 0.3 0.9 0.2 0.2 0.4 0.3 0.8 0.3 0.3 0 0.6-0.1 0.8-0.3C2 0.7 2.1 0.4 2.1 0 2.1-0.4 2-0.7 1.8-0.9 1.6-1.1 1.4-1.2 1-1.2 0.7-1.2 0.5-1.1 0.3-0.9 0.1-0.7 0-0.4 0 0" fill="#121726"/></g><g transform="translate(426.5293,155.1367)"><path d="m0 0-8.4 0 0 1.3 3.4 3.4c1 1 1.7 1.8 2 2.2 0.3 0.4 0.6 0.9 0.7 1.3 0.2 0.4 0.2 0.9 0.2 1.4 0 0.7-0.2 1.2-0.6 1.6-0.4 0.4-1 0.6-1.7 0.6-0.5 0-1-0.1-1.5-0.3-0.5-0.2-1-0.5-1.6-1l-0.8 1c1.2 1 2.5 1.5 3.9 1.5 1.2 0 2.2-0.3 2.8-0.9 0.7-0.6 1-1.4 1-2.5 0-0.8-0.2-1.6-0.7-2.4C-1.7 6.4-2.5 5.4-3.8 4.2l-2.8-2.8 0-0.1L0 1.4 0 0Z" fill="#121726"/></g><g transform="translate(428.832,156.0684)"><path d="m0 0c0 0.4 0.1 0.7 0.3 0.9 0.2 0.2 0.4 0.3 0.8 0.3 0.3 0 0.6-0.1 0.8-0.3C2 0.7 2.1 0.4 2.1 0 2.1-0.4 2-0.7 1.8-0.9 1.6-1.1 1.4-1.2 1-1.2 0.7-1.2 0.5-1.1 0.3-0.9 0.1-0.7 0-0.4 0 0" fill="#121726"/></g><g transform="translate(291.5078,281.9629)"><path d="m0 0c0-0.8-0.2-1.5-0.7-2-0.5-0.5-1.1-0.9-2-1l0-0.1c1-0.1 1.8-0.5 2.3-1 0.5-0.5 0.7-1.2 0.7-2.1 0-1.2-0.4-2.2-1.3-2.8-0.8-0.7-2.1-1-3.6-1-0.7 0-1.3 0.1-1.9 0.2-0.6 0.1-1.1 0.3-1.6 0.5l0 1.4c0.6-0.3 1.2-0.5 1.8-0.6 0.6-0.1 1.2-0.2 1.8-0.2 2.2 0 3.3 0.9 3.3 2.6 0 1.6-1.2 2.3-3.7 2.3l-1.3 0 0 1.3 1.3 0c1 0 1.8 0.2 2.4 0.7 0.6 0.4 0.9 1.1 0.9 1.8 0 0.6-0.2 1.1-0.6 1.5C-2.6 1.8-3.2 2-3.9 2-4.5 2-5 1.9-5.5 1.7-6 1.6-6.6 1.3-7.2 0.9l-0.7 1c0.5 0.4 1.1 0.7 1.8 1 0.7 0.2 1.4 0.4 2.2 0.4 1.2 0 2.2-0.3 2.9-0.9C-0.3 1.8 0 1 0 0" fill="#121726"/></g><g transform="translate(294.2949,273.0684)"><path d="m0 0c0 0.4 0.1 0.7 0.3 0.9 0.2 0.2 0.4 0.3 0.8 0.3 0.3 0 0.6-0.1 0.8-0.3C2 0.7 2.1 0.4 2.1 0 2.1-0.4 2-0.7 1.8-0.9 1.6-1.1 1.4-1.2 1-1.2 0.7-1.2 0.5-1.1 0.3-0.9 0.1-0.7 0-0.4 0 0" fill="#121726"/></g><g transform="translate(289.293,15.9209)"><path d="M0 0 0 4.3C0 5.1 0 6.1 0.1 7.1l-0.1 0C-0.3 6.5-0.5 6.1-0.8 5.7L-4.8 0 0 0Zm3.3-1.3-1.9 0 0-3-1.4 0 0 3-6.2 0 0 1.3 6.1 8.7 1.5 0 0-8.6 1.9 0 0-1.3z" fill="#121726"/></g><g transform="translate(294.2949,12.5723)"><path d="m0 0c0 0.4 0.1 0.7 0.3 0.9 0.2 0.2 0.4 0.3 0.8 0.3 0.3 0 0.6-0.1 0.8-0.3C2 0.7 2.1 0.4 2.1 0 2.1-0.4 2-0.7 1.8-0.9 1.6-1.1 1.4-1.2 1-1.2 0.7-1.2 0.5-1.1 0.3-0.9 0.1-0.7 0-0.4 0 0" fill="#121726"/></g><g transform="translate(562.8867,140.1641)"><path d="m0 0c-0.2-0.5-5.9-11.4-22-11.4-16.1 0-21.7 10.9-22 11.4-0.9 1.7-0.2 3.9 1.6 4.7 1.7 0.9 3.8 0.2 4.7-1.5 0.2-0.4 4.1-7.5 15.7-7.5 11.6 0 15.5 7.2 15.7 7.5C-5.4 4.9-3.3 5.6-1.6 4.7 0.2 3.8 0.9 1.7 0 0m-33.7 28.6c3.9 0 7.1-3.7 7.1-8.2 0-4.6-3.1-8.3-7.1-8.3-3.9 0-7.1 3.7-7.1 8.3 0 4.5 3.1 8.2 7.1 8.2m23.5 0c3.9 0 7.1-3.7 7.1-8.2 0-4.6-3.1-8.3-7.1-8.3-3.9 0-7.1 3.7-7.1 8.3 0 4.5 3.1 8.2 7.1 8.2m-12.6 27.5c-21.3-0.7-38.2-10.8-42.8-32.7-7.3-35 11.1-62.5 43.2-56.9 12.5 2.2 42.2 3.1 45.3 36.2 3 31.1-19.2 54.2-45.7 53.4" fill="#f8c114"/></g><g transform="translate(522.6016,79.5205)"><path d="M0 0C1 0 1.7 0.3 2.2 0.8 2.6 1.4 2.8 2.2 2.8 3.4l0 0.3c0 1.4-0.2 2.3-0.7 2.9-0.5 0.6-1.2 0.9-2.2 0.9-0.9 0-1.5-0.3-2-1-0.5-0.7-0.7-1.6-0.7-2.8 0-1.2 0.2-2.2 0.7-2.8C-1.5 0.3-0.9 0 0 0m2.9 0.2-0.1 0c-0.7-1-1.7-1.5-3-1.5-1.3 0-2.2 0.4-2.9 1.3-0.7 0.9-1 2.1-1 3.7 0 1.6 0.4 2.8 1.1 3.7 0.7 0.9 1.7 1.3 2.9 1.3 1.3 0 2.3-0.5 3-1.4l0.1 0-0.1 0.7 0 0.7 0 3.9 1.5 0 0-13.7-1.2 0-0.2 1.3z" fill="#121726"/></g><g transform="translate(532.6211,79.5029)"><path d="m0 0c0.9 0 1.6 0.2 2.1 0.7 0.5 0.5 0.8 1.2 0.8 2.1l0 0.9L1.5 3.6C0.3 3.6-0.5 3.4-1.1 3.1-1.6 2.8-1.8 2.3-1.8 1.6-1.8 1.1-1.7 0.7-1.3 0.4-1 0.1-0.6 0 0 0m3.3-1-0.3 1.4-0.1 0C2.5-0.3 2-0.7 1.5-0.9c-0.5-0.2-1.1-0.3-1.8-0.3-1 0-1.7 0.2-2.2 0.7-0.5 0.5-0.8 1.2-0.8 2.1 0 1.9 1.6 3 4.7 3.1l1.6 0.1 0 0.6C3 6.1 2.8 6.7 2.5 7 2.1 7.4 1.6 7.6 0.9 7.6 0.1 7.6-0.8 7.3-1.8 6.8l-0.4 1.1c0.5 0.3 1 0.5 1.6 0.6 0.6 0.1 1.1 0.2 1.7 0.2 1.1 0 2-0.3 2.6-0.8 0.6-0.5 0.8-1.3 0.8-2.5l0-6.6-1.1 0z" fill="#121726"/></g><g transform="translate(544.3984,88.2832)"><path d="M0 0C0.4 0 0.8 0 1.2-0.1L0.9-1.5c-0.4 0.1-0.7 0.1-1.1 0.1-0.8 0-1.4-0.3-2-0.9-0.6-0.6-0.8-1.4-0.8-2.4l0-5.2-1.5 0 0 9.6 1.2 0 0.2-1.8 0.1 0c0.4 0.6 0.8 1.1 1.3 1.5C-1.2-0.2-0.6 0 0 0" fill="#121726"/></g><g transform="translate(551.2012,78.2988)"><path d="m0 0c-1.4 0-2.5 0.4-3.2 1.3-0.8 0.9-1.1 2.1-1.1 3.6 0 1.6 0.4 2.9 1.2 3.7 0.8 0.9 1.9 1.3 3.3 1.3 0.5 0 0.9 0 1.4-0.1 0.5-0.1 0.8-0.2 1.1-0.4L2.1 8.2C1.8 8.4 1.5 8.5 1.1 8.6 0.7 8.6 0.4 8.7 0.1 8.7c-2 0-2.9-1.2-2.9-3.7 0-1.2 0.2-2.1 0.7-2.7 0.5-0.6 1.2-0.9 2.1-0.9 0.8 0 1.6 0.2 2.5 0.5l0-1.3C1.8 0.2 1 0 0 0" fill="#121726"/></g><g transform="translate(558.5488,79.5029)"><path d="m0 0c0.9 0 1.6 0.2 2.1 0.7 0.5 0.5 0.8 1.2 0.8 2.1l0 0.9L1.5 3.6C0.3 3.6-0.5 3.4-1.1 3.1-1.6 2.8-1.8 2.3-1.8 1.6-1.8 1.1-1.7 0.7-1.3 0.4-1 0.1-0.6 0 0 0m3.3-1-0.3 1.4-0.1 0C2.5-0.3 2-0.7 1.5-0.9c-0.5-0.2-1.1-0.3-1.8-0.3-1 0-1.7 0.2-2.2 0.7-0.5 0.5-0.8 1.2-0.8 2.1 0 1.9 1.6 3 4.7 3.1l1.6 0.1 0 0.6C3 6.1 2.8 6.7 2.5 7 2.1 7.4 1.6 7.6 0.9 7.6 0.1 7.6-0.8 7.3-1.8 6.8l-0.4 1.1c0.5 0.3 1 0.5 1.6 0.6 0.6 0.1 1.1 0.2 1.7 0.2 1.1 0 2-0.3 2.6-0.8 0.6-0.5 0.8-1.3 0.8-2.5l0-6.6-1.1 0z" fill="#121726"/></g><g transform="translate(119.5215,151.1465)"><path d="M0 0C19.1 1.8 81.9-2.6 105.4-3.7" class="s1"/></g><g transform="translate(212.7275,141.7637)"><path d="M0 0-0.6 1.9 12 5.7-0.1 10.9 0.7 12.7 17.8 5.4 0 0Z" fill="#020611"/></g><g transform="translate(370.1523,141.6885)"><path d="M0 0C32-2 77.5 6.5 100.9 5.5" class="s1"/></g><g transform="translate(381.6504,134.9277)"><path d="M0 0 0.8 1.8-11.3 6.9 1.2 10.8 0.6 12.7-17.1 7.2 0 0Z" fill="#020611"/></g><g transform="translate(495.7266,208.1641)"><path d="M0 0C-87.8 50.2-234.9 93.8-406.1 0.1" class="s1"/></g><g transform="translate(97.0547,219.3848)"><path d="M0 0 1.5-1.3-7.2-11.1 5.7-9.2 6-11.2-12.4-13.9 0 0Z" fill="#020611"/></g><g transform="translate(66.0215,60.667)"><path d="M0 0C126.3-73 337.5-76.6 450.1 2" class="s1"/></g><g transform="translate(509.876,50.8721)"><path d="M0 0-1.6 1.2 6 11.8-6.7 8.6-7.2 10.5 10.8 15.1 0 0Z" fill="#020611"/></g></g></g></svg>