<svg xmlns:svg="http://www.w3.org/2000/svg" xmlns="http://www.w3.org/2000/svg" viewBox="0 0 332.5 332.5" height="332.5" width="332.5" xml:space="preserve" version="1.1"><defs><clipPath clipPathUnits="userSpaceOnUse"><path d="M0 266 266 266 266 0 0 0 0 266Z"/></clipPath></defs><g transform="matrix(1.25,0,0,-1.25,0,332.5)"><g clip-path="url(#clipPath16)"><g transform="translate(197.2422,100.9077)"><path d="m0 0c-0.7-1.3-17.1-33.2-64.2-33.2-47.1 0-63.5 31.9-64.2 33.2-2.6 5.1-0.5 11.3 4.6 13.8 5.1 2.5 11.2 0.5 13.8-4.5 0.5-1.1 12.1-21.9 45.8-21.9 33.9 0 45.4 21 45.9 21.9 2.6 5 8.9 6.9 13.8 4.4C0.5 11.1 2.5 5 0 0m-98.6 83.7c11.4 0 20.6-10.7 20.6-24 0-13.3-9.2-24.1-20.6-24.1-11.4 0-20.6 10.8-20.6 24.1 0 13.3 9.2 24 20.6 24m68.7 0c11.4 0 20.6-10.7 20.6-24 0-13.3-9.2-24.1-20.6-24.1-11.4 0-20.6 10.8-20.6 24.1 0 13.2 9.2 24 20.6 24m-36.8 80.4c-62.4-1.9-111.7-31.6-125-95.6-21.3-102.3 32.4-182.6 126.2-166.3 36.6 6.4 123.2 9.2 132.4 105.7C75.6 98.7 11 166.4-66.6 164" fill="#f8c114"/></g></g></g></svg>