<svg xmlns="http://www.w3.org/2000/svg" width="2500" height="950"><path fill="#795C4C" d="M280.6 78.8c-11-11.898-28.7-17-38.897-29.7C232.8 70 259.5 91.6 280.6 78.8m9.2-5.2c19.1-3.898-28.2-50.698-41.5-36.398C244.9 54.1 274.6 76.6 289.8 73.6m-27.3-44.1C273 40.6 286 49.3 298.8 58c.7-17.2-17.5-26.5-36.3-28.5M258.6 14c15.8 9.3 36.3 13.9 46.6 28.5-.396 10.6 2 16.5 0 25.9 13 11.6 30.9 18.398 41.4 32.398-12.9-1.398-21.7-17.898-36.2-22C277 89.299 238.2 89.099 230.2 52.9c6.7-15.6 18.1-26.8 28.4-38.9"/><path fill="#FF5E54" d="M2260.9 107.2c-7 3.6-3.899 23.5-2.601 31.1 19.399 2.7 9.701-26.6 2.601-31.1m16.798 18.2c7.9-8.2 2.104-33.2-10.396-33.602 1.896 12.702 3.798 25.402 10.396 33.602M2247.9 95.6c9.899-2 19.601-10.5 16.899-20.698C2256 78.6 2247.5 82.6 2247.9 95.6m33.7-25.9c-8.9 10.898.5 34 9 40.1 8.3-12 1.4-34.7-9.1-40.1M2270 49c-16-5-24.7 8-29.9 18.1 14.098 3.3 24.8-8.1 29.9-18.1m-73.9 1.2c-1 4 2.3 3.8 1.3 7.8 7.5 3 16.4-1 18.104-7.7-3.806-5.2-14.504-1.6-19.404-.1m62.098-9c-4.896-8.2-15.896-16.7-27.1-14.2 3.302 9.9 15.502 20.9 27.1 14.2m-27.198 0c-2.7-8-18.4-21.102-25.9-11.602C2211.198 35.4 2220 44.7 2231 41.2m-16.802 22c11 10.1 24.803-4.7 29.803-13-11.803-7.1-27.303 2.5-29.803 13m225.402-9.1c-38-20.6-102-28.398-138.6 0 13.3 59.802-22.2 93.5-68.604 97.102 1.5-27.9 7.8-51 13-75.102-23.5-7.898-53.604-10.198-67.396-31.1 5.6-24.9 35-28 66-23.4 24.3 3.9 38.8 22.9 53.1 24.802 14.3 1.898 38-13.4 54.4-15.5 33.4-4.402 64.1 8.698 88.1 23.198"/><path fill="#795C4C" d="M1485.1 61.9c5.9-4.5 9.5-11.102 13-18.102-8.1-4.2-14.1 3.8-19.5 6.5 1.098 5.002 1 11.002 6.5 11.602m14.2-23.4c4.396-3.2 7-14.1 3.896-20.7-15.498-.8-17.896 18.2-3.896 20.7m-90.602 18.3c29-22.398 19.303 34.3 51.803 20.8 2.601-2.6 2.301-8.1 5.101-10.398 2.899 2.6-4.601 11 0 15.5 6.8-3.2 10.8-9.102 15.5-14.2.1-3.7-10.101-3.6-11.601-1.2-3.399-3.5 7.5-3.7 9.101-6.5-5.7-13.1 6.399-16.1 11.6-22.1-9-16.9 7.304-23.7 19.5-27.102-4.5 47.802-13.5 91-57 99.802 7.304-6.102 25.9-7.7 24.604-18.102 11.8-5.5 24.5-22.398 19.396-36.2-9.896 18.9-63.1 57.4-75.1 18.102 2.5-1.7 7.399-1.2 10.399-2.602 5.897-14-12.399-23.198-22-14.198-1.201-.102-1.303-.902-1.303-1.602"/><path fill="#1A5792" d="M1916.4 36c-1.7 18 25.5 20.4 27.3 3.9-3.6-6.8-20.502-8.5-27.3-3.9m88.1 53.1c-.5-16.898-12.4-22.1-23.4-28.5-17 11.8 5.4 39.9 23.4 28.5M1974.698 58c-4.697-8.2-13.5-12.5-24.6-14.2-4.603 5.5-2.9 18.9 1.3 23.3 12.3 1.4 19.3-2.398 23.4-9.1m9.102 98.3c-18.5-10.398-17.5-50.2 1.3-59.6-3.197-11-14.396-14.102-15.5-27.2-6.5-.1-10.697 2.3-18.1 1.3-4.601-4.398-4.601-13.5-9.101-18.1-11.603 9.5-39.2-7.7-31.103-22 4.5-7.7 27.103-16.2 41.5-18.102 45.8-5.6 94.5 19.602 108.602 37.9-25.898-23.5-93.199-50.7-133.398-23.4 35.3 16.602 75.1 28.5 85.5 69.9-12-1.4-15.5 4.3-25.9 1.3-17 9.5-18.396 45.301-2.6 57-1.102-.199-1.2.5-1.2 1.301"/><path fill="#795C4C" d="M1410 58c-28.9 21.5.396 62.5 41.5 53.1-38.604 16.9-76.604-33.6-42.7-54.398-.102.798 0 1.598 1.2 1.298"/><path fill="#921A13" d="M2184.4 162.9c13.601-16.602 8.601-57.4-25.899-51.7 1.899 25.3-24.101 38.8-42.697 24.5-31.5 32.898 40 54.398 62.1 31.1-11.896 27.601-88.697 9.101-72.5-25.899 1.5-3.199 18.104-22.101 23.303-25.899C2166.198 87.9 2220.4 131.9 2184.4 162.9M1860.698 137c10.4-1.4 7-16.2 10.4-24.6-4.9 1.898-2.5-3.5-6.5-2.602-7.698 8.202 1.1 16.902-3.9 27.202m2.602 18.2h-3.9c-8.899-31.1 6.101-56.6 18.101-75.1 15.799 28.3-8.001 52.7-14.201 75.1"/><path fill="#FF5E54" d="M1825.698 262.7c-.197-8.102-19.697-12.4-25.896-13-22.4-1.9-44.7 7.1-46.604 24.6 13.402 16.4 73 4.2 72.5-11.6m31.102 114c41.396-18.102 6.6-113.4-22-110.102-10.4 1.102-22.4 29.802-23.2 42.802-2 29.5 18.3 68.1 41.5 67.398 1 0 3 .4 3.9 0m-3.9 7.602c-34-12.9-56.4-61.602-36.2-104.9-20.7 4.6-57.1 14.4-73.896-5.1 9-29.7 59.396-37.4 86.8-19.4 25.1-35.5-6-82.7-25.9-102.4 18.803 12.9 35.303 32 38.803 63.4 1.897 16.9-4 35.8 3.897 47.9 11.8 18.3 33.5 35.6 35 64.8 1.103 24-11.1 42.1-28.5 55.8"/><path fill="#1A5792" d="M451.6 227.7c-3.5-22.4-7.4-44.5-19.4-58.2-3.502 24.4 3.1 49.2 19.4 58.2m9.098 19.4c-20.1-19-42.5-52.698-29.896-91.898 26.5 15.5 40.1 43.6 41.5 84.1-4.802 1.798-4.802 8.098-11.604 7.798M1985 155.2c40.8 39 117.896 4.5 99.8-62.102V90.5c26.896 67-61 112.1-101 66-.102-.8.1-1.6 1.2-1.3M973.5 315.8c2.6 10.8 19.6 7.102 32.396 7.8-.896-14.3-21.396-7.7-32.396-7.8m-14.2-9.2c10.1 1.802 23.396 6.802 33.6 4-1.1-10.5-28.8-13.2-33.6-4m27.2 26c-3.104 13.802-3.104 41.5 14.3 35-2.5-13.8.6-33.3-14.3-35m-32.4 3.9c-3.4-10 2.4-29.1-9.1-31.1-5.7 8.5-6.7 37.398 1.3 44 5.8.6 6.5-1.7 10.396 0 2.4 5.898 1.803 14.6 11.604 13 3.3-4.4-.4-10.602 3.896-11.602.104 8.102-.1 16.602 7.803 16.9 4.397-9.602 4.601-35-3.899-40.102-4.9 1.102-2.2 9.802-5.101 13-3-10 0-25.898-13-25.898-3.5 5.1-1.103 16.1-3.899 22M908.6 258.9c3.1 15 15 21.3 28.5 25.898C940.8 268.9 918.6 261 908.6 258.9m2.7-18.1c-4.4 15.4 11.896 20.9 23.3 24.602-1.8-14.302-11.8-20.302-23.3-24.602m33.6 27.2c5.9-6.4 9-21.9 6.5-32.4-8.8 2.3-13.8 26.8-6.5 32.4m-5.1-20.7c3.1-5 9.8-21.5 1.3-25.898-7.8 2.098-6.6 21.998-1.3 25.898m18.2 37.3c21 8.302 37.896 17 54.396 35 6.9 7.5 23.9 24.302 23.3 32.4-.6 9.3-23.396 20.4-33.6 22-47.7 7.8-77.7-31.6-79-75.1-57.9 0-88.5 27.1-116.5 57 21.399-36.5 59.1-56.602 108.8-64.7-19.396-21.5-11.5-69.601 7.801-85.5C956 211.3 969.8 249.6 958 284.6"/><path fill="#FF5E54" d="M2079.5 301.5c-6.604-2.2-12.9-3.4-20.7-1.2-5.2 3.4-1.604 15.602-6.5 19.4-5.104.899-5.2-3.4-10.4-2.601-4.1 2.801-7.6 6.101-6.5 14.301 32.103-2.9 57.5-23.602 63.5-57-5-1.4-9.5-3.4-16.7-2.5-9.7 8.7.498 23.1-2.7 29.6m57-5.1c26.5-28.102 20.396-97.5-31.104-86.9-18.604 3.9-37.7 33.5-20.7 54.5 10-4.7 15.604 1.1 23.4 5.1-1 22.302-19.4 27.302-20.7 49.302-8.2-2.2-13.396 5.3-18.104 10.398 10.4 10.9 28.304-9.1 38.9-6.5-18.4 12.8-45.4 16.8-73.9 19.4-8.696-9.9-2.696-32.101 13-29.7 5.5-8.2 9.5-18.1 23.304-18.1 2.8-8 3.8-17.7 7.8-24.602-31.104-62 70.396-88.5 77.8-25.898 2.502 22.9-8.196 40.9-19.696 53M21.6 159.153c-26.397 54.3 56.8 71.9 77.8 36.3 1.103 3.5 2.9-3 5.103-2.6-21.103 48.8-124.5 14.5-81.603-37.5.7 1.8-5 3.1-1.3 3.8"/><path fill="#1A5792" d="M126.5 337.8c-11.9-1-20.104 1.4-22 10.4-6.5-10-25.7-14.7-33.604-2.601-.697-14.699-15.1-22.199-29.697-15.5C47 305.7 29.199 304.999 18 297.7c13.8 4.399 39.396 10.6 44-6.5 4.6-.4 4.8 3.899 9.1 3.899-7.7 1.801-13 6-19.397 9.101 13.101 10.1 38.101 8.5 54.397 15.5-19.898.4-40.5-9.6-62.1-11.6.1 5.5 2.1 9 1.3 15.5 2.8 2.399 9.5.899 14.3 1.301 4.9 4.3 9.5 8.6 13 14.3 8.9-6.4 23-3.601 29.8 2.6 5.603-.898 7-6 13-6.5.5 3.599 10.1-1.301 11.1 2.499"/><path fill="#1A5792" d="M114.9 335.2c9.303-4.602 16.9 2.8 23.303 5.1 3.801-3.5 4.801-10 7.801-14.2-12.104 1.4-26-.698-40.104-3.898 16.804-1.7 43 2.8 57-5.102-2.6-4.698-11.5-3.198-15.5-6.5-1.696-4.6-3.696-9.198-6.5-13-12.396 5.302-28.396 5-36.196-3.898-8.4 4.6-22.4 9.898-33.604 3.898 9.8-.898 26.9 2 32.4-6.5 9.3 8.602 28.3 10 40.1 2.602.5 17.8 18 18.3 31.103 23.398-12.399 8.4-35.103 6.4-31.103 31.102-6.897-2.2-8.897-9.4-16.897-10.4C125.5 334.1 115.9 338.9 114.9 335.2"/><path fill="#921A13" d="M516.3 322.2c-21.4 1.898-46.4 11.398-63.5 22 25.398 1.9 51.7-6.1 63.5-22m19.398-10.3c-20 23.8-58.196 42.6-99.696 36.3 8.598-25.5 52.998-48.8 99.696-36.3M286.9 128.2c1.603 12.1 42.603 12.8 41.5-6.5-8-9-43.4-7.5-41.5 6.5m-14.3-6.5c18-6.102 41-14.7 58.3-3.9 21.9 13.8 26 50.5 6.5 68.602C297 224 226.1 159 272.6 121.7"/><path fill="#795C4C" d="M2433.1 367.6c9.9-1.698 10.5-18.198 7.8-28.5-19.9-8.5-20.8 24.1-7.8 28.5m-3.902 27.2c-4.5-3.1 2.5-10.1-1.197-13-8-6.398-19.103-1.5-19.399-13-.101-6.7 6.601-4.398 10.399-10.398 6.897-11.102 4.5-25.5 16.897-24.602 8 .602 9.603 8.5 11.603 19.4 2.101 4.399 12 1 11.601 7.8-10.601-4.4-18.601 2.6-18.2 13.1 10.801 5.5 18.301-3.398 20.801-10.398 5.495 21.598-34.303 8.898-32.505 31.098"/><path fill="#FF5E54" d="M1805 405.1c11 2.9 14.396-16.398 5.1-18.1-7 .2-7.7 12.4-5.1 18.1m-3.9 10.4c-5.9-14.9.5-37.2 12.9-37.6 20-.5 15.1 50.7-12.9 37.6"/><path fill="#1A5792" d="M2282.9 403.8c-27.399 35.4-2.7 93.8 42.8 92 4.3-39.2-13.6-78-42.8-92m-7.8 69.9c-6.2-15-5.6-38.9-7.7-54.4-9.702 14.5-9 48.4 7.7 54.4m50.5-67.2c1.4 1.5 1.1 2.6-1.2 2.5-8.5-5.9-19.1-16.1-33.7-11.6 19.804 24.8 38.604 50.398 41.5 92 3.304.3 4-2 5.104-3.9 1.3 0 1 1.6 1.3 2.6-2.1 6.5-5 12.304-9.1 16.9-28.2-13-77.5-19.2-72.5-66 3.396-32.2 40.3-65.5 68.6-32.4"/><path fill="#FF5E54" d="M331.1 485.4c21.3 20.5 64.6 1.8 71.3-20.7-20.1 5.5-44.3 17.8-71.3 20.7m10.4-92c27.5-6.5 62.396 14.8 68.6 32.398 23.3 66.4-77.1 96.801-101 48-15.2-31.098 3-73.298 32.4-80.398"/><path fill="#795C4C" d="M1783 428.4c-7.104 33.1-48.4-23.2-11.604-20.7 10.604.7 13.302 12.5 11.604 20.7"/><path fill="#1A5792" d="M2337.3 485.4c12.5-24.9 4.6-62.7-13-76.4 2.396.1 2.8-1 1.3-2.6 20.1 12.6 30.1 58.6 13 81.6-.3-1-.1-2.6-1.3-2.6"/><path fill="#921A13" d="M640.698 425.8c3.4.5 3.9 3.9 7.803 3.9 15.301-13.5 1.5-46-6.5-57 0-2.4 1-2.7 2.601-1.2 12.899 14.5 22 48 7.8 67.4-7.6-1-9.7-7.5-14.2-11.7.198-1.1.996-1.6 2.496-1.4M2032.9 541.1c.3-40-13.399-77.196-46.601-88.1-1.399 41.1 18.601 72 46.601 88.1m5.1-19.4c4.3-22.4-3-44.5-19.4-50.604 8.098 15.404 11.4 35.304 19.4 50.604m-42.6 11.7c-22.2-12.4-26.2-62.2-14.2-89.4 47.5 9.3 72.4 52.4 60.9 108.8-5.7 3.8-11.4-2-18.101-1.2-3.103-3 2-3.5 2.601-6.5-18.5-19.5-35.9-40.1-44-69.896-8 21.5 4 45.1 13 58.3"/><path fill="#795C4C" d="M1227.4 450.5c.5-2.9 6.399-.5 9.101-1.2 10.399 1.3 20.5 2.9 27.303 7.8-4.9 4.5-15.604 0-20.7 6.5-27.5-5.696-69.7 5.804-94.5 15.5 1.3 5.304 10.8 2.304 14.3 5.104-1 2.896-7.197.5-10.396 1.3-6.604-.7-13.4-1.399-18.104-3.899 1.9-12.697 14.303-15.101 22-22 1.5-.197 2.303.303 2.604 1.303-3 2.6-6.9 4.3-7.7 9.1 25-1.7 54.399-10.2 80.3-15.5-1.108-2.008-2.41-3.308-4.208-4.008"/><path fill="#921A13" d="M105.8 438.8c-15 15.3-31.2 29.3-45.4 45.4.5-2.2-1-2.5-2.6-2.603 16-15.101 32.8-29.397 46.6-46.601-.201 2.004 1.299 2.204 1.4 3.804m937.6 115.3c27.8 17.4 75.101 5.104 68.601-31.1-3.897-21.6-49.5-32.5-57-3.9 47.299-1.4 23.599 41.8-11.601 35m14.298-7.8c19.4 9 31.803-26.5 2.604-20.7 3.598 9.5 7.498 15.5-2.604 20.7m-29.798-5.1c9-.9 14.601-24.9 0-23.4-5.897 2.103-8.6 22 0 23.3m10.4-28.5c.396-46.5-44.4-.396-20.7 20.804 3.598-10.204 3-24.704 20.7-20.804m29.8-27.3c2.9 1 .5 7.3 1.3 10.4 1 .6 2.101 1.397 3.9 1.3 18.1-.1 33.396 4.5 40.1 15.5 23.4 38.3-40.5 69.9-77.6 45.5-2.4 19.1 13.5 31.5 22 44-18.603-1.4-20.2-30.6-33.603-41.5-26 5-45.101-1.5-54.397-16.9 4.897 1.104 6.3 5.9 13 5.104 3.8-3-1.9-7.604 0-13 3.8-4 11-4.5 16.897-6.5-1.197-32.104-51.601-29.5-36.197 7.8-16.4-12.7 1.8-44.899 24.6-35 6.8-10.899 3.5-31.899 14.3-38.899 1.301 0 1 1.603 1.301 2.603-7.601 13.5-12.697 44.397 2.603 53.1-3.7-36 44.398-43.896 36.3 1.3 15.103-5.196 16.8-23.896 25.9-35"/><path fill="#921A13" d="M104.5 434.9c.8-2.7 3.8-4.104 1.3-6.5-29.9 5.5-43.101 27.6-53 53.1h5.1c1.604.1 3.104.4 2.604 2.6v3.9c30.6-1.2 49.896-20.9 49.3-49.2h-3.9c-.205-1.6-1.804-1.8-1.404-3.9m-57 58.3c4.8-35.9 27.1-65.2 67.396-69.9C122.4 465.5 89.4 495.9 47.5 493.2M212 545c.6-21 10.896-32.2 14.3-50.5-12.101 8-19.8 33.6-14.3 50.5m15.5 13c11.6-11.2 12.1-33.6 14.3-54.4-11.601 11.3-10.8 34.9-14.3 54.4m11.6 9.1c14.3-15.896 29.8-53 9.103-73.896-3.899 26.3-7.2 53-16.899 73.8-.601 2.1 7 2.1 6.5 0 3 4.8-8.4 6.3-6.5 14.3 14 2.801 23.399-10.199 31.1-18.1-3 16-25.397 23.8-44 28.5-27.697-34-7.397-95.7 16.9-119.104 38.5-.196 55.3 57.604 32.399 86.804 8.897-19.604 10.397-67.2-14.2-75.104 10.5 24.301 10.897 70.301-14.199 82.9"/><path fill="#1A5792" d="M1058.9 51.9c16.9 14.8 63 7.5 68.601-13-23.901 3.3-46.601 7.9-68.601 13m1.298-6.5c21.303-3 43.303-5.102 58.4-14.2-19.498-4.3-51.798-2.5-58.4 14.2m-14.298 7.8c10.3-27.4 56.9-33.7 89.4-23.4 2.1 33.4-63.7 41.4-89.4 23.3"/><path fill="#795C4C" d="M796.1 541.1c-16.9 9.5-32.9 50.804-15.5 69.9 14.098-14.3 13.598-43.3 15.5-69.9M787 611c23.5-1 26.6-39.1 15.5-55.7-5 18.7-7.7 39.8-15.5 55.7m9.1-80.3c25 21.396 24.9 92.3-20.7 89.396-15.202-32.196 2.7-70.696 20.7-89.396"/><path fill="#FF5E54" d="M1404.8 592.9c3.8-14.7.6-44.5-11.604-51.7.304 15.6 3.002 40 11.604 51.7m-29.8-53.1c-6.9 1.4-10.5 17-10.4 23.4.4 17.6 14.8 43.3 32.4 38.897-1.7-15.797-1.1-66.397-22-62.297m36.3 57c-39.9 48.104-76.604-75.6-16.9-62.1 15 11.3 15.4 37.2 16.9 62.1"/><path fill="#921A13" d="M2420.823 601.551c-4.681 5.266-7.313 8.249-11.502 9.876-62.769 24.52-69.34-69.215-18.979-80.854 16.98-3.915 31.604 1.501 43.517 8.293-10.23-2.312-23.771-9.129-39.231-6.391-52.917 9.141-46.192 100.205 14.377 76.475 4.268-1.743 5.807-3.426 10.341-8.36-.049.918.77.98 1.477.961"/><path fill="#1A5792" d="M442.5 802.7c-9.2 17.5-19.7 33.8-22 58.3 30.896 35.3 123.3 8.5 86.8-45.2-24.3-.3-43.3-18.6-64.8-13.1m92-5.1c30.5-34.696-24.4-73.6-63.5-68.696-6.5 21.8-21.4 41.6-22 64.8 18.8 9.296 68.1 23.496 85.5 3.896m-71.2-68.8c-20.5-23.2-97-34.2-88.104 16.9 4.5 25.8 43.4 30.397 59.604 47.897-14.2-.5-16.9-8-28.5-9.101-45.9-4.1-34.7 54.9-11.604 71.3 6.801-.199 14.604.801 19.4-1.199C428.8 811 454.3 778.1 463.3 728.8m24.6-63.5c-18.5-11.896-73.899-27.896-75.1 5.3-1 25.304 29 47.304 57 49.304 4.396-19.7 16-32.4 18.1-54.4m77.7-.004c17.6-29.2-18.4-55.9-50.5-40.1-6.2 10.1-13.9 19-14.2 35 16.5 5.6 52.1 26.1 64.7 5.1m-71.2-66c-56.7-16.5-54.897 67.9-2.6 59.6 12.1-16.9 22.3-43.9 2.6-59.6m53.1-41.5c-15.604-4.2-51.2 31-40.104 54.4 8.9 8.8 32.9 5.396 42.8 0C557.5 601.1 562.4 562 547.5 558m3.9 177.3c16.103-6.2 19.3-40.6 5.103-51.7-21.899-3.196-39.899-17-59.603-18.1-9.7 16.5-17.5 35.1-22 57 21.103 7.9 47.603 17 76.4 12.9m9.1-58.3c18.8 20.604 10 66-23.397 64.804 15.601 26.8 7.397 67.1-22 71.3-.603 7.5 3.601 10.3 5.101 15.5 6.5 59.396-64.9 60-103.601 41.5-7 5.6-3 22-9.103 28.5-7.6-8.2 4-19.104 1.3-31.104-38.197-7.1-56.6-76.896-13-90.6-7.6-14.9-27.6-18.5-27.197-37.5C369 718 391.4 702 419 702c-19.399-27-8.5-55.5 25.897-58.2-4.1-29.5 11.3-48.896 35-50.5 22.9-1.5 15.603-1 29.8-16.896 10.604-11.9 29.9-17.9 40.104-27.2 16.6 12.1 12.396 48.397 3.896 66 11 11.1 22.604 21.397 19.4 46.6-3.2 6.301-10.2 8.801-13 15.5"/><path fill="#FF5E54" d="M1654.698 659c-48-39.2 26.303-102.6 58.303-49.2 0 .9-.103 1.604-1.199 1.4-15.7-3.4-44 11.397-59.604-3.9-15.197 8.604-5.6 42.8 3.9 50.5-.098.7-.198 1.4-1.4 1.2"/><path fill="#921A13" d="M2438.45 635.265c-.099 12.495 9.058 11.438 13.521 17.372-3.807 2.07-8.947 3.455-10.577 6.98.753 7.378 4.22 11.047 9.877 11.502 11.854-24.445-1.558-77.443-24.019-86.594-2.125 3-3.347 6.557-1.895 12.092 1.556 2.574 8.102-1.894 9.408 1.029-14.942 8.737-9.032 35.63 13.902 27.959-2.462 3.973-9.428 4.757-10.217 9.66m21.593 34.355c-1.841 4.677-5.181 8.29-11.5 9.877-3.821-9.898-14.408-17.829-5.98-27.892-2.4-20.593-25.27-29.162-16.293-49.666-.68-1.608-3.339-.548-5.229-.324-.707.02-1.516.056-1.389-.98 2.811-9.103 3.209-19.822-3.297-27.031 28.786 8.174 47.283 54.113 41.235 87.609-3.866 3.5 2.782 5.611 2.812 8.751"/><path fill="#795C4C" d="M160.199 717.251c3.301-27.601-6.103-53.2-20.699-67.4-16.4 22.2-3.801 62.599 20.699 67.4m-14.299-72.5c3.303 20.899 20.603 39 19.4 68.6 19.8-19.401 10.1-67.701-19.4-68.6m19.4 80.3c-32.4-7.199-46.5-54.897-25.9-85.5 42.799-.401 46.9 58.399 25.9 85.5"/><path fill="#FF5E54" d="M1656 657.7c31.6 27.896 83.8-10.9 55.8-46.604 1.1.304 1.3-.5 1.3-1.196 34 36.896-28.4 83.6-58.2 49.1.9.2 1-.6 1.1-1.3"/><path fill="#921A13" d="M1371.1 705.6c4.8-10.6 4.3-28.196 1.3-40.1-34.4-6.4-29.3 43.3-1.3 40.1M1261 831.2c-6.4-22-45.7-21.604-45.4 6.5 87.9 11.6 128.9-56.5 152.9-121.7-13.5-15.7-49.7-7.5-42.7 20.8 3.896 8.604 16 9 16.896 20.8-15-15.396-48.196-9.696-49.196 11.604-.604 15.6 16.8 15.896 13 32.396-21-25.1-62.4-1.9-45.5 29.6m82.9-6.5c23.3-26.604 43.101-69.9 35-119.104-1.399 10.304-10.2 17.104-7.7 27.304-30.896 44.5-64.197 112.8-134.697 114-15.899.3-36.603-2.7-41.5-16.9 28.801 6.4 30.897-41 2.601-45.4-61.101-17.396-68.2 71.804-27.2 82.9-66.697-10.5-10.6-130.1 42.803-77.7 6.101 6 7.397 13.4 13 22 8.601-1.396 16-1.396 24.601 0 6.101-16.7 18.601-31.1 44-24.6-12.5-24.4 4-40.9 27.3-44-4.199-23.5 7-37.5 25.9-41.5-6.104-10.9-3.9-27.5 2.6-36.2 7.301-4 16-6.5 27.301-6.5 15.789 58.6 4.591 138.2-34.009 165.7"/><path fill="#FF5E54" d="M2056.99 729.084c-.266-.88-1.729-.564-1.729-1.635 28.603-3.205 56.208 16.719 51.751 44.812h-.802c-.465-14.832-4.589-30.104-16.36-33.372-12.636-3.52-26.005.881-32.86-9.805"/><path fill="#921A13" d="M1109.4 102c-21.899-2.1-33.8 6-30.3 29.4 9.897-2.7 8.3-17.302 18.6-17.7 14.7-.5 13.301 20.5 5.9 31.398 20.7.902 21.4-37.698 5.8-43.098m-9.8 77.3c14.2-1.7 13.9-29.1-1.9-26.398.104 5.398 5.303 5.8 4.803 11.698-7.399 11-16.699-2-24.5-4.898-1.305 10.398 11.397 20.698 21.597 19.598m-26.402-37.2c-3.197-8.398-14.1-15.698-23.5-13.698-17.1 3.5-7.3 32.1 13.7 26.3-14.798-10.502-7.398-24.002 9.8-12.602m14.702-12.7c3.4.8 3.8-1.4 6.9-.9 3.5 1.7 4.5 5.9 7.8 7.8 13.2-17-16.6-25.1-14.7-6.9m-2 16.6c6.7-.4 11.9-6.8 8.9-13.7-8.102-1.1-12.9 8.9-8.9 13.7m-19.5-38.2c-32.7-22.898-66.5 47.602-25.399 56.8 6.303 1.4 12.5.4 18.603-2 .8-.198 1.1-.8.897-2-8.897-5.6-23.801-8.6-22.5-22.5 1.603-17.8 24.103-13.1 35.199-5.898 3.7-9.602-.9-20.202-6.8-24.402m-1 59.7c-18.6 2.6-41.3-2.2-47-20.5-1.2-25.8 14.101-46.1 37.2-46 6.5 0 13.2 7.9 19.5 7.8 11.6-.3 18.1-14.7 34.3-10.8 21.899 5.4 21.2 41.5 0 50.9 19.899 30.398-26.7 43.5-36.2 18.6-8.6 2.2-9.8 11.7-20.6 11.7 3.8-4.3 11-5.3 12.7-11.7M1612 787.2c26.896-3.4 59.396-12.2 77.8-28.5-30.7-.3-58.5 13.2-77.8 28.5m0-11.6c15.8-2.1 37.8-8.896 47.896-20.696C1639.5 759.8 1622 759.8 1612 775.6m84.1-11.8c-29.9 13.3-63.6 22.8-95.7 33.8 41.2 3.2 76.9-10.4 95.7-33.8m13-2.6c-28 24.1-72.1 50.5-124.4 37.6 16.5-33.7 80.803-66.2 124.4-37.5"/><path fill="#795C4C" d="M2145.6 898.6c30 10.104 54.3-15.696 44-38.896-2.6-6.104-10.4-5.7-16.7-11.604-12.396-11.196-15.7-28.696-20.7-41.5-50.502 5.3-23.4 70.6-6.6 92m-27.3 10.3c-5.2-12.104 10.896-10.604 13-22 2.6-14.604-14.7-31.5-13-50.5 1.8-18.4 14.396-29.5 32.396-35 2.804-2.9 3.5-7.604 6.5-10.4 31.604 6 44.4 30.8 48 64.8-14.6 17.3-13 43.8-35 49.3-21.498 5.2-42.196-19.5-51.896 3.8"/><path fill="#921A13" d="M1062.9 774.2c-14.5 7.6-22.399 40.8-14.2 58.3 7.2-16.9 12.2-36.1 14.2-58.3m-5.202 59.7c12.5-9 22.104-40.4 13-58.2-6.698 16.9-12.098 35.2-13 58.2m-5.098 19.3c-26.9-26.4-5.2-82 19.4-95.9 20.198 31.4-3.5 75.8-19.4 95.9"/><path fill="#FF5E54" d="M2440.9 770.426c26.601-2 36.399 12.801 36.3 37.5-12.699-2.397-21.5-8.699-33.6-11.601-3.604.601-2.4 6.301-3.9 9.101-3.1-2.897-2.896-9.199-7.699-10.397-3.601 3.3.303 16.897 5.103 11.601 1.897 7.102-7.7 13.899-14.2 16.899-16.1-16 1-44.603 11.604-54.399-1.104-10.2-2.5-40 0-18.101.592 6.597 1.892 15.597 6.392 19.397"/><path fill="#921A13" d="M1862 827.3c-22.104-3.896-34.604 42.5-14.2 54.4 1.2-21.6 6.3-39.4 14.2-54.4m0 76.4c30.8 15.3 40.6-69.604 3.896-67.2-12.796 7.2-19.198 59.7-3.896 67.2m-5.2-80.2c40.396-10.1 49.6 90.5 9.1 85.5-27.202-3.4-47.1-76-9.1-85.5"/><path fill="#FF5E54" d="M793.5 827.3c6.6 8.104 11.3 18.104 22 22-1-12.8-11.9-22.5-22-22m15.5 38.9c-23.5-4.104-31.4-23.9-35-47.9-40-9-44.2 56.603-19.4 80.3 24.8 23.5 77.5 12.604 67.4-37.5-6.6-.6-5.9 6.2-13 5.1m19.4 0c2.9 32.1-18 52.396-49.2 49.3-22.896-2.4-46.5-32-46.6-54.4-.1-19.696 10-46.5 28.5-49.196 31.3-4.704 64.8 26.796 67.3 54.296"/><path fill="#921A13" d="M2316.435 882.572c-14.601-1.2-29.601-24.9-32.399 3.896-3.101 33.803 53.5 41.303 60.899 13 6.7-26.096-12.8-15.596-28.5-16.896m32.399 19.4c-14.199 27.9-70.399 23.804-69.899-11.6.5-40.3 77.097-40.101 69.899 11.6M1179.4 874c64.8 16.9 123.5-14.6 160.601-45.4C1307.4 863 1241.8 897.7 1179.4 874"/><path fill="#FF5E54" d="M1941 908.9c-10.4-10.7-23.5-18.7-27.2-36.2-7.3 16.5 6.5 52 27.2 36.2m-9.2-63.5c-21.7-2-16.5 58.896 11.8 51.896 3.7-14.396 2.598-50.496-11.8-51.896m1.3-3.9c19.1 3.8 24.6 71.1 3.9 76.4-38 9.8-35.4-82.6-3.9-76.4"/><path fill="#795C4C" d="M868.6 857.1c12.6 17.604 31 29.5 54.4 36.304C916 871 893.1 857.7 868.6 857.1m66 40.1c-32.9 18.3-79.5-4.2-79-44 37.8-6.8 63.8 19.9 79 44M694.198 181.8c20.5-7.2 37-21.5 50.104-42-23.502.5-42.604 18.7-50.104 42m57-52c8.303 36.7-26.396 75.102-64.396 63.4 3.998-38.1 36.998-55.6 64.396-63.4"/><path fill="#921A13" d="M1438.5 859.7c4.8 15.5-8.5 23.3-18.104 28.5 2.604-8.104 12.604-9 13-19.4-39.396-.1-81 20-104.896 44 28.396 7.9 67.3-4.5 85.5-19.397-15.104 19.101-60.5 31.301-98.4 23.301-3.5-18 12.4-27.2 23.4-35-6.9 7.896-14.604 14.8-19.4 24.6 32.7-12.004 68.7-43.104 118.9-46.604"/><path fill="#FF5E54" d="M586.3 36c8.1 14.8 20 25.8 29.8 38.9 7-20-9.2-38.1-29.8-38.9m-16.9 5.1c-5.1 26 12.4 40.302 35 42.802.8-1.9 2-3.102 3.9-3.9-3.9-21.102-16-40.902-38.9-38.902m44.1 48c-26.5-.898-59.4-19.698-45.4-57 39.2-11.3 66 28.7 45.4 57"/><path fill="#921A13" d="M780.5 113.7c22.6 15.6 66.5 2.398 71.3-20.7-20.8 9.8-44 17.3-71.3 20.7m-13-9.1c31.1 6 80.6 1.5 86.896-29.698C817.4 67 777.698 77.2 767.5 104.6m79-37.5c-21-23.6-81.604-3.1-80.2 24.602C784.8 80.7 812.9 63 846.5 67.1m-86.7 42.7c-6.9-37.5 37.396-65.1 73.896-58.2 57.104 10.802 16.304 77.102-35 73.802C783.198 124.3 770.5 115.5 759.8 109.8"/><path fill="#795C4C" d="M1852.9 87.8c2.399-14.6 1-36.2-7.7-44 2.9 14.3 1.7 32.8 7.7 44m-14.3-42.7c-8.1 9.9-.9 33.302 6.5 40.102 2.2-12.502 1.3-33.302-6.5-40.102m15.5 54.3c-10.6-10-24.6-16.9-31.1-31.102-1-10 1.5-24.398 1.3-6.5 3 6.102 3 15.102 10.396 16.9.804-13.5-4.6-27 1.304-41.5-5.604.898-6.4 6.6-9.104 10.398C1824.5 39.5 1836.5 34.9 1836 24.2c17.896 7.898 31.396 26.8 31.3 48.1-2.104-10.898-4.5-21.5-13-26-5.3 17.5 15 41.1-.2 53.1"/><path fill="#921A13" d="M1662.5 98.2c-16.4 22.6-1.4 62.398 23.3 64.8-10.3-19.1-23.7-35.1-23.3-64.8m5.1-10.4c-2 29.4 4.8 60.9 26 71.3 12-25.5 2.7-69.7-26-71.3m24.7 82.9c-34.104-6.9-49.104-51.9-31.104-88.102C1701.6 81.9 1709.6 140.7 1692.3 170.7"/><path fill="#FF5E54" d="M710.4 112.4c8 .3 7.3-8.2 14.3-9.102-4.396 6-7.6 13.3-14.196 16.9-16.4-24.2 1.3-62.2 16.896-75.102 10.604 5.4 10.3 35.602 2.604 44 2.6-10.6 5.396-29.5-3.9-35C710.6 62.6 702.1 92.4 710.4 112.4"/><path fill="#921A13" d="M642 372.7c-3.604-5.2-11.5-12.4-18.104-10.4-8.896 21.8 1 54 16.9 63.5-1.5-.2-2.2.3-2.604 1.3-18-11.198-28-45.6-18.1-72.5 11.5 2.302 18.399 9.302 24.6 16.9-1.692-1.5-2.892-1.1-2.692 1.2m360 90.7c9.6-9.5 21.396-22.7 36.3-23.4 28.1-1 37.5 29 35 57-1.7 0-2.9-.6-3.9-1.2-.7-3.1 1.601-9.396-1.2-10.396 12.4-46.604-52.196-48.604-64.896-19.4C1003 465 1003.3 463.4 1002 463.4"/><path fill="#795C4C" d="M1156.1 459.5c17.1-12.1 53.5-16.2 80.3-10.4-2.6.804-8.5-1.6-9 1.304-23.2-1.9-52.6.896-68.6 10.396-.4-1-1.2-1.5-2.7-1.3m6.5 24.6c27.9-.196 50.9-5.196 69.9-14.196-16 15-52.104 20.896-80.2 15.5 3-.804 9.3 1.596 10.3-1.304"/><path fill="#921A13" d="M2457.346 660.951l.656 3.844c25.707-17.578 19.61-86.536-7.1-110.479 32.082 22.724 32.566 90.914 9.175 115.505-.046-3.242-6.596-5.37-2.731-8.87"/><path fill="#795C4C" d="M1556.3 599.4c12.8 25.1 28.896 47 54.396 59.6-4.796-32.5-25.896-55.4-54.396-59.6m51.8 68.6c-20.9-21.4-40.7-43.7-60.9-66-4.1 36.3 29.1 57.1 60.9 66m-64.8-77.7c44.1 8.3 70.896 40.5 75.1 84.3-41.5-9.5-86.8-34.3-75.1-84.3"/><path fill="#FF5E54" d="M92.8 767.8c2.399 11.604 27 18.3 37.5 9.104-.7-4.4-4.4-6-9.101-6.5-2.5.8-.199 6.5-5.103 5.1C108.8 773.1 102.699 763.4 92.8 767.8m19.399-11.7c1.897.304 1.301 3.104 1.301 5.104 10 .1 18.396-1.5 19.396-10.4-14.197-5.6-27.5-6-38.896 2.604.1-1.604 1.6-1.7 1.3-3.9-5.5 1-9.2 3.6-11.601 7.8 4 3.603 6-2.6 10.397-2.6v5.1c8.603 1.492 13.404-1.208 18.103-3.708m-63.399-48c.899 10.804-2 25.304 6.5 28.5 4.2-6 6.2-30.7-6.5-28.5m25.899 45.4c23.601-17.7 68.397-15.9 77.801 14.3-13.9 13.604-28.104 23.104-51.9 18.104-10.6-2.203-21.9-16.604-32.4-15.503-28.5 3-39.899 59.6-53.103 82.896 3.603-39.896 23.5-63.7 44-86.7-21.1-12.5-39.6-27.696-44-57 1-6.696 4 2.604 9.103 0 2-5.1-7.103-9.896-7.7-3.896-4.103-2-2.103-9.9-2.603-15.5 40 1.396 59 23.896 60.9 63.5m1983.062-24.617c-29.603 3.017-38.647 52.794-7.717 62.724 20.354 6.536 46.229-2.766 56.873-19.547h.864c-11.043 27.97-76.961 34.505-80.153-4.839-1.396-17.975 10.045-33.876 28.469-39.909-.066 1.068 1.398.754 1.664 1.571"/><path fill="#921A13" d="M772.8 765.2c23.396-18.4 12.1-69.2-13-75.104 5.6 18.604 11 48.604 13 75.104m-15.5 10.3c21.1-26 5.1-78.9-13-97.1-23.9 21.6-12.8 86 13 97.1M741.6 668c44.4 14.8 68.6 93.3 14.3 116.5C726.8 764.8 718 701 741.6 668"/><path fill="#1A5792" d="M2289.866 765.703c-6.346-20.848-24.749-37.776-35.559-57.498-2.16 27.607 14.945 53.585 35.559 57.498m-31.209-67.586c2.251 18.322 13.585 37.12 26.521 44.863-8.16-16.284-15.855-32.769-26.521-44.863m47.908 65.365c.587-28.813-14.02-62.97-35.455-69.364 14.24 19.525 21.545 49.466 35.455 69.364m6.183 10.67c-47.699 8.824-73.787-55.226-58.459-97.699 32.336 11.705 57.145 49.776 58.459 97.699"/><path fill="#FF5E54" d="M99.3 195.453c13.5-10.1 10.1-48.5-7.7-50.5-12.897 16.3-45.6 24.602-70 14.3-3.7-.698 2-2 1.3-3.898 22.104-34.2 96.604-29.4 89.5 28.5-3.196 2.398-3.696 7.5-7.896 9-2.305-.402-4.104 6.098-5.204 2.598"/><path fill="#1A5792" d="M1406.1 376.6c19.4 1.4 23.1-43 14.3-59.6-14.7-27.5-58.5-16.7-71.2 9.1-1 12.302 1.304 21.302 6.5 27.302 28.8-20.602 35.9 22.198 50.4 23.198m-23.3 5.2c-19.2-6.2-43.4-24.7-37.5-54.398 3.5-18.102 32.8-34.9 54.396-31.102C1441 303.5 1440 400.1 1382.8 381.8m186.5 301.8c21.396-4.5 47.3 21.4 36.3 46.604-8.7 20.3-61.2 19.396-67.4-5.104-5.3-21.8 14.1-37.9 31.1-41.5"/></svg>