<svg xmlns:svg="http://www.w3.org/2000/svg" xmlns="http://www.w3.org/2000/svg" viewBox="0 0 40 40" height="40" width="40" xml:space="preserve" version="1.1"><defs><clipPath clipPathUnits="userSpaceOnUse"><path d="M0 32 32 32 32 0 0 0 0 32Z"/></clipPath></defs><g transform="matrix(1.25,0,0,-1.25,0,40)"><g clip-path="url(#clipPath16)"><g transform="translate(16.1758,30.0332)"><path d="M0 0C-0.1 0-0.3 0-0.4 0-7.7-0.2-12.4-3.8-13.7-10.1c-1.2-5.6-0.3-10.7 2.5-14.1 2.5-3.1 6.4-4.4 10.9-3.6 0.4 0.1 0.8 0.1 1.3 0.2 4.5 0.7 12 1.8 12.9 11 0.4 4.7-0.9 9-3.8 12.2C7.4-1.6 3.8 0 0 0" fill="#f8c114"/></g><g transform="translate(29.9473,13.3862)"><path d="m0 0c-0.9-9.2-8.4-10.3-12.9-11-0.5-0.1-0.9-0.1-1.3-0.2-4.5-0.8-8.3 0.5-10.9 3.6-2.7 3.4-3.6 8.5-2.5 14.1 1.3 6.3 6 9.9 13.3 10.1 0.1 0 0.3 0 0.4 0 3.8 0 7.4-1.6 10-4.4C-0.9 9 0.4 4.7 0 0m-3.1 12.8c-2.9 3.2-6.9 4.9-11.2 4.8C-22 17.4-27 13.5-28.4 6.7c-1.2-5.9-0.3-11.3 2.7-14.9 2.2-2.7 5.4-4.2 9.1-4.2 0.9 0 1.8 0.1 2.7 0.2 0.4 0.1 0.8 0.1 1.2 0.2 4.5 0.7 12.8 1.9 13.7 11.9 0.5 5-1 9.6-4 12.9" fill="#9c2d33"/></g><g transform="translate(20.0488,21.2188)"><path d="m0 0-2.5 0c-0.3 0-0.6-0.4-0.6-0.9l0-1.8 3.2 0-0.5-2.6-2.7 0 0-7.8-3 0 0 7.8-2.7 0 0 2.6 2.7 0 0 1.5c0 2.2 1.5 4 3.6 4L0 2.8 0 0Z" fill="#faeacf"/></g></g></g></svg>