<svg xmlns="http://www.w3.org/2000/svg" width="25" height="27"><path fill="#DF3D33" d="M-270.917 441.325c-.258.024-.403-.009-.45-.05-.056-.051-.146-.217-.146-.783v-3.799c.019.014.029.021.049.039.925.795 2.318 2.188 4.162 4.156.138.146.244.264.344.375-1.106-.046-2.711-.074-3.959.062zm.618 11.341c-.898.866-1.792 1.967-2.509 2.852-1.101 1.354-1.396 1.721-1.912 1.721-.503 0-.746-.209-3.329-3.372a57.882 57.882 0 0 0-1.351-1.622.71.71 0 0 1 .061-1.014.737.737 0 0 1 1.032.061c.301.332.809.954 1.396 1.675.434.531 1.021 1.248 1.527 1.845.084-3.076.025-8.586-.065-10.438a.723.723 0 0 1 .695-.753.734.734 0 0 1 .764.683c.088 1.813.148 7.106.073 10.281.738-.907 1.65-2.025 2.595-2.941a.744.744 0 0 1 1.034.01.708.708 0 0 1-.011 1.012zm5.281-9.978c0-.297.018-.479.018-.521 0-.018-.003-.033-.003-.051l.001-.006c.001-.016-.005-.023-.005-.036-.028-.876-.556-1.447-1.239-2.173-1.863-1.99-3.296-3.42-4.257-4.25-.699-.604-1.162-.65-1.742-.65h-9.788c-.438 0-1.073.055-1.514.512-.344.358-.469.881-.452 1.596.1 4.209-.007 14.877.018 19.091.005.793-.019 1.321-.019 1.476 0 .698.257 2.321 2.642 2.321.316 0 .944-.011 1.782-.026 1.651-.027 4.146-.07 6.63-.07 2.131 0 3.889.031 5.219.097.074.003.148.005.217.005.84 0 1.516-.254 1.955-.73.441-.48.568-1.141.533-1.972-.064-1.752.024-5.447.004-14.613z"/></svg>