<svg xmlns="http://www.w3.org/2000/svg" width="102" height="102"><path fill="none" stroke="#6C757D" stroke-width="2" stroke-miterlimit="10" d="M-180.035 508.712a3.436 3.436 0 0 1-4.312 2.252c-3.226-1.013-9.947-3.125-13.875-.244-1.634 1.199-2.771 3.247-3.438 6.081h12.484a2.813 2.813 0 0 1 0 5.624h-13.142c-.012.415-.034.808-.034 1.239 0 .451.024.866.037 1.29h11.413a2.813 2.813 0 0 1 0 5.625h-10.702c.691 2.762 1.86 4.788 3.528 6.012 4.2 3.089 11.17.916 13.453.198a3.44 3.44 0 1 1 2.053 6.567c-1.757.551-5.533 1.729-9.748 1.729-3.263 0-6.782-.708-9.832-2.951-3.345-2.463-5.49-6.351-6.465-11.551h-3.682a2.814 2.814 0 0 1-2.815-2.812 2.815 2.815 0 0 1 2.815-2.812h3.118c-.012-.432-.047-.839-.047-1.29 0-.428.032-.824.044-1.239h-3.115a2.814 2.814 0 0 1-2.815-2.812 2.815 2.815 0 0 1 2.815-2.812h3.649c.941-5.287 3.05-9.201 6.354-11.623 6.733-4.938 15.698-2.125 20.001-.774a3.43 3.43 0 0 1 2.258 4.303zm-16.363-36.189c-23.625.727-42.313 11.979-47.347 36.199-8.06 38.748 12.288 69.153 47.797 62.979 13.852-2.405 46.66-3.473 50.151-40.04 3.285-34.381-21.207-60.047-50.601-59.138z"/></svg>