<svg xmlns="http://www.w3.org/2000/svg" width="32" height="32" viewbox="-281.5 436.5 32 32"><path fill="#DF3D33" d="M-261.452 446.781a.5.5 0 0 1-.499.5h-2.039c-.301 0-.637.396-.637.922v1.333c0 .274.225.501.499.501h2.181c.274 0 .459.22.406.49l-.3 1.631a.62.62 0 0 1-.589.49h-1.698a.501.501 0 0 0-.499.5v6.853a.5.5 0 0 1-.499.499h-1.997a.5.5 0 0 1-.5-.499v-6.853a.5.5 0 0 0-.5-.5h-1.718a.5.5 0 0 1-.5-.498v-1.613a.5.5 0 0 1 .5-.5h1.718c.276 0 .5-.227.5-.501v-1.037c0-2.207 1.53-4 3.632-4h2.039a.5.5 0 0 1 .499.501l.001 1.781zm6.825-4.515c-2.896-3.188-6.893-4.88-11.151-4.76-7.749.238-12.793 4.108-14.205 10.896-1.223 5.893-.251 11.33 2.667 14.92 2.224 2.732 5.365 4.178 9.087 4.178.864 0 1.768-.08 2.681-.239.374-.063.792-.127 1.249-.19 4.459-.651 12.756-1.86 13.711-11.863.472-4.962-.962-9.56-4.039-12.942z"/></svg>