<svg xmlns="http://www.w3.org/2000/svg" width="32" height="32" viewbox="-281.5 436.5 32 32"><path fill="#DF3D33" d="M-267.664 454.966c-.093 0-.185.007-.284.013-.796.059-1.533.357-2.067.844-.528.479-.798 1.08-.759 1.693.08 1.276 1.451 2.026 3.122 1.904 1.643-.12 2.738-1.062 2.654-2.341-.072-1.205-1.121-2.113-2.666-2.113zm.379-3.726c.988-.28 1.608-1.786 1.196-3.23-.434-1.525-1.137-1.979-2.229-1.979-.118 0-.235.018-.348.05-.471.134-.851.526-1.057 1.114-.212.592-.229 1.214-.044 1.919.333 1.261 1.227 2.174 2.132 2.174.118-.002.238-.017.35-.048zm11.008 1.156a.501.501 0 0 1-.5.498h-1.729a.5.5 0 0 0-.5.502v1.728c0 .274-.226.5-.503.5h-.813a.502.502 0 0 1-.502-.5v-1.728a.5.5 0 0 0-.501-.502h-1.729a.5.5 0 0 1-.5-.498v-.819a.5.5 0 0 1 .5-.499h1.729a.499.499 0 0 0 .501-.498v-1.729a.5.5 0 0 1 .502-.498h.813c.277 0 .503.223.503.498v1.729c0 .275.222.498.5.498h1.729c.274 0 .5.224.5.499v.819zm-9.183 7.916c-1.084.527-2.252.584-2.703.584-.084 0-.137-.002-.146-.002 0 0-.03.002-.089.002-.703 0-4.213-.162-4.213-3.358 0-2.781 2.993-3.295 4.497-3.375.274-.017.362-.193.244-.444a2.753 2.753 0 0 1-.25-.885c-.029-.275-.056-.495-.128-.492l-.125.001c-.444 0-1.291-.069-2.026-.543-.896-.573-1.345-1.554-1.345-2.913 0-3.832 4.187-3.986 4.229-3.988h3.683c.273 0 .5.021.5.045v.046c0 .469-.841.557-1.413.635-.09.012-.226.028-.35.048-.193.028-.142.178.073.354.689.563.814 1.379.814 2.505 0 1.508-.592 2.306-1.22 2.862-.387.347-.691.617-.691.982 0 .357.42.725.905 1.15.794.697 1.88 1.652 1.88 3.257-.001 1.656-.719 2.847-2.126 3.529zm10.836-18.046c-2.899-3.188-6.894-4.88-11.152-4.76-7.75.239-12.794 4.108-14.205 10.896-1.226 5.893-.254 11.33 2.666 14.92 2.225 2.732 5.366 4.178 9.086 4.178.864 0 1.769-.079 2.68-.238.375-.063.793-.126 1.251-.191 4.457-.65 12.756-1.86 13.709-11.863.476-4.96-.959-9.556-4.035-12.942z"/></svg>