<svg xmlns="http://www.w3.org/2000/svg" width="102" height="102"><path fill="none" stroke="#6C757D" stroke-width="2" stroke-miterlimit="10" d="M75.337 63.158c-.25.503-6.48 12.585-24.334 12.585-17.825 0-24.052-12.082-24.334-12.585a3.897 3.897 0 0 1 1.747-5.243c1.935-.962 4.256-.174 5.242 1.706.206.438 4.577 8.294 17.345 8.294 12.844 0 17.193-7.938 17.372-8.294.987-1.88 3.354-2.619 5.233-1.657a3.89 3.89 0 0 1 1.729 5.194zM37.98 31.468c4.324 0 7.81 4.071 7.81 9.104 0 5.041-3.485 9.134-7.81 9.134s-7.807-4.093-7.807-9.134c0-5.033 3.485-9.104 7.807-9.104zm26.041 0c4.324 0 7.807 4.071 7.807 9.104 0 5.041-3.481 9.134-7.807 9.134-4.319 0-7.808-4.093-7.808-9.134.003-5.01 3.488-9.104 7.808-9.104zM50.1 1.023C26.479 1.752 7.791 13.002 2.752 37.221c-8.053 38.752 12.288 69.153 47.8 62.979 13.847-2.405 46.66-3.472 50.151-40.039C103.988 25.779 79.5.114 50.1 1.023z"/></svg>