<svg xmlns="http://www.w3.org/2000/svg" width="32" height="32" viewbox="-281.5 436.5 32 32"><path fill="#DF3D33" d="M-257.421 448.168a7.094 7.094 0 0 1-.951.986c-.21.178-.392.4-.388.519.002.073.002.144.002.213 0 4.339-3.299 9.341-9.335 9.341a9.242 9.242 0 0 1-4.601-1.217c-.24-.137-.253-.236-.039-.227.132.008.262.009.394.009 1.358 0 2.62-.407 3.669-1.11.23-.15.181-.293-.09-.34a3.29 3.29 0 0 1-2.382-1.768c-.125-.247-.05-.438.121-.419a3.46 3.46 0 0 0 .744-.014c.24-.031.208-.127-.053-.222a3.284 3.284 0 0 1-2.112-2.586c-.041-.271.164-.397.428-.312.167.057.343.102.521.135.275.047.31-.071.107-.258a3.277 3.277 0 0 1-1.066-2.424c0-.425.079-.828.225-1.201.101-.258.359-.274.545-.068a9.343 9.343 0 0 0 5.936 3.013c.273.028.458-.127.435-.335a3.28 3.28 0 0 1 3.263-3.656c.762 0 1.467.26 2.024.698.217.171.588.296.854.222.401-.109.791-.26 1.159-.44.246-.121.371-.022.248.226a3.258 3.258 0 0 1-.848 1.063c-.213.177-.184.264.088.211.317-.063.627-.147.926-.255.265-.097.346-.001.176.216zm2.794-5.902c-2.896-3.188-6.893-4.88-11.151-4.76-7.75.239-12.795 4.108-14.204 10.896-1.225 5.893-.255 11.332 2.665 14.921 2.223 2.731 5.366 4.177 9.087 4.177a15.8 15.8 0 0 0 2.68-.238c.374-.063.793-.128 1.251-.191 4.457-.65 12.755-1.86 13.71-11.862.473-4.961-.96-9.561-4.038-12.943z"/></svg>