<svg xmlns="http://www.w3.org/2000/svg" width="102" height="102" viewBox="-246.5 471.5 102 102"><path fill="none" stroke="#6C757D" stroke-width="2" stroke-miterlimit="10" d="M-171.164 534.658c-.25.503-6.48 12.585-24.334 12.585-17.825 0-24.052-12.082-24.334-12.585a3.897 3.897 0 0 1 1.747-5.243c1.935-.962 4.256-.174 5.242 1.706.206.438 4.577 8.294 17.345 8.294 12.844 0 17.193-7.938 17.371-8.294.988-1.88 3.355-2.619 5.234-1.657a3.89 3.89 0 0 1 1.729 5.194zm-37.356-31.69c4.324 0 7.81 4.071 7.81 9.104 0 5.041-3.485 9.134-7.81 9.134s-7.807-4.093-7.807-9.134c0-5.033 3.484-9.104 7.807-9.104zm26.041 0c4.324 0 7.806 4.071 7.806 9.104 0 5.041-3.481 9.134-7.806 9.134-4.32 0-7.808-4.093-7.808-9.134.002-5.01 3.487-9.104 7.808-9.104zm-13.922-30.445c-23.621.729-42.309 11.979-47.347 36.198-8.053 38.752 12.288 69.153 47.8 62.979 13.847-2.405 46.66-3.471 50.151-40.039 3.285-34.382-21.204-60.047-50.604-59.138z"/></svg>